<mxfile host="65bd71144e">
    <diagram id="wpTFPRZuTqctxvbztDSI" name="Page-1">
        <mxGraphModel dx="1086" dy="460" grid="1" gridSize="10" guides="1" tooltips="1" connect="1" arrows="1" fold="1" page="1" pageScale="1" pageWidth="827" pageHeight="1169" math="0" shadow="0">
            <root>
                <mxCell id="0"/>
                <mxCell id="1" parent="0"/>
                <mxCell id="4" value="" style="edgeStyle=none;html=1;" edge="1" parent="1" source="2" target="3">
                    <mxGeometry relative="1" as="geometry"/>
                </mxCell>
                <mxCell id="2" value="" style="shape=image;verticalLabelPosition=bottom;labelBackgroundColor=default;verticalAlign=top;aspect=fixed;imageAspect=0;image=data:image/png,iVBORw0KGgoAAAANSUhEUgAAAfgAAAF6CAIAAAB6Mt37AAAAAXNSR0IArs4c6QAAIABJREFUeAHsvfd320l2L1jfADCCICIzJQaAIEVJLYk5SJ2mu9XTYew9+0/tOfvLevedt7v2emy/PfbZtb0OM57wnu2eDootqVsSSYBUZKYYATAi3T333qovIHXPjOQntjjdRUHAN9S3wudb9bm3bt2qEuIP+c8QwqSPQaUwhKADW3iE6BaD04O+VFiALUDgpyAMMERBBHdDg1NDIiZELT5sWPiwKVyGKBPCLQxbCLrEsXPURwMlU5gu4XILyxLCNLDslhC2MESDaFvoEVBOhbUFGBaYYl+4wDbAFgVDFFwC3CYIMy+sfLkFlQJMwsQwc5aZM11guPPCLhBQYLlytitvSdwQQJcMz0jKb5OSMwUYz/0xKR7TKggT0zIFWAJso2AJTlpmQGCE+L5MN5jRx22imV+tLUS5MCoNBAHfliEsyyw3hW0K06Qg6nURMPwQVQt+mS4hXBiyzBA2hmQETWELly3KsPZYKhZZsah+mKYwjaNXHQ6/UnqE6BJDk0PBlNcGIXLCAMtVsESO60mZyFkGuPElFoRJTcwC4QLDzBsiK9xY94QJtgUus2DRh951sRZxfeDYuIXiN1U8rlR4bBUMV840sQ5jPTTAwPqDkdCVvGVgzTdFXthAVSsvYotR0VpCDYcGlUNBXF+QebrE6OR4U7LOzggLq7dJJbKpeVYKqBDgNiifrmKLw2IagIUyiuAQDgXDxEgMwsQyCraRNywQFgUzQUQWIqJRGKaNRIZcplrAoRX51UTM5M7fivQNUS1EVIzeHgsm6y2oEPtm4MDfstjUutpSlfV4t3xDU0OiW4iaIjKGMIg5TWEghRoC/x010AyUQrYtLHyZlGOiJkMExfDUBX+ywZWVDG5ge7NNMEQeG6cBZWX5qpptT32yrmWtrWWp/dhyW9tie2z5RPdib3Suq/NR+5nV7o6HLZ2L0c6Frp65WPdcV8dSpG0p0rnYHVnojix0RRaikcVIZLEjstgWWWzvXOzqXIjR9a4X+Y5FF7pi851dC5HOxVjnQnfXfHdsvis63x5ZbOta7Wpf6uxc7Gx70t6UbqlKecw9K7oWEREhqlAKI1Hjj11uoECmpmwbwqLXRlVcvjWkcBPfqSJuep8WMrlFEr2E6A1hCZdFsRffuIyHAS7G9Gpq+atKtVKIY+LD6x90zrb5t2qD2/W+/ZC5a9jMX0g35SLDvCypCkktJ2yw3VCG8gCltW0dlHl3fMFkKJCs86dC/rTPn671p/2eXa+VcSGRFYSrYNXsVoV3g7XpkG+7zp8K+tMB73agdtsfTPnDyUAoGQ4k64Lbdb4tX3g74N/yepN+z7a/OuOzD8ptcGHSeSEyRmWm6tTDk6JRie3DR48rC1Y2DzHPxHhw1ec98DQuN3atdHetdHcsdkWWTnbMn+hcOBFZ6I4uRLoWOrvnI7H5SGQRK3xkIYIX56PRhWjnYoQ/kYVoFFtfjNpdJLrYHZ3v7l7saV8+Hl7z1e5VubJmZD4ijlFDMAzL5Tr8sr6yFBBk1sxYoqE2Xi5Eo/jw+seh1QbroCy4W/+f4T9fhk8/gf92fK29Zs0/Pj0uokJUC0PYpuWSpKleFwkM1u6OmoRkacR6vCm7M4JIsEO8fudCcMuPmk7+qbaHwj8vPOmaP4E/+Wv465/DLz6DSzfh1tdwdwruxeHeNExPQ2ISJhMwPQWJOCRmID4D8TgdJ2BmGj/T0zB9D2YewPRDmHoAUzOQoOszCXjeD4enqCYTMEWpP7gP9x9gVHem4OtpmJmB+wlIXIdrfwt/17twtmovFNhsFCNCtFExDUPYLn7j2K5MfOcGymb6U1q3iRLRtFF5L6rkRPsWiYpy+qYL9NJJVLjo27QwUtTsTVmlDRNlAwkK7jW8sqr+nSdsCVGJTemjLz8+P/1G/+2x7oeveXd9qquHXWSzYFqkivJFE3tphshbFri4Ay3A9hwEu2dPDCaGBxKj/YmR/um+welzI/GBk497/Lt+0kWMml3Pn8D/8n/BX/yf8Dd/Dv/vX8Ff/Rf46V/CX/wUfvrn8Gc/hT/7K/jpX8Ff/jl+/uJP4f/4KfzpX8Kf/xn87/8z/E91W/6KPctFHcQK8Ac3G4duj4r670RRw/pDChgq1ET0ETE+MVa33dC42vxf4dcTcGcSJhLYlCZnqGVNY82fnIIpbjhxmIrD5DTEp7Ed3Y9j/Z+mz/0EPIjDg0k8jU/BxBQkpmAmDveuw5f/AH/XO9ddu1PT+bgTRZphuiyssbIhfOc15bATlD0nas3ctsns4iKzTI/onI/V7PoDa+H+RN8duHUTrh+fb/PvBrsfnhDnhAhyg5ZtGN+XsoeYiJhNnyMGHVcsVD9dkugNYq0aIdrFaHwoutTZvdjdvtLZsNtcnarxb/ur0pVleZd/z3ty/sT52+MfX//4Glx7BLNp2N2HQi4PAJDP5wsABYA8fhcAcvQp4D2gG3yPL+cLkKdQ8vaL/MgocwXI5wAKnBQmvl+ADCafw0wkYeMW3By//YY/2VS16++Z63rr+hjq9fVC+Ojleon3bWxmKOcNYdqWfH/4Eg1bGC7ssJlk3LJRGZDWF4usPijdS5oFy3XbQNXepm5wkegttJVRjfget6Tf1lINwrkFFVX8vCb67w9GljrbFlqPrTQ1bTX6N3x1Kb9vwxNMhwI7YU+61rcb9G2FQqn6YCoQSgXrNutjsz1iQIgeNKjip4c+MSHOiVOPT/vXg9UFj3fHe2K2ZzgxPhj/0cDkmyMTw6MT/cOTQ4NTg32Js/2Js0NTg0OTw4Px0XOTA6MPhgenzo5NDvZPn+5cOF63HgjseGp2PdXbwbrl9oHpMXFKCO9vK9JLvY61iKubjRWMNfrJMV8y1LEUnYC7ecjkcllZ0QsZKGQAsnnIZiFPbQ3yeECNkFvg09/5YpPEZpgD2IPMA3j0c/h57GG0Nl3Tu9Irmqj+C7Q+HzG2eklQOwYyg3Q30sWw1WMbdaEmMpq40LDWHNz2ty22fnDrg7+Hv2vYDFdAWWWqpvfxOSQOH7Z6wyKCL7I8kwAy/0vK6UuKRhWYdE9bZs+w0UrhQkuUqBP41huE6BBvfPl2/8xoX+KN6OMzNXu15QW7essd3qht3mg4d//cFbi2BE/2IIe8XlCVjisZ8nYOIEsETyTuMD+xsMP5XFOVHHi6hqK0+OZHXmLJgJwviR5ykMUkDyjZLGQgdR+mPrp2selJY1mm3LvnbUjVdaweOxs/Jc6iGRTJop04iI0z2PUyhEXET3zPgy/UIzPZtsNme9LTSQpIqyq9YyZ9NHSyXk8ygGjdQGlhGzgUIivJS3qXfxDRGNi9cZGiyvK1VtWxVuT9d26+OzY1On535PX4+cGJ4XOTA/33h88k+kfvXRicGB6fGn7z9uiH198SvVQnvdQ/qMCeNBKiR4gwvsrzE2/41oKuTFlNykP2mcZguimY8gdTPn8q7E+FAmlvIF3rS9X5Ug2+VH0gFQ5v+huSgfpkKJAK1Oz7avcCDZuNx+baTj/s/+DOH6Epo4YHr7Dzd8hAU9VBridNokaImBiIj/m2wx2L0SlIoA7DbI1t6gDyGdJwitQub6K2pZodtytSiXJQwADcQvOwBwdPYPUKXD05f7p6p6YiWxF9HMUmT3UVx+6+r39KLUMKJNs697kNyzZQpJ8QA/eHw1uh8GZwYGror+C/dM21h5O+slxF81bbB5f/CDXEqqdaNb0xJvqjh1mR6AVLNeIemwaQqUIjHJYtyrHHfQzrHH4GxOnJ1zoXjkU320IbPk+hMrQZHPv6/L/CJ3dg8hHMbsLmARwgK1O1wpqFR1ko5AsFVDcKBdIlslLdzgKgWgKAanmhUKBgz/OdL6AWz4p8AeOlWkzCQ1b3gow6A+llmLsJV9+cGu+cP163UefZ9VhZ4dv1nHp8cnhyePDe0Ju33kRR3SBEC30H6FViXUfKJ9mP9Z8NcczytjTIyKGN4kCMJHoL7T08IMtQE6jmD5nomcLQRIaNwmJ7Fo5hmdhwHE2/i6TvCRLAvVTr+Eo7aR5+ISoQerewynDcm8dODOyX+vDBkcnx7sWenoXursfRnqXeztlodL4jMt/RMd/dMd8dme+k41jHfE/HXFfP0onuua7uua7o467oXCy62B17cGJ4clQMClTkj6E4ITFfZqCMUha4Q2jNVEdKBkAN6kZ0i/7ESG0q2D4XjcNMFvIpSG3CxhqsrMHyFqxsweoabKziZ3UVnqzC+hakULfJqXbFDQObIepBuUK2QM1tD7JLsHwDvhy7NVq7FXRlK+o268fujqF6RxLtsGXaIUD4/FGqMVSSadyclc9MOfXxu0XzfGvdTuPA9Mg/w89+BT+/cHc4tOULrPnemXgHtcJqIdwWtm60xGI7l/ZZJokjBZ4iemUxlq2QbE7YDl02Ga0FmQtZb6qmylcn0AmhR1yYfCO4Fqzar2xINrWtdnQuR0cnR76Ey2uwvA8HbLVRhhhk/jzks6hrZ/EiK+j4WyDDjaOwqyd+/y92HuiDkT3VISgU8tk8XsW/Qg6yO7C7Cutz8PgGXHn/1rs9szHPvsfMWbV7/kAqXJMMhjcb2xc7uh939c7FBuJ94gyVsZp4Hv1waMjaGYzlGsWEzpwljfis8hFzsd8Cg6ouo1EI1VriiyNVGZ6/jfxHQ2KNMkw3dpTQeIWlZ4umIdw2OSmxes41zU96dI1S2GtJZ6+hAbMKMoIihJYiX/kOkOtZtW8ksdFIMpu/G9RxE0mLRuyjo/8Vf7dQ+Ga60kL9jAC19yrqo9MrI7eFQ3xnbDggKyrVD1MSzlB8MJyui87FZuB+GlKTcPsqfH4ZvvgCvrgEly7B5c/h2mdw9TP44jP4/BJ8Pgm3d2DDMeHkIJODjOzv5rNQyBYKuV3YW4Sla3B1+N5A3UbYypQHthvGvjovOglA07RMNzqHcb39j77xo/qcQ3xSj+dBWXq1fEug62H30snarWB/fOhf4d/uwu3P4ZNjT5pCSf/Y5AiaHWtI6mMM1E1HXYXQOoJEzy1NZUyNTOBgAg9HcqHdhot8S0zLsJikkPhtqoURMTQz3LraEloP1e7WWjkrvB748a0f3YGbszC/CekDJGL5Rwp3NgsHWdT3Uc0oyO4l6eWFPGkcKvRz/JJkyBe4J4BShCMkwkfix/sFyB3kDjKQy6DZPlco5NOwNQF3fgm/OHvvXGSpq3020v4kGtps9qcbQlthf6q2Giu9r+dR74++eh+tOg1U0mpinGpS88uVAwYRvbTHoxEfFXjkHx6fkWIASb/U80p1y49qKzi0fDGrl0ugqIqpuoeOrcJykwsUAohtBk3V6N2Aej83SGqPhsOEXD3JnKYkLj1pWhZKZf7QoArWVgonnax4+N12kqtwUefChaFUUHK2lW62lmXziPoh0ryUejgUJGuRKURAiLOi93G3J1XT/qTzMlyehLsf3HxvcPLcSGJ4KD48mBjCT3x0MD7anxjunx4cTPS/f+PtKbixCYsHsJ9H5T2bRTs+NcR8HgrZPGQ2YP1r+Prtm281rNZVH1SF0k2nZwaQ5f3saGyahpsa+aGW+NCq2u+NWDrcMDcblmFSjcHCYi11iXJRL6JzvbUbwdHE6Bfw+QIs3oa77Ysd/mRgND6Clg0P1yJ8QFYOp9IR4f/ePHynAZzWgLKbjMqkLWF5aUyBGpNJLQ1RkEKLC2aTdt8hPr78wfjXoz3zsdoDT81O1enZk38Pf/tr+K93YWITtrC7SMNDBdQl9go4THqQBRxRykEuB2RH50Oqio5i/9wHUq+nPgLJB2Z47CdgjFTXcWQ2g8ll92F/A9KLsPoIHt1Dt5x71+HWGzcvDkyPDUz0n5474U17XFnbu+8PbNa3rHW+dp+0ex48jJDGF6TGQGBYFpK7LUSZhZ1uF6NnUgCyspJZgTznif9NHIXFbqN01P9OX/YrTswhZtm8ntIzkJBN0vSps4PaOn2wzbA4oPFrUjGRgUwXkXBpkZyQkpz4nJ4g4cpzRTBxFjn8skgwk8MVdgdwGolKTz4pT78LxjPJ/OTGwlnUja4Tw9MD/nStcWCHMw1/Bn86MjXU+uR4bcpfmwoEd4KhHX9gqya8GWhMNYa26n2bweBOsGWlfiTx2ufw357AGhvqpeUUGwO2jQPIzMHCL+CXsQex4I6/br1+/Osfod3SS9WX4UaYvosyl77B7+5YcjK2RclpqEVgu0RdwBa2aBCds7HQTsPQxOAX8NkcLNyGybbFSCAdHpkmovdjbrm2sHKAJ7J+Hj3gnAKjEo+VS+YZzTVU1WTOqUjUBLB4bNPCiUEk2BrIijokWp40+/Zq69bC7fPtZ+6ffe/2xetwlVzBHk7D7CN4tAiPV2HhCSyuwOoirK7D5j7s0phSHkmYtP/n5ndp+2FFhW31JZdKbDkkAcgbIZdHoVMgM768CgVIQvo2THwGX1yGz38FP++739f2pL1us96z6xUZy7Nbc2q2a2yq//zM+dcnfvTu9Q9xMPAYeeyESQNyzAs8JFhO5gWqPuReIyxqMRJprEZuBJKryHdXtY9ESkUKduqVZHEydlFTY6CeIXqlt1MVlESPRlGnRT3V4qQwlYGpPRqlhggOzJKE5Ap3vpH5Zer4I3WdItE7iR0WlqYhygyjnHozlPlGEZuNWXmcqGjs2g1b9Q1rDTX7/tr9UNNKa8dcZ+fs8d6laPdsZ/ejaOxRd/uTiCftrdn31K8Fhmb6voRbc7CyhLb79WV4sgJrZMrfWITlm/B1//Rw41arb8cfnYthz7UG9RTZm3cq62GV9BXHixWAnC0sF5IZ1qMynOgoTAO7dTinplFEl2OepG8wPvQJ/PskTH4Gn7eutgV2wv2JAXTeqCWpiHVC6vRchQ+9krw4dFzdiZFsmvXjUjYbHINFzmdHIfXWObzLJgszdqYtVKoqLZxnUINeE/3x4fB6Y022pjpX5U37wmt1nautHXOtbY87Tj8+O3J7+GfwT5/Av12Gy5/BlWvw1TQ8WIONA9gnis8XClnlUsCDqb/nu8jlaLahvqmSEuRWkM85Kj1Su3I8Q4NRXkoV6gBkILMJa2uw/AQWlmFhBh5ehRvvXH/71KNu/563quAKbFeENmuCybBvs6Euebx5o7NjMXp2vn9k8gL6+Z1Uw9Q9NITYjOq8S06KRmsXvnqyi9GEWxr2MA10XpO6xIu/uT/gJ4pqsrTJOKQrGdfhbrZ+IkhkuOH+EbUqBBR1DW5Z/ADr7ErrV2KEIyek+T1gYOfjCBNMBDUcmiuO2guLEO57qbiUmenQwKfiYJfPzY6NBnYfo0u9OBG9YLqgrCxX6dnz+TaCJx+8hlTTrMYhWtVIQ0ycvHe6Pt3k2w+HVhr740M/g3/5DXx6CS59Dp9+Cp/9Bq58BtcvwZV/hH9uWumo2g7WbTYPxUfQ04a8SCSAwrRYHXHexqGV+pVEbJBlym0LFxaY1dUQAdpIAzjHcCC+eb3Fc+CPPo7RdKGfD98abdg55l0Lvhl/Uw1lcGUif1iMCvukdOmVFOq3JuoYlyiHbpJoqh2ihZQcyUukATUv9nDgduF0gkn3r0WvpLHJ16OPoi2rLeGN+nC6LpCqCe57aw483p3a5o3GzrmOwYdDg1MjfdMjQ1+d/+jK/3AZrk3A1GN4vAGr+7CdR0sOu9I8zzd59OBoKzvckBlS2n944BcD4FUnMvI9yKPhSPodK1sPO4Bm82jhgU3YnoS7/wq/6Js6HZtr75lr71pqb1k5Vr95zLdVX7sTqtz21KR94fXmzqUTZ6cHRqfGR6ZH+qb6+xPDP7p5EatBnRAhsrHWUI+YxvQEzr8tKzNdylxwBCvFb60tL+WGVHeIMw1sGm68UlLHHBJ2DtgwT1PViLA5H2gMQzkpH8c7loUNjXqkTysoNACOXI5/MgdS2VfmIartJUTPVnLytnKRQFLipvg8R/cyv9GgZOD0Ou5ZYE7rxGB8PLzeHNgMhLdCobXG9sXY0MwIugOh5YA0BUIPXboFeQa+Jk5Pn63fOu5JhxrWW7qWYqcTp/sn+4am+wam+/vio4OJ80NTw72zJz17oZqDus4H3TgHyMcFwQmEFvoE8xuSmL3MQh6NuBAzyyzD+es85N0uhqaGOlZix5dOdCz1dsx2tK42ew68rmxF9Y7XnwzVbzTVb7e69n2NT9p/cukDdK+sEC6uZ3IEDrsIOCsejSFHS4UraV+ocUq7IJtluBFR5ZHtiRUaNGTRFFGe3Yku5QYP0kq5WE/KRVRc/Ori0MTg0NTA6ZlTx+ePN2w11KY93r0ampJe790L1SQD9ZvNzcvHIktdI3dHbsCXK7BElhyllhcNMb/tigzBBM8ae6kDT1a6GZM84DiQ8rMZcjxDAz576tCtXC7HY7bkn4z2nEVYeAj3eVrvLbj5CXz23tUfv3H39f77Z7sWI01bLVXpQM1+uC7VGFgN1O2E/Du+mp3aQLKuden4ifsnx+PjqO+fIA/9FppPh7a/MpowhQstWKa7hHiORgs4zFxwfVPUzBPz3Jaw2UcNoWBjCdEMD7+yzZOOWbFm67rqU2Ju6RlkfZeN7m4Ym1L+beRM7JiiXwQxPFZoust6jFrWQirr2EhlJqU8cAtRTgPpMmuHCY+M21ajPpiFaiEi4sfX3ntrYuyNO2MfXPsJThBrpA40LdmBvOLCgLR4Eg0uk4Pp6cTZxvSxqm1v1X6Nb88f2CZTftJfl64LpcL+LV/1drWZcdUnm9/56j20Q1YJG8eYLEPY5cJ2C8P8vnrcSJhNwzBxQiOaI+rER5c/rN9qotnYLgHlZZmK2n2vd8Pr2wiEdxt8qYA/FaxdCzWsRwZmLkjfSlIqpJKCr4BrDrH8ER7cINcuHFfEqoPzhAgPalyyyUmiNywcrqAOD838Yc2LvHHYZ446oJXkm9hFExdPCzEsxqZGTj7siS12HXvU2bbS1bjaGt5s8CeD3n2feWC1bLV+dP2jaZjehvRzuNsUg0j2lmq59MAh/sZL6GGADp15NgmRrp8FdEIgB8+nid6Z1pUhsw7N1cWeQhafhj3YW4DFaZi+Cdc/h3//Z/j/LiTOn5w92z4bi831nljo7ZqPHFtuCSQDnn1vddZTs1tTtxaKLkb77o+O33774o0PsImGqYNcTTN9yktw/g744wgkUSR6zAzXMxevtiS7vFyZVK9S9nuY4bElYQRk87JZ41R1lK+jOs/at/JrIqJnHZ8qNMsRboqkDisyk0QvTUEYLdd/7HBIYcxZO3QUKV01AY+mC9SSLaFdYDexgXqHblb8Sd2mnBOwlEETlyND6/EZ0XdnsOdRb+ditGMxGl3q6pnv6l2Idc1FYgtd0fnO2FJXbKl7ZGJUdFCccma3yzbLaKk+gY5LEoRDL/R3ngDXRDLboPNMm3jrzpt1W2Fa700YGVdoMxRZaD/74Mzo/bHBiaHhqZHhyYG342+/e+0nOGbtl1o79inlH8codeKjiBtWD84kGigxh8Vaw3UbdSUep6CgWLMsN652RK5q3ChNAz3h0EmJnieDfwVVIA9VuwDV0QYygrUKcRwFwB9f/+M37rwVe9jj3ff5N4PjX1+4CV9tkJfOb1Pgv3ndccdHEpcGHJx3JSdMSQHguF2yKR9V+eIQLrtlko2H48CIaLSA7EGFbAHHiHOQ34e9HUinILmKA1yzD3FFnckpmJyEmSlavec6XL145/3emZPtS8cbNsOhPX/tbm3Nli+UaqjfaDjxqEf0kRG/i2b/N1J/+fu8bJRqBCW/qgmwhR3rG3Os6upyx5d5lr2ZlHaOT6L9hBYdkhoThWalnyLm6OiQTS2so+AFuljsrKos0WU6KXmW6j15d6L5UtZo50c9eli/pmmSBmWZLhulYTnp6VVE+pV0SqOHZF62scmiucDAXhGOI1IT5iVbeN5Ak7Lj82SCZhIbDdQtaCDNw0fxk/JmsgeZISx3kcIOq5yvMl7uF3Klq8Z5/2/feSu0HsTVlEBU7XlOz5/E9bDOkKLKU/W6SNI2yUaLE8q4msiqxVwpa5qqza+yiE+lLdtZia2eqrWq8/yL47RkS8VWQ36B6IKGxjzqFWMTYlULnTN5dQCsbS6LWyOPMEk4MHXusnupkrUJMSQC60H/TmAoMXoJrq3CRqmeXcrjjpXF0eeJrJGy+RbZcZDhaawVL9IVDu64mSnTDl4muzwP5EI+jw6f/Ahr/Pk8zuNVkTtzyjMsJXLkJ7q/X9ghP1EUDilITsDEJ6jv//345NCpeyejC9Fjy611ybryTIV/39/zKDI2PTAcHxi7PfrBrY/RGTcsUKVwPpWkKxCmJZAVz536xLVMKbtP8VXpg/y6WZMtCUyH9DLo6DusmDKnTPTI3FwilQM2tpBGzooE6uNqgJCqH2m78kEmeslJXFtl95NkAvUa5AVKhomes8DpKnzoV10iuHBQtNRrTuWUnzjcb2xFJuvY1JJwGW2cPoB/PGyM1i2bVkg1SDCYiuiVMYrKgpBgaS0TF99WKyzhsygY3GYZmZRpyROGEt8GGdLwDajuzuGW9VXGTtPdK9B08/GVj+vW6nghvcBm8OJNsmeFyUbmNM5qErbUwys2uG/L/++++21PHP41Wbn5p5hBdcTX2QHZCSNvykdlHp8+U82CO8OstWFAflSaZ8mC0SFal1oCe4G+6aFP4fIKrJUQN/nK4KI1yLYlbM5uwczzSNjFI6Jq9p8vuehQ/tPXFK+XCgQSC07PQYZgWVEMLtPETDnzcgHNQZkUJNdgZRkezcK9e3D/Nty5BL95+/br4c1mO1MeyFT7U5W+lD+00xjarI897sVxsCjpDby8RAuqbHLSDhmTWXRKpxDWaWXrNNw8yG+6nWFz4jq1ho7zuvApJAKa3MsqM61UihzPMyRouTb1yg+/zj2lJHNyKnFma84615rSeoXHTggnFvVssc6V3nr2+ectHitsssI+70MvLVxdv9lSAAAgAElEQVRprkm7oleP0as7LI04QRbkxXvPZoMJnxUvJ47SAevSR5U+8Gwk369zbgGmRR7iNWi9GZ4a6Vju7FjuHJ4awbVtPTTAQzYKCvz9Kv9LLg2SDnM9tkbZImm6EFEPMlqDOLES8+xUdc31/C38wzX48j48XIQnW5DMwb7jNKmMLczJ7Ar/DGtLNn61P/l8PpvJ0FoPaPDZg4N1WPoKro/cvdC1cCIy29qx0Hxs9XggWW9ny7wHga6Hp4fjFwYm+samB0emR9+7eRFtgGFy1/FSZasicUhrjyDdk3+TC719cSEBMqmpVTWlcq6YkBmBVGUmdDLN8TkNd5JmR8Zx3mXCeUEvuRLo6DQCRwsB6rdQh4Ubi4vaWIisWs3kLVdFA2iy8eCitUVt4mgV5YjkhnBkNwdUIKQ9lmZmuWiFTFM0iq7Hna49y5P0NKaaj6+2nb137pfw6ymYSsImerzjYmiOTl/Urdlh8kiRvePGiXNxC7i8yAHk05BchyeP4eE0JB7A/UmY+Bw+u3DnQnAjbB24vft+XzoQ3PYFtmr8G76mrcaW+YZzD86gNb+blH1exivEc3GfUd1MXCEA+/RSCyNuZ6O2VEixp4/VlSs01QoKxOdFEzbbBKhiH5Gqo7OhEThEBLjFWC7LNHEqHXrC0XgMGrpwHUfcZM6yTNPm1qN5/ne/CxKdKBDZ6uoQC0/1Jte3BjE2Nday0RzeCHnSHqtgVe/V9Dzq/ejqx/dhJgmbGZrLqjzh5TiqdHp/ymjzalV5TN0h+v0cLY5P5qYs5PYKewVcvxOdOrOQX4GlW3B99O5o92J3Jy6p2Na1HGlfaWvcbPTt1roKZvV+ZedsdCAxPDp1/vWv3vzoxsdydowfx80Mm3xOcJV7HK402HhLhE7VkWc/IJNTZVa9clbw+ZuM12yAltyO14tdr9/9UvVdjcAfPgLSIIa13saFjIRl8ZIYNh2g87M0cPJiFH/4JT7MEqCFmViFiZ5YRar16ACMSj1t0/jOjXcvTF7ofhyr2qksh0rPTiA63/Phlfcn4etlWMqgfoy6u2PAcSj1SGn0kuxxFWbcegUlVA7XC5fzfQvo05kF2IedLVidhQdTcOcebgY0NQUzl+HGW1++c2Kut3rXaxXKcJp7MhxIN4aTzeGlcGwpdm5qGKfJ1ArDREWDFI9yYVfQEmEEsxyUVI5PNB7JPipoNCvR1p3B99KBSmL6kkCHWS103BqBV4qA7NDyZm80BQF1JMuQ7rRkH0UNiQYn1e4irzTHRzpxglMabpRiSYzDhI/uY/gPvYOPkfPSOXE2cbp5rdm9V1297et93PNP8Pe34MYCLOzRosdFww2RvhyeffWqfEkOaCU19O9kkxP57The/ET0KAWy2X3U8dHRHxf5yQNswPYdmPw5/PLcg6H2+WjHbGd0pbtlJRJaawru+AO7teFk44n7Z3D6VYic8aWDF5nXcU4ej9ahGV+ulEnsbpM/ItYSqcvLPiidoTbDl5Ug0ER/pBuUztzLQ0C2B3TDtVB7xyaAc2XNMjywTFp1kFqVDPnykv7exSTlplTp1Vis1OixtG7ElpaaKCfy8tLKAb2iZe2YGyo9+97G5aa++LlP4JNVWCN9nl3bUb93tPsSln3lh0jiuVyGNkHB2VrZzB459ReQzGnyFe3fhoYdtONnaIllvJ47gP0tSC7Cyj14HIfpGZiYgFufw+V3rl08M3sivOKt2a3y7niPrR4fnRzFqXm055GL9jQv8fXGlXdp3oN0SVQM7vA5Mb403LMDIdqAaKz3e1f/dIE0At+KgCQmVHoMnAFE2g9OX6AhLVrPEp+jlSwNtNZTq/nWqPRFRqCU60uVSVzQnuZck5m53EB6QnsEOguHxMjUqH+jznPgq9qtaUw2jt4dnYU5onbyt0Gt+YiZ50tETD7Payvk8zjrCim9QAuu4cY+ZGki51A65FKgDECP0Fwhd5DP4YZZGFtmD5JPYH0SEr+Cn52/N9C63FizW+0quP2bwTfuvo5DtcfJP4d31ONpNTSBgYieJtUUEVf1kd+HlLW0LjWuHID72VOtV8H0r0bge4yAY7vkju43VXZ1BX/Z9iyb0vcYlJdRNIUbxuUcM9pkWJbzJHk2I1vt3/jqYmz+VH2yqWq7qvdR7ww8Qpd1XpyMJ7rKebAlFPvKD3kKQNGiRETOF4m/aXM3tcwmXyeKZ2rP4k7PaNAhoi/kIL8DuU3YeQIrE3D7/S8vdj/u8ezX2pnyULKxafFYx1L7uZnT6J/TribH4zxbmmJjVtDqVLSTB65NRL0qhp7UE0nraIPEikzuli/jTes4NAJHHwG1YJLja0ZZ5ubh8BNeQ42odJbd0S/aK82ho0YiCbE2yfmRzE48RHNqaS9RF00zjggxJo7NtdXmvU2rjb+Cf30Ic2uwsY0rXGZRBcaJrEVOfeUkjxkoJXpnmJjVdsppBvIHPPFL8jsPKsvNf3ioFp9jpifzDj5XgBSkJmDiX+CXJ2ZPhdcbg1tN/oP6Mhy1ru5+2Pn61+MfX/0JroUS4unsLDhxeybDxCV1LF72lijeorEn2Rl1bDj4CvSfRuCHgQDpmDgSS+u4yHXvlGmZdVG58jB5jKDbjdbof0/VkAISp7Y7VI6kQgOBltxKB9fMo03jXJZwmVYZWnBCQpwWfQ/PeZPV1ZmK1o2WwbuDX8JXK7iacRodFXlfqSNB8CWZUBzNPC+1dmRu3AKddu8kP0vkb1yVgTZTJKJnmeW4E+EpOpEWcBO43D7sJyH5EB5cgcvvX3n/wp23Tjx6zZv0V+Yq/TveplR902pzX6Ifub6WlkNRy+wKYdpWOa2Fgi/KIP/MCpxpRSeS6Llu0/fveZ36tkbg+4AATx9nZZ2JvnQdedqGBp2X2eFSu938vlfOCjwKQ4t2TEdzsFwZE528cQFxWhuZd9rjLa7cJvqKu0Ql2qA/vPZ+90LUu+NxFyz/ZmD89ls34OsNWM1kd9WSCCUk++oPJU/TgsmYmxKNPQO4Uy4Ov+JV/KAUoGFbst0z0asleah0uXxhNw+7GTjIQyGTyR7AwQos3oPpL+HWP8MvhmZGuxa6WxZbQ5vhimxlXbLujdvncUGFeqJ7L33X0qQ/nEFLi0uj171RRlPXnl1496k+6+97s/q+RuAPG4Fnq7tjbHCUH1W+Z0Oq6/rXQcABD3s+Llu4aOI+9ZGQ21FSFhfpp84RDsmiACATTxmann989WLPbHfVTnV5viq02Tw6+eYMPChuJ8Ka86uneM5Bnha6Pyiw478y0VMeHQpHgsc/ZHa5oBpTPy3RQxN+C3mMAHX+/Rzs5SCXxT2dMVQGMtuQegJP5mH+Pjy4DROfwtXxu28FUiFj12hK1ffNnxH9aserLoEzrY7jWkw4gdaFxnp2xaRFEZxxJu1F5lRZffBDQKCogSIZKSZ/iq7URdXz1bab31ExisjhWqqkzuMyCIQsrqBXgreCm2Zzsu2s3LBEBS2yOoDbN1bt1JiZso652BTMoANLcZ0zJs6j8C2JnpxtpGsQq+9KhUeWZ99KRe5I+Oo4T3OqMmjnQdYvZHEXdXTWzNHq+DjzCtfGL+RwSf3MQXZ/Dw6WYP0y3Dj3aCCQDJQflHlTnpOzJ4Ymh4YnR4Ymhwfj59678SMcrfXSIgqK0tl2xiuc4Tqk2OWiV/A73qa+pRH4/iAgiRz191JXBb7MjpZyQLFI+d+f0r/0kqjFWXDwrwRaJBXaeIulKfWWiPVxzyU5UIibw6H+WUkuJf0iNhutOfBEljoTMI0KMRLkUftzFr5/akAVVXiyzPDeVRniegzBur0y5BdHYaUQoyDI+GSwx2lVMtpMLpOXG+JmaUeUpatw/fW7b/o3w658RW26JpwKhXcbvclAMO1vXmrsiw+K0zSrFuf8WZZBS+CiyLVoHw/cY4InT730CqAj1AgcZQSQ5JnomXZY91REr36PcgmOQN5o8RReHRdJBf+UTyXdQq9vabBxNEoGmscShWHjOtoVuG1xjzg7+Vrtjqd5rfFT+HQFVvfggBzWv53rJYlKdVrqzIpZ6RG+hRq285FRFR+Sz31LEiVheFBYip0cmd3xASJxNb9LJpIF3BL3gPRyqfBzSDLjlCSP3J9jcw0u0qwEhQxB5n3sGsiF9/dg9wk8uQlfDccvdMx3xea7uhdi7XPR1rV2f9rn26sNb9SPxEdFGNG2aVRcOT9x34lXGOWdZ3QXVVZV/fNDQAApiGnIqfglp4qgfghI/PeVUWn0DorKRIO/zkWJZ9GSo1R8C2dRVaBSHxMD90Y86Zra/drTM6/9K/w7r1zPDErWbcXY+Is7gyOTSvMOkmKBeBHpl0laLibPe0454aRzPunfimCVJs36NzM4r51JIXJ5tK7wdiSFLGSyOOiqljfAdW9QIcc/onZypcfQvF8h3+E45fG3X5KJPxVGFSZHbjmbsPkIZhMwPU2fBEx/DpfOzJxr2Gio2a0+OdsjGhBxUlx47T48pSNWa0zqQDkv5b/vxeunNQIaAY3AtyKg1H0pDNRuGzbuptYq3v7yveb1Y5W7noZk4/n4+CN4xPYQGrRUg5VEpuT0kkW2dQiceL9I31KJZ4WbuJ64tigCSBwgq3IMSjrIKyRBpKqNKnwWXfvpLwe5HB6rMVXahpDjQLqnBHhYVu5qyI8dzvcCLP4T/KxjqbNyrzy63C6anl7Q0pG0yO28SYB2F/7WiqkvagQ0Ai8dAdQz0TjGfk5sbsDpsm2ib3qoPtXk2a48dT/2GO5JRkVGz2ZRZ0ciJVbN5dFAwr72SKJ4SynUbF0hYYDejQ7NOzozHTjkXJQOMiL0fVdh6aZKlGlcZeLpYdcc5FHsSHO87A+oWA6H5gFW4Mm/wSenHp6p2vW0L3eIFlbhGVcypnFXSg2KkIB96a9TR6gR0AhoBJ5BAAcFeZtju2jQYd3TL8SAaF/srNmv7F7omIYJ6b+C+jUu987czE6KaklgOemUuZ4C4HKRzO9Mt/yNnMuCQtK5JHoOzEwseZnvsOCQxI331WV1hERP5iN6OEdrFuM99KjMQEHtT8tRH873Gqx9AZf6EgM1aX/LynHcu6qC/Wt4kEmZbSTRK7vOM29En2oENAIagZeKgIl7IOOEHpqtRpYGOfBtCeEX4qQ4e+9cTcrTudCegEQWvQ6Vtk7mFGUcJ+1dUrc85o3AZSj5mNKwHTkg+V6SNm0DiyuT8R9p5RRbATKQw01EePYTBWczEIbEIDhI4IgQkhCO3s9WejT8oCw4zL81WPsMPh2dGQ2m6+rWm8QQ+ap6yE6D0pSIXopT9HEycX6yttG/1BqtI9MIaAS+gYBJFO/GmZtoLsY1t2jBdRpD9ArRJcanx4PpYGQpOgWJLCrGqNazMk4kTgvgMFHTubSMI/PmchRWau6K6/G0+Oeo6JLyS33eedVJjjsDedoOhaa5qkCUIMaXw81G5FrEJdFz5LywAbn7lNwrZuHlHW3Cxk348s07bwRWw8Hduti9ng+vfySanOXsaSljegc0OoL7qWmi/0ad1Bc0AhqBw0CAdUylaeI6xugq4kYzfY/o+2ogmAxF5iMJSPD0pAwZS+iLN/bISzOKMqAr5kQ+5vlKNCWJ7CqK2PPkLZMjQ/+zVhjHOZ60eVpjEp34HUkhw+M5u//kaUi2xFlHSg2WEfjNYZ+WMSqbL+93G9IzkPjo8ofNq62ufXdg3xed77x45QPc476yuHIfI82We63PH0aN1nFqBDQCRQTYSCxtNYruaeEh0xBlwoObZY/GR+vSdceWj30Gn87D4hKsb0D6APbJN12u/44EqpT6Ih2jmQVN9jRrqZBBTifmJs7OwUEG9nlEVxE931ZhOEJMJp9VPQOOXCaHJ7SyPP3IgVcWEqjqozGHbPRFkj9khR52YXcO5v4N/q35SasNlgARTNUOT43iejjVvFEarkKhkNZWm2JV1EcaAY3AYSFg0nJxbvpGswIxEK28SMOFXtToh6bOBTe9dTvBMzNn/gl+9hv4TRymUrCVzWdoL6f8AWTRnsKO7DSpFF3oka7JZi7NLMy8SNG09RNkaZFI9KdBTxwc2y2uTVMy0soaOxF0Lp/fp5Vt2CEe16eUK9QoZV86WZJmfwCFXVzRLF/gLQYpDHcLXp4G/2xMO7DzGGZ/Cb9uWmsxQAgQoR3vyNQwE72Jfk08SYpeKPP9Yb1bHa9GQCOgESAEHKKnhRbl6ityypVBluVj4v0bb3autnhTVfVbjR2LkcH7/X907aMpmNiCrX3IHKDpHD1wiMJRic7iqaR9Mp6THw0Ng+YB9nG1MHaOKeRyBxggJ1eXzBQdd1T/AOWF9J4vFKe4shaPy9RQ1Jgy/scftWoNHWW4Q0H3MpmDTB7XNDhUpT4F6TjMXLz+Yf1ms5W3K9KuyOLxD65fFC20zBmuKMfrhhL62mqjm6FGQCPwHSCg/PscEw5ZcfiMZ09V4jbiw/GzDRuh6t2aiv3q6mRldKHjJzc/vguTT2ADBzqzZDWhrbdxN9ZCPkP7cKM5R46P5vKFTB5yuGKMZNpCIc+kTHKB2BfXjyeGRz1Z2m3YFx8voN8NZHk7KHaixDmw/Icp5VDioEHpgObokmGJEtvLZDgyMiQV/S/lsy/1Zx02rsD1scnX/am66j1v79KJ966/I5ppgTNc9AaXDi1ZhltvpfMd1HGdhEZAIyAR4PW11Oigon8L9xGnTbF7xfjU6IlHJ5o3W6ryFZ6dqp6H3f8A/3gFrt+FqWm4NwMz05CYhIkEJKZh5iE8XoKVddhIQWoRFh7BwxmYjkM8Dok4TCcgMYOfqfsw9QgSC/BwlQKvwsYTWHsCT9ZgdRM2N2FrAzbW8bO5hreWV2B5HZIp2N+DwgEUkpBag7VVWF+H1RQsp2BpE1bW4MkTWF2HzT3Yy+DGI1JkkNTJ5nE5SiUeXirFc2RrsP4FXOmPD/u2w4GNOjEscBi2Rs6LogkLagU5RFYTvW6BGgGNwHeIgFohB5Msmo7Z77ucNhoM0vYap0TzWpM77/Ylva1bzcdXjrUvt7cvdbbNdUTnY13zsRPLJ049ODl+Z/SX8Is4TN2BO7+CX49Mjp2afa1zoev4XOT4XFf30unIbKz9cfvp2ZMXEmM/g3/8FD69BtcuweVL8MVn8JvP4NPLcPUafHkdvrwGN67Crctw4xJcuQSXr8C1u5BI4vZPu3fhDoW/8hlcvQKXruHdLy/DjS/g2pdw6x4kVmBpj5aZz+ZwI3A0GOG03EMk+nXYuAo3Bu+O16br2tYjOGGqujgAwh6syPDF0VhtvvkOa7lOSiPwQ0aAaIcWXaEjUuxxeUXDNIWLrMqizDTK0YRfLwbuDDRttDRsNIQ3Q/6U15uu8e34Azsh31bIvx2uSFX6tmsa18LnFk5fvPHeP8A/npg72Zhqrtiqqtz11O6EAumGup1W71awaq/Gs1vTkGxsn+84N9N/Yfr1wTsDw/HB/plzfTN9g/GRkcnxsYnxsYnzoxOvD09eOHd3YHhmZHBi+OKtD6/BrS/h1tvX3xyaHuybHu6bHhmKjw5PjQ1PXhiaujAYHz1/98JH1398E65vQJLHfpHfD8it/xB5Hth0Mzx53rcZ7pyLilbkdNPF7vMIruR1wrlEov6Qa58uu0ZAI3D4CBDnMPE4C9PjdrJugVs44h/u1IsbZdiGgcsXd4qf3Pzj12+/PTgxOpwYGk4MDt3pH5saHYiPvvZooGM50rAVrt2r8GyXBdZD4WSTZ9dbkapsTDVGlyNnZ86MTIwMT4z2PRjsWOkKbNRVbddW7tb4doM1m9763bpA0hdI+3xpvy8d8qVDgVQgmAoEk6FAKhjY9fu2a/3pYHijoeNJR8eT9rrNOn/a79v2+dIBf6rOn6oLpAL+tM+/7Q2mfPVPQiN3hx/BPBnoc9n8Aa6t6Uy6PQS7DQCswuqn8HlfYqB+q773Ma1eyfYwdqpUwpRNOcpCdvjvWKegEdAI/MARUEab0tn5SPQ0bYpcvk0T583iNoRkhfDStiQdQpwQopu20OsSaKPoEuKUEEOiP3Guc6m1cSsYSAX92yHfTrBlvbV/5pwYEKJXhTwtxKAYiZ/veXima/lU+2JX+0JndL6jez7SPdcVne9qW4q0LXd2LrZHF9AoFF3oal843r5+PLReH9qu86dqapMef9pfl2w4vtIaXYhE509E509EFqLHn7SEk/6avQp3zo4+iVyGa6uw/gSWn8DKMqyuwRYZ/dfX0bKPnyQkszjMy2vco1knA9ktSK7BGgdYg7U1fPDJOpr+8eKa+izB8gN4kIC4+iSuwrW/gf8nttTtT3l7H8dwTixOkzLQMF+y2g1tP4K7LxQXN/uB10JdfI2ARuA7R0AaGUrsx0rl53WNy8j0zHthewXOq6qij0eIIK5vLHrEh1++//rX54fjw33TQ2/d/BGOSfpVMK8QAfqEhKgjsdEkkBMbaRiArxyjnVeb6WIDhWlGWfLujR8PT40PzvT1Tb/WHx9468aPUMY4DzaRIBkRsdlITbq6Odn0d/B3l+DSJfiCvi9fhitX4Mo1uHoZDfpXLsOVSZhMwRZALkuWnTzAFqTuwN1LcOkKjgpc+gIufwGfX4bfXIVPr9IgwSW4+gV9fgb/0vewr2OpvW3hWMdSe8dSR8tKazAZrt6rNjMittgpGmmSFC4vQURPGwniMS5x4+KZU9/5y9UJagQ0AhqB34kA+Y3gDlbIVo6Wigq/bQu3KVzIYBU0eNsocN/ULlwWDVm+GoO7RIUpyhxnE9JnXXiZRn3Zn9NNpiLcVJUukzNiOe6+yn79LdSH6KHOQYxirhSWaVrCZQo3smkNBhhJDIS2A96dmt7ZEwMTA8OJkYGpwcGpwaH40PjM+Nmvzo4mRocmh0fi59+79uM78PVjuP8YHtyH+zPw4Cp8+fbNH/XdPTc8OTyaGB+Mjw4kBocSZ0biZ8cmR0Ynx4emRgfjI31TQ7G5E579GjNvejM1tWlvcCcY2A75U6FgMtSYrh+Y7KMdpiwDC0xCs7j8P/rb0M6OJcL0dyKvb2oENAIage8IAaJ3uf4ZK/nq28S9yO0y5HxL4L4l5aS/15ILOS7fKFzCZQs3WjFMYbqQ9+UC7c6ajkSHRIukAtMW2i6cYeQ2hMuNW51TnF5yWPRQT6IC1+WRf7Rrn6hF6TI6NeBNecy8WZv2NW43+5IB/3YgtB2sTXorkhWBTABJORX2pRpaVzsHpvv+Fv76b+D/fj1+4fTDs+1LkbrN+mA6GNquDyTr/alGX6rOv10TTHvCW+G6zYZgMuxPBYO74eo9r52vqEh6umd7B6dGhifGRyfOD98dffPuWxevv4ezYX28SazlFmVu4cZCO1xvoEGH/XBUAfSvRkAjoBE4MgiwNs8KvbI8U+Zw+3ELZwUJ07bdBk73NyxTuEzTJVwuVLpR98bdskkcyG1tlbKrflkE4AxSF35kWKn60sr5nAG3UYZ9CGJPC+Mm0q/ClYE/vvZB9EnEk6ypTzU0rba0LrRFlroiC5HOpY6OtY7jK22dC50tS8d9ew2VO/66zfrWtebja8cb15tq077a/Vpf2htc9bc/6eyc647OnYrOn+hc6uhcbI/NxbrneqLzXZGFaNtcR+zJic752MC9EdGHiwKhEYnHKtrJEhXAdeFMw2UJ2yXsMuR6XPFfijiUeLxy8ZF5rzojGgGNgEZAIiAN+JYhbAuVdJs2PhUWsrqy5xhIupZZaYpyGz9lbqMcR3tJ/+dQRNxyPJInDqn12tHP3ESJYZv4oUFgOTZAMWA8LoGWIiZ6YfKi7rSUjOxPNIh3r7w7em94fGr04rWLyMKNAmeoHqMF4tn0HxOn7/cF1+tr90KVe97Kg9rqdG3jZmP7XGvf/d4P7ryDrN1EwwMN9FQrnTbRcQsNRTRStHXUw6im3ka1Oq5Alle9F8tFZZFG+SIIsm+kq5ZGQCOgEThiCLCxhvRncrO3TV6Oka9LdRy9x3E/E1FuiooyqxqXuSelGxcBKFqsZWibFsGXdgwpAUwTjTLo1ikVf7LA226bhIkthNsSZS6ke7Lwk5hhEYJPVZL5PkaKdhNt8yQsw0ZRZFoWThAwbeHF8YOR+FjvozPRhd6O+e6Ts2fG42NikAYAWuWMVht9S9nvSDkoca6x1Ab2YbB3YroNN4orC69QCbFbY5o4tdhCuaWcmqR5imWiJvojVrd1djQCGgGJgCQyZms8If6T9O1yIZHL9VxQrac9lMjbBG0xTNKWiXQo40ELkEEjkxh/ibaPJ9gzQInhorQxWj5ARR8N3LbcGYseQ/qm8V3LRm3ao4YHypBrLRvjdtu29Gg0iP1rye2HfX6aSOUPkWHdT25FNmZBsjrSNa38Rs9zBwP7GpSy7aZSU+povbJc2LGg3Epp4Ni5UHSRqk/sLzMji6V/NAIaAY3AEUGglOj5mDJmGlI/RRqnjcZpv3FSyonZ2PukaJdnBkX93bHcEG8+E7/aAYsUfe47kLggseHCjRBN2iaF98Wih00SHKT6k30Jh2tJqaZuCA6ByhjwXB1bNKiLBijMEPEzG6PYXMSZxDWGkdtlX4OfdYYpUPS4TOzHWEz0NnVf6AFHYrjRgwgjkKr/EXmrOhsaAY2ARuBZBJh2kcJKuJ5Ue1TcLSJfmxZrxCeJ5ZgP8YTVdofoMQai6WJUMnqOnOwmTg9ApYgXcHl3FZ2LHBbxiWL8yKXIyZS+zGupoZzGAOSW6EVNH5+iePhLFp26F6SnW6STy1FgnEpG7I8PyT3WaZAVo1C9AYyP0rVoyhnao2QKz+KqzzUCGgGNwJFAABlTsua35Ie9BpnrLTJ2kP2FdGipSCuiZ/sNxYEMypdZWkjOlz8URN1G+iVBQNRJOnmR0JFb6SZztTSx0ORUdbkkMguX8nFzfPJBxc3F0DItipACsfEFuyGmTUtFUM4xGBlo0JWGIys1atW1l94AACAASURBVBk2DS9TmGIBnLx+C5D6kkZAI6AReEUIMHXiGgk834dJC1nOOSoeIDfTFFCXol/iUTajKFWcxmAxNrbg0KncbA/LWIwNj/mM2VhSswyAHQaZOVTjDTK/kJ2FAjhigqNQIUsmf3E81O/gwMWkFYWz9i5NNayUk8hjgzyNxD6TQTQBcbmofyPLVRQqWrN/RfVYJ6sR0Aj8DgSYA3F6FH0kZeEDknDVAZMx8mBx7ivdU+OSpCmTLznb1NE6LjmUwslMcLTfyFFpanQT01P0jZNqbXaHcQjeMaTQk3xZsbpKTxYOi8LWe6dQlDdczNOkpQtkebH0GJ0sK+VDRc85xjuqwNKSw6eyA1CCHz+gvzUCGgGNwCtGQDEhEiD+fYNuv3GBAikbDem2SOukc6OpWg2bktmagnEMspxEo8pEI/Vm+ay0kLC5BOdgkZjAHNERkjIlpDoOqjdA96XhntNiYaNIX+rfKmOyT0AhTRpHxbFWAwUJmf5NWxgGmqjUPFeZf/7BElEMCqpSkSDRk0XVPxoBjYBG4Ggg8BTRSy5THEY5LA3wjDBQziroeo5siyYN7hbwqTKzKPVaSREcxqSJtOzqwkKCVsknwaCok+8inXMeKBVykHTyJDHEEVFnTTEqBC3OWXTMwVzRMC+LHydDPAqLLkRE9OTozw6ajeSmWUW9FzXyq/KvyiXhUJePxgvVudAIaAQ0At+CAHvNyxvfwvWllzAUEzFr/3LqkOoKsPaNRhKl8tPD+ATRtRy5JKKW0TqxqThkGKJYmlL1dPpK2KhcK9J3zESKd2loQN1lrR5zz7HJI5m4vGYIEcKVmcfiF048PDU2dR7XbvNif4MEFxt/VIx4Rs+hgo9umGoasKJ/Caj+0QhoBDQCrx4Bh7l+G0M9TbSK6PmqZFMV5Bm25ahZ35dEz9zoqNTSLCOFhxzIlPRLy11iR0Gxc+mzKEgow0q2PJM0WV4or2TBkUSvolIxPWW3x3UXwmJ4YjS0VV+RqW5aa/3JlT/GVZfLMHss0lTvglNT/RgkepwgTHd/G4yv/k3rHGgENAI/ZASY/54XgdLQz7CaItJiVIqMnwn4VADnKRlIJqDERDHsbzmi8E4kMpBzXnIXb5WcUgKojONFFAqGaBC9j07a+66yQnlLquX8jXHRgSveOJFR5M5Z8UCJHZm4/tEIaAQ0AhqBV4qA4mciepreS1csYYqgGJkaa9pqCW/Udc11fXD9fdx0pfKV5lYnrhHQCGgENAIvjAATvfSDZAMRja+atB5Oh/ijm//j+J03377yrjiuVsh54TT0AxoBjYBGQCPwKhEgpscv5brJ692YtLkK76DbKdBoU+2MDL/K7Oq0NQIaAY2ARuAFECBqN2iJMjf57z810oujrjbRvYdYHvc+1FNdXwBeHVQjoBHQCLx6BEqIvgw9ONmMo75Jy7csE/fScj4lLkKvPv86BxoBjYBGQCPwnAiw6l7iu0l0rnzjhVvYZYZLWneeM0odTCOgEdAIaASOCgJSf3/K85OWKiObPe1nwn73et2ao/LKdD40AhoBjcCLIeA46Cuqp+3PeR18ioklQYmO/2Lx69AaAY2ARkAj8IoRIB5nMudJuLTDLRM9r1nmrG7De43IiVyvONs6eY2ARkAjoBF4HgRIm8d1aXjJNFofgRdg4NV4cM9z/Mg/FgSa6BUe+lcjoBHQCBx9BEhj592ykOuLi91I3xpaxRK3Luc7emmDo/9KdQ41AhoBjcCzCLCFHjcPoVU26Uft+Ur2HF7BDBfAcYz5z8ahzzUCGgGNgEbgSCMgNz+hPPIW34ro1RKYxd3LtePNkX6VOnMaAY2ARuDbEeBxWDS88xIItjDcwsANwdW684rwpT3n26PRVzUCGgGNgEbgCCPAXM+jsLjoQZnAfQTlOS2yz8O0R7gIOmsaAY2ARkAj8BwIOLq9tNA456TKa2eb54BQB9EIaAQ0AhoBjYBGQCOgEdAIaAQ0AhoBjYBGQCOgEdAIaAQ0AhoBjYBGQCOgEdAIaAQ0AhoBjYBGQCOgEdAIaAQ0AhoBjYBGQCOgEdAIaAQ0AhoBjYBGQCOgEdAIaAQ0AhoBjYBGQCOgEdAIaAQ0AhoBjYBGQCOgEdAIaAQ0AhoBjYBGQCOgEdAIaAQ0AhoBjYBGQCOgEdAIaAQ0AhoBjYBGQCOgEdAIaAQ0AhoBjYBGQCOgEdAIaAQ0AhoBjYBGQCOgEdAIaAQ0AhoBjYBGQCOgEdAIaAQ0AhoBjYBGQCOgEdAIaAQ0AhoBjYBGQCOgEdAIaAQ0AhoBjYBGQCOgEdAIaAQ0AhoBjYBGQCOgEdAIaAQ0AhoBjYBGQCOgEdAIaAQ0AhoBjYBGQCOgEdAIaAQ0AhoBjYBGQCOgEdAIaAQ0AhoBjYBGQCOgEdAIaAS+GwSMYjKGEPJMXZRX6LR4t/jEcx+pCNUDHJmM1zCFUXJBhXne329mzInsqWRLTkoOMRUVXsX0zO3nzQjGYwphqmiKz6krKiGFswpRvF48wmwZhsybCvjUr4rVKYGK9tvy/zTCMkQxoErrqQSe86QYyzcecIrDd545LQnOJS25UHL4jaecC6ah0HYufSMzzp1ijPI9OdWd7lA4JzAfqEdsISqF8AhRQx8PHXuEqKbPN687AWooQIUQLnqdmFuToFYxq8pXPC++Tb72dE6eCqdPfrAIlFbUp+sx1x8ExglDdc8sBjOFsPiMLhrCsIRhGYKJ2HLuvgC6RC/crorJGhSTRayIaZguYdp4IIjxsc2XfBR7qVSdeOjAoJbDjcehRWRbyjXHJwtdLCkXqEgJFF6YxNKYXDGkSvT5fk0h3EK4ODqHWQ0hbPpQrhhGmTGZBcwPXjeEqbIiLGHYwrSIGpyXJrNBjxkY3iqWDTNtckjOP4ZisKhMKmGKg0Iw6XAYE9PCd/18JZWhTJOrh7BNqjn83iwTZRQlzlVKZsvAt8IvWhWcq5thCotTx+ucN4YPn8RCumRdtLBqmJYwTMN0G8JtCTe9aYyZECNEnCqCuWCUKCJ13STidWHM8jq9I6yKiAnVRNO0hTCo+gtRJUSrEDEhuukTE6JLiKgQEfp0qet8MUYhuyhMNwVrFsKLSdoywzZrNowZv3HMKcImTJPqIb0KQokhfKHXogN/7xFQVRmrjPzjS3gij5wweAUpsiQk1XvV1qjtoH5KTY8bjBNYPfS7fklGEHkxqxczUJQpyGjYcFX2Sihe0rdMQZXDyT4dYO5YRVL3FddJNpflU6WgyBTR00VDEjyCoRobJ/lCZcVHTGG4hLCLaak8uYhZsIhYUMmyitOoBMTwxLYMBT7JwuobpZN4KGlJBZSxYo45TZmy+mF2lLK1mDDdpi8myhctsUF/Spwi0xq2zTnglBXRS+KnbCC/yXrGgYjTLeRU4XbZEntZIzAyF1GvRfxrWMz1WGATedPFRO8ykf5tAgVj4Jj5pXBqMi16CRI7Kq4kXRLFlUKEhWgUoqnkuxkp+82rF4anh/qnB/qnB4YSg8NTw6OTo6OTY6OTI8Px4f7pwf7pweGpodGp4aE4faZGhuIj/fGB1+Ovv3/lougRokWIEHUIyrH8LnzjKLZsw0Z5w22MMi4sEz+UO8tyUaVyXro+0AjI6m1IXU/WddLk6Jg5VDUCpiNSa+RdqlryKUKTqhqHYw58QSJgXrOYv9SzrM9jk2QKw1SZD2R3gl8k54P531HPmc9Q5GAD4f4HB1SxF2uBc90pkXOFmxMl6xaGG5tbERXWfGWuvhltMYFvO1IcT0mZSB4kxSzW6FVOOFYKS70QLhbmxyDFlmSf0kQ5SkpM5kb9SHifQhLvYbqGcBvCLhGfpuoB8LWSzCuxx8xScuMFDk3TZQq3jYkSmpgNRJVK5DLRcsEII7pFHRVDkA6NOq6wLNQqLIN1WnnPFEjhFvI5lrfMLTtM9Cts22UYpsnqCuHCgr34qvmIEXauUlQYoQuDI+O6hKgVokMMTY11LEY6FiORxUj3QldsrjM6f/zYQlNLus2XrPNuB73bAX865E/V+VKNvlS9P+3zp2t96YAvHfSnA4FUMJisDyTrfemgLx0I7NTVrgZaNlranxzrWuoYejAg+qhzUIHFpPpvCVFGH6PMbdtClOOXbdnlhB33SAi9F3gbOuj3HQGqyYaJ7Zw0I6z6TDJc/7lLjbVeqlhSn8ZG6LQCh/QkWrL9/Id4gBq7RZ1tjA2jsqlalwtUx4hhHZYvVfsxJFOcw/JEf1QcQ9ikymHnuphvLgA9pg6fft8cX0lxuAuvdEiZQalvfnsUT0f4zTMFIiVloSXHQKuDpDa6q4Kwes90zshwgSmsacr3probxJmkA8qwqpyk/jE0EjN80k0guxSCDBOLMBlKAccYqGQInG8W67deYQJlZrYp2SoyUzhG6mqybleRUdtLt7zKwM32bueil6i2Vog6IRpIoW6hg3rSsmuFqBDCRCRtEmVIgXj2De1FChhWkRVKJaDTI6R7KIFiGxaSbZP44Ms/Dq6FBQj+mHlRkXVXp8sD24FgqjG82nJ8ubNzoSuy0B1Z6OlY6G1f7O5YbutYOh5ZiEYWYpHFSGQhEp3vic73RBaj7Usdx1bbm9dbG7bqa9Me60BUpStis13vfPUOWoHqhQiQUahMkP1JajtYQNPNigHBjjrNb8Vf3/ghI0B1X3aOWb8juncasVIgGSOnDVCjYLGABgg6lTQq2zNfehFoiU6epk6XIcoNUYYKHMfHcgfrOXVXOT+YiKKpohEG7/HQgZss+xgGLyjWUs9wL8bC3j1qjAQCX1PmEAqJiMiiofXYQNJ0hstYFr5IYVWcaEZGxFHikq6IRolSfqV3w5TlNoXL4o668yJUuRl8JjPU9amzX1TI6X1S/wgN32y1oJgJIS46hSl9hItLpbIsTNpt4rtAc9N/5I+zijEJ4SNe7hRopmArtmPLjpIV+wTd6lEW7W512lPySL/ouz/SMR/rXjnRMdsRW4yefnRqdOK86BXCjy/bouEcHLtA9qPaapFigz0FWQ1YrJbASSBhYEaC75BwNE3TslGoVgjRLt6YeCOY8jlEb4Hl3w/0LPW+NnFuJD724xs//hpuPoCZGbg3TZ8EJCbgziTcnoH4PUhMw2QCJuIQT8D0PZiegDtfwGcfXf7gws3x1+ZO1e7WuvNl3j1vaKuucbX11KNz4hz2IdD670UxJms2DdsK6tvZ1AoNtHXpP41ACQKSUOiKOpZtkamG7mBDUHdLyIk4j4fLmOgxMIeTbFgSR0miv+uwlOixlRk0gFZGTbPECov2WWpvxIcUISfsfBfz4pSHh/9UFiklepLbOXEfjmcSd7P84jFR6kg4xMahkSNcZO5gWxYWuBjj7yrhU/e+gZZJ6pgaMlW0S2YIKVJNYdOgK6XGOFMwziDzON5j6SHzxOk4LweHGUhHxVeIf0VRgdFwVByatXo6NilplyWRf6ogz3lCA5YkLX1CdIofX3vv/NQbfVPDw1Ojw1Njg/GxwanzI5Ovj0yOD8UHBxN9g4mBwcQQfuLDg4nhgcTwIFq0h0biA8OTA0OTIz2PT1ekaux8ec2ON7gXqNyprN3zN2wde22yT3SSCsy+LjXULcDSup3su9BKj6Xl0jtVh7CzDZRFLA1ZNaAXT0MmlrDRqaZVvHf57a6lttpMtQ22AGGBq2ar9n+D//R38Pe/gl9/BV9tQxJyAAXA//Sdg0wOMuo0D5ArQJ7uFTKwtwor92HmK7jxa/jVwP2B1oVj9VtNnr1aUTAqM9Vds91vTb39zufvolxsotL5yIhPphqnl2Zphf45q+MPJJijt3B5ZROXtb7IEFTdXTTcI3mlpHUUiQIjwRtoXaGHix3/F8CTGxmpUiRHDFO4bNQfOVpMgZR0dLqwUUsjjwoah+QwrPfyYCZxMCXO7Kz4U+aHWzblWnE9tmzS4qR0UKMXVCBVMAWUIUQ5aVZ2sRsgOfL5SqwIhnKueieoSBY1MucdOQapIrdTRlXJWE21DdJcn+pdYbbpaQaP8WPd1imrzDZzmerS0EU5XMlSRnEiFq+Yj+crLIVSkJsiLAYnhptSzcFk2J8KBFO+YMpfmw550w21qSZ/sj6c9IVTNYGUz58O+FMhXzrkS/v9aV8oGazbCjUkQ42pcGgzFNgL2lm3d7e293HszPSpjuWYb62pfMfXuHu8b+acGBDiFHmz9ApxnIxCwkY7O1GhfI9YhRFmEn5chzGv1BvAUU4uKpsTqXZT0d0UW4v4+MbF2MNo5W6tAFsU7OrtqthK+9/AX3wCn87AozTsFZDUMwAZJHr+AJJ/jsi/5Er2AA52YH8bdpOwtQrLMxC/Dtffufl+z6OT/l2P60B4d7x1qfqmzYbIQtvY/WExKMRrQhzjchmsB3F9eIFXooN+7xFwSKRIbtwQlTLILaCE6JmDJLlLhlRtl5oGEoqyirJO5AR+PjgpNmm6QSrBgWIab8THHW4hZkT2Ii3GGRzE9spcRZ4HZO3mMnCeiD+VywelJMsrH3Tip7xiZNS8qQiKlBUXcrw0LIbKsYTw+QqpQqk4lTjhEnKxJP3IdmuSxfkZL2y2WVeT3baKvqtJv/MJESSTbhPpfc53Ixmy2UWEL/IV9hhppKeq2HTkFId9WKXNo1T5ZaAd2aGK9Ht+qcQkoJpEdLFL5IUAwyyY5VmrdsfTtHq8bfFE+0JvZKG7e769Z/5410JHFM3Z3Z1k0Y4udMbmoz1zXT2Pu3pmY7H5rs65zuhCdOB+/y/hZ7+BT/4B/uW1e0OBZEPFTnX9Zjiy2NZ3v3dsun8o0f/2zR+h3cPxY2FXU1l70SGT7FFFUaaqsZTx/FaEMGy3HMlwuQjzY8i25+6PNC63+9Kh0H6wYS3Q+yj67q2Lv4Ert2ByBh4uwtwWrGchB3nATwGySPzE+3SlgKe5A8gi+wNk9lHlz0N2AzbuwNSv4b8NJc52L7YfX26t26j37FT5Dmp8T7yRlY4z98+8d/0iGnN8asSCa8XveQ/69g8RAfbblt1YpnUeDUWlhm25po1+cdKIrKwLSELkSYxGQQv7s9jbRUs6qYE4Pkit5PkxpRTYLZmJlMZmmf8sCx3xkKuZH12KjBRZI/XgMd/GXKA7nVmGLMVcjKoqGW1N1vWpV4BSTTZmepwjoW8cGMV+MA5VU0FlACos2tNRDBEJkiGJ03/+0lIa+Dz3RWS5cLSVHf+wJDYJEZxo00KGbPa5PkFaalfJlW66EhPitBADYmRyvHf2dGQphiN+C7Gu+a6u+Wh0Phad7+6a7+ma747MRyML0Y6FSOdiNDIf7ZqPxhYjY3eHRTtN2LGFxfLasG10X5GYsGbgRtuRHNd8kcKypMZ5A/hUozi5GLULwgDTzroD6dr/BP/rp/BFHO4n4F4CTdh3puGre2jFnorDTALuT8O9KZhKQHwaEjNwf4ZOJ2EyDvEH8GAFnqzC+jzMX4err02faEqHvdse757Hn/aG0j5/qqZhq65tIXp+8m0sY42wynAAGt88ls+2zQqstnSC/jxUh4vCVqor9F5UHURYLOrUeWn4Nyb6p/ubN5qrU17vXiC4Xt+y2nZ8sbPvweC/wC/uwkQSUqi/53P839Hoc1k032QA9iFHUgDyUMhAbhcyKdjbgNQyrDyGexPw1Rfw2bs334vNdYe2wv59X9Wux7sdbF3tGJweFv0ChyW4evS+4GvRwb//CGD3Vam71FUnypIGDLJWy6uozWEDQPbB+l3GjZ9mrpjI97ZqHayEKrsCPf68OEqRw/oxPsTEjZ1SJERLmG6TeIdDyF41CwL1jY+YwnQbVjlxisuy3CQ70EGNrT1Mzwb7KqCDIs2D4TiltKCkKUqnF4Ptmi1YhssWFRZaeylfpnC7sPVLcJ63sFg85fQpmZS4nmZBOeOyVaSbd4p3v/pwID4+lBgZmh45d3dgKD46Nn1hJD7ePzk8PDM+Mj0+MDXUl+g/+eB0x0qsMXWsMump2qupTQeDyVA4GQglA/500J8Khbbqw1t1oXQwuO0P7AaDu2Hvuq9222fvm02phje/fhtNHNU0YcIsI1dSYaHlDCdnuRBAnMdTYVa80HtVkOAEMcMsQ+/GOjF662zTWsi776ve9wa3An2zZ7+AL+7Bg01I7sN+prBL5o4cGzdyWdJ/AfKFTEGZPTJEiHlUkpV2DLAKi5/Cr0bvnut92BuZi0Vmo+3LbQ1bIc92lTtbWbfVfOHr16UTSw31k8r5XZMWQU79OB2LiB7LqIQcHdFMLLb7UJHoJvqhYk3xCnFCjE6ORBZ7GpPHg8m62n1fWaG8Ou3pftzz7q2LN+DmI3i4AgubsLoP+3sHe1AosIJfADiAgioiXstAfheye0T9iAAUdmF7FdbuwuTP4ZeDU8OnHp9qXT7u3QmVJasbk43R5ei5B0MDk+PD02OD8SEFuP7VCDACPM5UrM5SH3ahyRL/eLzKZrYjVR7Nm6Q0E0mRyiudRugB1qcduuRUnvdbGpMU1WE6Kmuo6MpccfPCHH6bu6RkIJQNBnZHUDVlq6xD2bZps0cp6ftKjyslepVh8rnGgWj8k9KFh2Errf+fvfd+buvK1gUPAxhB5MQoiiTArMCcFC1bku1233t/mf9rQtWbqldvfnhT9aZmqvrd0G6HDm5bEkWKymIAmEQxghGJIEik9e631j4gHbpN6lpu33lXBQGHBwfA2Wuv/a28tlYCY0B5e/MMSAw/WzxWqHisNuIX8gzIDmKl0cB+GK825B+p3ax3hStNYZs5YjNFrLa40xZzWHatrpjHGnJaQw5r2OpKOKwHJnPCVH5gKt8z1YWrW9abuua7BmeGhhHtHOiZ7e+ZHRyeHhmZGhn09/XOdPX4e3r9AyPz19tfX3DsO8sPje5w1eD0VRQBsXDNA8jD788is7BIyy8FR/CcABMVYXRqneKVGQPGYTlMkNtPbjYuep2RSsuB2RY2nVupvjlz/TE9D1Jon1JpiV8SZZIZhnuELoHtDIlp9n6kBOMFMfn9FB3t0OoKLIPFaXrtp6Un9OL20w86VtvLYuWGZLEz6vGuNY/4h2D9nOMgrWC9julSESe2qliIPE6APzvZlHov/kOMOU/LK+KESwv7ylq1O2N3bk6/1/a6zRIzFacMpoMKd8jTsNHY7e/5gj57Rc93KAj/TTZLSSWnUgTNnlV+9t9DmqXTuTOEqxOUClFsnTZf05Kfpu/Tva7X3Z5olTFWZkyUF++V2+IeW8ThjLpOMRP/ccn/XBQ4ya7AKeF2ZmrdOymRPIY5yXQpRGJafoFWVJBXDPOXq1cUIufgUrD+jMTkG5BSHQCKctRgnUEiFaKAnlFQjJASdpJKCra4JuVZeokY9QRtEx9Y2D+bK2Ks0pOvK3lx1mhaDbtHavkg57bOVTxW8/lK/ioM+rjYJz8/Ly+voABUODPQq2gEEx0D1OBpYmcTK5uV2t0HH7v3ajQqMKSKbYf2+p36pnVf44a3Ya3Jt9bcut7WvNLatt7mW25s3fTWr9XUr9Z511ouvem+Ojn8Kf3Tn+mrh/RwnMYe0sOv6f439GCcxidofJS+uU9fP6AH92n0AY3/lr5oXWmzRK0FqSLPdo12WU9INwHhUdefX5yfV8z2EKsAEKNSIXrmCS4sYklRyGLsnKb1aH2LQ3Wb56z7ZmOquHLPfe3lrW/o8TQtrdFOiCIJxDP1lJXUIQM90FHc3OwAyVKG4TIX7cxmKQsXyWEGWBqmxBRN/Y4+bV9uq4xXFcfKjQeWykh1y2LbB+N3oN27mJFycA/oztWL6W491vL1Cg9MmKwUjF9XbiAcS5DWCauoQdMua0Nzvd5gvXPPXnFQYUgWW+L2tqW2D57dekj3FyiwSasxCiUomqBYmpJqmCyu2ErhkC078dMpaPVpvoTd+ESU2aT1P9EfhqYGLr/p9K02Nm34asP1ZQel+akzTsp/XP4/AQVYWWFQFohWjCsl8KKyCRpBfWWHMRQ80abhsCk0FCtGzynMsgrk686i8+nrRXxD8PUr5RGVf3jIPzT3KObQUxWnFUvnkDYYznhIUrZP92K3s+/yEgBl+MUN36KvOeRtCjZ513wdG53exebW5fbm5Va4rdeam9Z9Tes+35qvebW5ZaWldaXN96a1LXgB2Br01a/7+vwjSNozw7AHzcTDy3fJogeFmqf/p2v08qG8AvZ9izcIJTnl6ItydfqmNeQuSpfbI9ZLc+3f0B/nyD9D/imamaHAJE3OwWE9swDP9bSfpqdpZpJmZ2hxkVaWaXWTNndoe5f2tmk3SMFNCoZoJ0w727SxzX/u4HjXT7P/SP/Ysd5hObKUp4y12+cuLl0cnOxByoqdTRkMl8eJslI2pPQTZxpvIWL1eYWFReCZQhZmVsDiB08+6ly/WBEtLUtB425Ya+mbHf4dfT5FL7doI0EJ6O+ZLNCOHdophC6zSQ5tImyZSbGan84gVZEyGbYAcAAVOUGZEIXe0OIo3bvx5Hr75kVryF2esJqPHJ5wVcfrC6g+rWesl9WgdAy9fYwk2aIwVdoL6LkKcjHbYZJyCiNAvPblLMbMXMzl1W6/fK95udmccBhS5RVRa1W4umH3fPf8xT/Qpy9pYp5mdmgzSQekBkg8skO4cxC1ZWElMgzyDOIgDUmXSdLBNm2s0Oslml9EVv7MH+nLxu26ksyZ2PD0E/gfV/77pIAADZhCaZR4xX+DXosoVYuVrOrWsOZbf0LhrWU+ruDrc+5yKEC6M/+M/CaOGzaMAfKC+6I35b4pj7tiITjZon346KPrL28OTY8M+If6AnBN9M729Qf6Bv39V2YGh1/1XwkM9Qf6Ls5fbl++1LDaXhtqMh9aDQlD+UG5KWqyhWyV0crKcKUn7HFGXHbk8KEM3RZ1OODLdrnCbne0yrxrsx04yw4r8qnIFnHemHoPWG/hnDYlAjH9BtTRMAHPwgw5e4qT+RDklC+BMC1HfWo7JQAAIABJREFUpvnVmRuOaI3hsMwTc/5X+s+LFDikeIqSKUqlGNTYdZGF4prNZil9mEkeUfaQYY8jeyqhLwt/QCoj7gJAB9K3kdqRATLuUfgVvbrz6IOmtQZjqLwiYbUmHNVRz6WFNshON0doyxjqVVJVAcIVZxzwCcGGWeU4P3+FkV0oPVrHm3Z32GVKWMyHNnfE0/LGd+f5e/foKz8FNmj7ABBPSYBcOi24Ds+8jD3DmJhi3T6LITFdMEAxBih7RPEt2pikl7+jz/tmhxqDraZdW9FRsSlubl3uvPn4FjqOVfPMlootKeEgZm8uSpLKA5W6JRlIrO5zhB/JCMVaMYgi5iZ/B5i4jEfXq12e660PNteE6yuiFu0oz3RQcWm549bL6//w5NcP6cEKvYlS5AhjzPJYjgg6PgM98bBS6Qzc+rrtAr89kyGbyR6lcWGW5ijQsdZS8B8a/VnW4P//r2Vg1R2S0E5ZdyvgVV3HbfYakYZ8ea7n/HpT80Zr01pz/Zq3aaPZ+6ahfa25ccU35L+ClDUTmDofGSLQ+thtb+AIVQ6fT0XMHLKzspfLApJv1RDx1QoLEWIF9AxMDlbuVLtClQ7GaBuah9hseKB/iD3s9MSrHRG3OWSzHTiM+8aKZEVFxFSzVdu60dbxpr13qbvf33s1MDLwvG/o1eAQWkoN9gYGemcHuCpniEt4hoYCg4OBgb7AgHfJVxEvL0uX2HadvXODatTcbSqPdT1W7M42XgzkhBxjDxlwlOlQAICo0u6OfezerjVky0oShvbV5kf0eAfG/n6ajljTo8NkmpVY4F0qeaRClgTklwglXhntGdlZxdWT/PgqXJikTISiAZr55PHH3Yvd3u1263alMW61HTjPbZ0bmRnGeC3wSzDPFHEx0dnFGo+X+ztwVSozBcIootq7Ibw/eHHHu+Cr3POYYkZLwuSOuL0b3sHA0J/p6x3ahTKLtBUGQ4Rgxc0hsI7nTAqAp48vw0CZyqQPCVHNZJIO9ikSpI1pmn5AozdmbrrDrpJsccWR0RVz1W+e6wpcRvWpykzP50pgFagX5vzOlOFPXdrlI0ELqcAswiAOCpHazh8v5/RHD9bU7Scfdry5VBG3FZOxPGpxhNyObUfnWudvkZkzE6IwZkvPuUzzWNQM8pSyQJMBQq5LtmbO2TNNcw0rzXn0763XzV9fN7JGmFv0BaP+OH45cY36Mj6jlpeuT/Fb37pUYE++5+RdnLjorfj8+M5Od3Tyt/VP6PcgwTonZ2XkUqTPelCpu6rFB13LyrtPe//J+1f9I9deXrm0eNF0YC7MGipiJmfUhUzhA5cjXGGNlxdmDK6w5/aTm8j8K0YhijhbuIcwkjTegkL62NiBof4QecSpcIAEjn7WaC0bLYXZouJkuSXmPLfZ4Ftrbl7zNsNzjS4iTSutvrWOptU233pb83qzb62paa3h0puL771871P63Zf05Z/pq/v0zRiNPqKxRzQ2RmOj9PA+jd6j0fv08AH+hF97lB48oHv36cFv6dMLb9rtOxZj1uTerbk98RGSl8tliAUMfFJwg5tmmanz5Mkp1IfHU8l/yBmdVMKQ/PE8uKfMcED1LAza99zGVLln133z+e0JerZGqwcUS1EyF4MEmGdESRc/hg7ox25rHQ3lDEME+7FZ/4W/g2IUm6LJP9PX/50+7Z4drt30Wg5chUdF7oj76qsRdNm1CPnzChDeZi+1zpT6q4xdjfPbL8eDVhfnBDuC/KwYWDTtvKZ1aUOBgfbVlqqdSnPCUr5f4QlV9s31P6Vnq7QWpK0QRTA8AP1x4ZEkJsKsSSNJEW8ADyVki7T0LPw6qhA1SYlN2nhKT65Mj9Svn3NG7GWJ0oJ0ge3Q2r7ceufxB/Dk2PQ4re6pUkHYXBRKhqE8ntI5mZ2baDChGq0VQsdH4zalRUma7CWtZ3awcb2ldvO8M1ZZRKXF8bKWlY73n955ROOLtLBNu/t0mITnSWE5ZBgcUii7SuORSUN0YRazbNxAlBH5abFhpVkjdaf6pPwSXsXzK+lbOu5yTzpEQ1QDOglxMVso1mG6SQoUBnGC9Lys5Co4mNUsCJmZCSWTWt6RQnAci9uN1xvna0vCHVywcFajLkfWLWtdfCy3c3IV/+Tk1H/i5Jhyo2U9ul27Mnmt8/XlptUW75rXuwbX89ke8Ep7+eFrXG/hh69u65w76rBHze6Q3XVgzz/KMyXMF95cGJocGZwaGZwZGgn0dq54jQel5fGyzjcdKM8zQ6Nnhf44SMW1emejipBWchuE5GqFwBzm00Lxaq1htcGQLrZFPf+J/q/79GiW5udpZh71KbMBpF3P+5FnjedZmuWTs/O0uEKrG7QRpOAWbbHzemeXduXB3uqdbfisd3ZoN/fYoq0gBRdo/iE9eG/qpjPsNsetHUsXELG0M1co8SNsqnoz4DbFFNFB/HggSg5ALErZunqLP6OwXhiykH/Cq428uuqOVhUlypzhyu75gYf0OEhbR5SgNLwZ6Uw2m81mKJ1ExU2SndJHStkV3VDcNEqzZ8QHsksMUyGkKMsRim3Szhqtv6LJj5980rHUWR6tKEmVuCOO3tlLyo5BIi1wDfMBn7RMCcBMwjgs44E1KtSsB1v4On3xyOzyKc7pgSkDn2E5x8xr4bb65OEnnYud1ZEa04HJsePsnev/Df3TV/TNFE3FaIfoCKmW8FkpJZiFF4AP+JjhF4zyCEJMKflZBZKUStJhiEJLtPSIHn3w9Hbbcptxv8yQybcdGM9v1/bM9WsDHN2pVeJcSueAFAIrGHdeHjKkEEHPQwsg7mwpZGCi8PyjSSdYQZDIwJ4cybuvw/dfmRq2xau0dLH50OLctZ8L1vbMd31JX8zQ9D7t68o9z1wGEy3zyQk5mGv2YqXYj5fKZLJzNO9b8eVnczNyttX3Lq/m1aG2I+BQtwFJdCxLpT2FFPtJNoWVtddadqVV66poFXuN6074kXOlgCcPJKeihosDJdHiZGZFLulCPNFV7Jd0KRWG7+tvAPSyco5V49zawAEyka9Mjbi23eYDe1nCbNm3WKNWe5QdF4DpUz1sUTu7O6zWmN0S81ijlfhgzGqJm11RZ0OwvoUray77L/+efv+IHo3hMTZKX/8T/X/1u7WmhMmzW3ll8qrmQIQW+l6Bai/OTPMWDAew4IdUdItE1jFDJHF+vubROlc6Kw7NrnBN36uR17QC9MpyRA5rAWv/hDbEblw+qau1p37lRiRpSsVpf4u2vqFvWjZaTXGLJ1TZ6+9FZkU5K7l5BYX53CWcMZvTUNXa1tV7femzsiX4xpVRDHCCHTgrw1d0K5RUfSvr9Yv9zmhlcbrMGfWMvLrxmJ5GaI8VWLHs4btN4pFMpaKI5olZzzCeIwW7c5g8QiC8yxkq4gzJssxgUkYpPIlMlc8uLl90RpxFySJX2Hn92RXEJ5w86mIZuMyz9JlHuVFRHnqu8bQB3ACLAvR4hcILMSecrItAbpekdpLBrAvcV/ACv6j1zve6Qk7Lobk6XN221X55vu/2xN2XNBGk1xHaO6IjUdVTaaTZiMP+KJnU3fSUyhxBzCmgFyMgBfWXaZGlbJjCUzTzOX3RPd9Vv11rC1dYYhXuSFXtWsPlxe67Tz+EeLMrzxVEnDRUBXDnIB8VdTBJciuUqcLjEmeOLvv4w3mwfbnsxAx51jN9pXa7xR1yWw8riqjQnKjoWGr5+OmHT+nZEq1s0OYuhWIUP+JMTMh0HmYKvrsUi7PsUfoAFVdZmqc533JT4S9Qo0ddCPgiv0gzFMmhZsAWXOdPpE9IuVcrbLrO+a661QbvemPLurdpqcH3xte81ta01tLIaqlvzcv5Em0tK23Nqy3Naz625Zt8a6gAPL/ha9hobl5taV1p5jNNTetNSKhYb21aa29ZaWtZbW7e8jZunPeuN7Uttg/5h7VOnmDMYs6sUIoaz6lakO9MEuY4SS8xlTgP1lGeVql1Lrdak0ZnyHVuvfHyUs9AADsYDJ76MTQzxJshDA76+/oD/X3+q/0z10amh4Zn+rv8fe9N3n1I434K+GlhgZbWaXWXNrehCO+EaGeKXvUH+qsi1eX7Fe2vO9AnFjAlNhhn3x9r9mchj8gwXk2KuPriyS8oFPcuENSp9b7s8YQ91pj9wsJFP/kPMvspOmR2B9wDslRcS0JbuWKUU0O84CEndmQz6Qyljig5SwtDgauuUJXp0FS3XX3n8U04cEw8dMY0tdSBbSgBRckl9+RRSdmKaYBmOspxnc4J3V8pxTx4VShQxPl/zdrVqWvWXVtZutwd9Vz1X1mhJYVfwDEkZCA2hygrW/QK1FF0mYamrzt2RAXWgS/DpTpHUH8BIBKwzVAmQYdhir+mlUc0fmPqhinkNGSN7mhl52IHclR8jMI2HiWYlNGbRZsBnny935zwL95Fm2gDL3Blz8hbarpRRF2cX6wqzqR9seh5Nvi1u+YuVYVd9qixIlpmiburtxt753o/Q8rKix3aytARRqwHXcVtDdWdJUCGUpyxjgvEqc8Z6wjb8qlMPLsfpsgGBRdp8QE96Ar01IbrK/YtpqTFum+r26zr9vegZ04Hq5KlMtfM0szsYsZi3k9MKs8eRLzqtpSbX4h71VEOYkIUfDcE+a2JW22vfZaEsSCpORI2z5bHG2ztnR34gj57So8DNBekrQTFM+kUHDiZTArRCP4nU5mhbCo9S3PN661a9pfnutEtVOaMfF4zTrDR1We3BxavDkwNjfivD/iv9/mv9s0Mt652lqUsWja/IlHuiNo80Up3tMoWc5siNgnEcRd/lyPi5oeD1Vu7HS2TbPaojTcBcHKhIJRW677FgofdGnPbI5XukMcddtli1oq4sTRRZjmyucLu4cAVzaXlcc2IKCM5BUXm8iwY9hbXCvvA3y1H4Cdpz871Juc2qiuOihvW6/8r/d9f0u/v04OH9PD0jzEam6BHEzT+kO49oPsPaGKMnjxGnvXDb2j0Cb3cozB7BoSh0oQ1k8lwMGyd1v+FPj2/6jUmLXXBemQslPG9SQomvBJ6f7AzjVtgndVf9Tk+g70kGBsL8grQi9WiaSNa40qTOWZp2Wp5RGO7tJ2gRCqTRJ5FCukK7MEEeGVlqetIoJbHKV+ynLAN2ACabtHun+n+xbkua8JmPCjrWPbBgWPl5YvEG90KgZAz5GnFBVqxgZuyMQYqMBBfvlqL6MdjUBjB2K97P0RkIDUF1V1F/CvN2qXVLtO+uSCZ3xCsf0wTe8ib3IlSLEnJdCYtAdgUV5GmuG8KC7xkmo7YpZNkR64eyWRoT6HyHmWZcjZLqWQWYV74uFNA0CCtP6aJS4sDjkSdFi80H1hbVzuGXox88vhXmHQbZ46L1GI2LeJOc2q8CvuA3AXYZgRGD1c26/bNMdCjhA1l1mhRwUaA9KUr5J+4pI1MD3a/7mjYqLPEXWUHNmfY07HW+f6T2xM0sU3BFDLmM6k0WzHpVDYNh3Y6Cx7g/HRW4TmYCSbGA4JNiQbmhFQKmeobtPUVjQ5P3biwdLl2vc4atVoOrO6Qx7vp657rvjN2B3FaOw+ZuVtVckPF0YH+2GLD2JQx820ZINoQ5/Bwv+b8ItiFtZrWrV0KXGjcaXDvOC371qJUWUXUcmGl7drL4buPPr5PD+cosEXBMEX3odOIROOpkiGl0wEKNK01a6RnIp9p6b3Ti0Wjh+ZSwCjv1XqnB+t2mxzhSmvE4Qo7XSGHLWS3RRy2iKPiwKKl88sOy1tXfAPT/cOvbgxN3bwUGOhexJZdA/6BwZnhgZmRPv9wX2Co3z/Ae3QNDc4MDc30D/r7+9DmVOmwA4G+vtne3tm+vsDAwMzw0PSVK1MjI1PD/VOD3a/7vMFW526lMW5uW2pXuuox9MjkCoq9U9ocG/KCfuonJWGrWrs99lH1XrVz39o7d/kP9Pks+Xdoe4e2t0/92KXdMIXDAIuNbVrfU39GQjizGaLdJBAAqhHDZTKdUdlfacqsU/BP9PXlhX7LgccVqr777H3otmVSUYkOKbzqdbX1jHQ6sS7UJ9k9D7vKUFAEbjGiR3lfYMAedbi2Xbef3H5JryLs0xSXBTtqGcnYSj/O01B67ilhHqPP+T24F1Vyl0KjNH5u+3xhymCNWftn+7GTnKxarnUqkltmY10cuzhUglqV4Ry7L8S/LxOstHjuna70XviBle+ukH0m3VrHamfZfqk74voN/eY+PRilsUma3KcIcuxEudNJIKKNURuxuywr9d9WfKHmSgYfcI9TESXACwIhkJlO09EmBcfoycDLa+6Dc1qquOLIYovZqsKuntmLcF5Jfq2gM25b+mjqihBeJZoGxV5q70AhGbKSEDBU8/MQtyxE82d2gwtGFnJQWny2Hkz6pfluT6S6LF5eul/uDtd1zw2O0cNNCsboAH4MVFTpjhqiVPqIRR0DIYw8UEioJNPKAu1Y/EUpsUK787Q6T0sPaWxwcbByr6psv6L8yGiNmpt2Gnqn+xCRqlWjhjfipEzLzSOP/ltcn3tLHzmK7IqKlOAr5C+UBv2t2gcvP2hZbjHHrUWpYnOiwhq2OMNVjcHWoanBP9CXr2hyC2sTZbNpSblSmJ+eohdN603oj/+L+ycLwMByu0m78nLYmXBpGa0iUVEdqT6/Wte22ox+dRutzevNzRutvmDL5bmuz+jTUdT4PX1AT76m0T/Sn+/T/Yc0+hAlf48eIGtidBRrYHQU6ur4OI2O4XhslMYf0dg4ju/fxwMnx3DB+DgKCB+O0aNP6fP/g/5PV6SqNF3eGmzRqnNzycTDFKoKip+BmIpheNnr+4gWAOZ82vDUdXfMXR3yfPTkAz9Nxigk0y1uytM8YzEre5bN20wuX4uIUohiKZCDWch6MXs2M9k0pbdpe5Kmbz/9yLlXY4s4R2b6YM4jz1Kic5hX9tp/n+V/nGwC9LnruGQUu33KslJAX6PdffpRZdhj3C/vWO78kv6wRpu4YdFuZEnz6JJ8DiPV446nhXnIOLhBuVqHUYJR8DUtdwV6TPvmsnR5Q7ABG0BbJe8ImTJFohPwuGV1YyB8xCAoyKArgLABuNxXv4bd2jhbnIvtQUeGRgw52qDdmL7lirnLD4wdwYs9/oH+wOCdR7dn6GWItpFZj6aImWwmlRssu3QxenkosJOp51MgkoppMAOwKIBRpIu4Q0oEaXuMng7OXGkM+qo3axwxhyFd6Io6bj6/jm2vK9nDWST92YRPT8778XzKcsd7OeDDAezk/Hz0JsrTDIa8Iu4+Dc0el0k/OfAV95Pp1Hqn+1u3Wu1hZ+FhmTtWe2P6vXt0f5pmV2k9QnsJisFBDyU+NzKuIoAc07V6lgWqrZhQJAWJzoFs1CllMrRLu1/Tn4deDnWuXqzaqjZFjLaExbNXeXHl0p3xO7Bmahi1pN8nbk4KynJzzfyr5h3j0IcMGqiewroQV0m1eXnYQbec8zu7tO5Aly/ord6srIx7Ko6sxri5KlTdudRx99nd+3R/luY3aTtC4RhFj7iwIJM9CtCUd9On0Uni55bR3/QABr7svujVehZ67SFrGRmMiaKW5aZbT248pkdc+BcI0Mws+f0UmEfJ39IGbWzS5hZtb0F73dyhrV1C+gRnSmzv0eYeIhioCdyhvR0K7dIeZ1aE9mgvRDt7aHS3tcXv7hJO7iLXIrjFtYJP6WnD66biZElBMq9l2atVg+E4uM5TpVupatreKfVkWfAywT7IABPOzK1AxnH/7LAlbqoJeiZoPEph5GCotXxaHOPELPQNUQ5shQE5QJClnhXfbzINjTFLqXQmkUW1zmGUQk9ooiHY4Iw6rs4MAOgrjknE/vSzM5zO+idWBdyaBVoh+0BgCxs03kjHBP2ufre2IK2VH5RfnO+ao0UVh2V8l1Utq5fdmUqHOy115LoT4iGNUSczROu09QV92fGm3Rw12sLm/sU+VBWZwQoCX+oI6jsAQGxA9tGokiic0lXg40+dwD5DIbAeMTuJ/gmblSAZ4Vdjf1+1XVuULiuKVNjiHlPI0rh7vn/q8j36ahvhWXABp5OLZNKZQmaVhV0aOMZejlxIVqYeeTjH4hBynz3/WUrv0+EuhZfRQ/HpKD0YeXbdHqsqSJa6Q672teZh/xBc2JKDhCwUQD5Lelgnx50hmB10W0UnliIZyGEoLMvD5t1qrtF8Ad8iwfkCQz53kTPzFks+7fqL666oy5AsdoTc3pWWAf/wZ/TlS3oVpM0DrAU1kEQqjSzUnDBjM49HKXoNe3H4b4Qy4MXKJOH3yxxSYpe2VujNLM1+Td90LXW79tzGuMl8aKkKebyrTX3zQ+gIfy6XsiExKgycbRdMMg5zzpxjQxXjwtAKDOidIR/gsYI4Bm4EZGbxeR6xgVvPrncstVRuu40xkzFe4Ym6m4O+If/IZ/T5JL3cpo0kJTDv6VSAAjUrXnTG/2X9kxVgQbxl+OU1936lIVnoiJo7lr2/o398Rc+iFOEBMLOKisJ2ZhoJwOkkHaXgYEwrbxvPJi6F/00SbFmGy6ePVRgseA5enVgDALNkguJh2ntIDxq2zxdnDZaYcXC+V3NhqSrfYm6qZKG+pWfi1JMgv6JnpwnQw4VZAYzrnRu0JSxNwfMzNMPeSUYmWc+nfGba6bV3OSKrBDWQU3a/ASwgBMRrIs2hLcaKTHqe/E0rTc6YY3iqX2n00gJLeaBPPVJ1oRj3JyEAi4WBHtkLcAEITkDjhQV9aaHDfGgsIEPd+vln9CpOh4ksWqMIARR88ZJXEAd+Oss/0QW5TXgGIU0o+CGKTNKru49vn9+pM+1XVO/VDk1fgQNH8E2kmwq5KaA38JtcSsbd4r7NP99J2gU06J4vwD03fwAOiErUoI1MXWlZa21aba3dajDv2yriFTUhd2+ge4KebSIRRbT6Ex75HKBDW4dBxgPhUZ14i50eAELxXotjG9otnP6EBE46TFF0h7ae0IvLc0OOcI3lwGyKlXtCnp75PtUcAh1jsDcTt3bG5jAs7PQ5xUQLgU68MOxxZ0xUJIjdw3118oryeNIZ+vVAP6uGJs5Xmb/s2nOa46jjde2621Y6br24M0rjq7SeoEPknee8WTmgV4aKsEYaRcScr4LUdHbhcB4LnPuwboAk+JZ1Cn5FX/fNDDWuNztDboz6wGSLes4vt9x+cRc2TRXDfRnPEVhU+h0zcmDmMFiF7szqbMepARk4KsGn0c2pAF3tig2w4fjbpHPOJe3KzHBzsN0RcpfHS00H5Z6Qu3257c6z9+/Tnyfp+Qot7dH2c3pZv9OmUbFaT7+UFyn5adQGFwfsu/aybLk1bLsyfWWUHizRQhRlEUos87rlueF1yjCNzAq8/YOghrWM62Xy+Dod1vX8BPU2r3pezpk9Cr+kVzeeXHeH7bYjY+tSk9YFq5z7czDU6woapi4H+u+Umjms5wyMIg7ZA+hbtH7/kDNib15pmqWAsPFZAEwftjA8W+ucmwHY/26eik59LkJR9Oa2HNkZmvFttFkjjkH/AJpDmZijQRkopGdvb4jeCfncEVKFk9QiEdTUV0yO8lYkYrUvtZqilrpg4z0a36DtfYom4a5FN5DjeT+z0+YEfRTLUQYl6cjCSdHRHu0+o2eXZi/bQi5zwtO43A4HjoXhXAQTOrYXFSCML7it+IUXt67jsdBizR47GbGzV+crxnqWcNCIj7MSi7hu2cPIUgU26Jy95I5UmeJm956nZ3H4T3Q/SFtwvQHQgdgM0DKFDGLQcpCEw7JaHybGyJAPND+u01FSUcUpUpzAc5Si1CZtP6LHt5/dbV9pd4fcxgOrO1zdM9sNvd7CNaHAa8j8AuYE5BKAEHpBWI5N+AALSC5AoorMLobMkIdoNfcXVZeArUTMc0LO7cfvd650uvfcFQdGY8LoilV1znY9oqdbtHcIGggMYHAcalJqIMYFzYUbvwPoVeTiJDnkM8hlodQ+JbZob5aW7tPjm4/vXlq57Nn2GA8sxkOre7fKt9LSN92PktoaXgLcyIcDsfoOwKzWi1sPpFDSnw0+ttiUk4qJIAtHmphizDLjVp7xFu3WkzudK52ePYf5oMR8UOoJuWo36+rX64cDw4/pyVf0dfVu/S/PR1+GXkIfPb/r2rKXHhU7Q86u+d4xmlinYEIZI5gPAWt9xmTuVA6ZQp0c1jNsyV/CuDndnjkZ0y7dMBQH8zKQ61OpzDpt/Za+aA9eMCeMzh3rnefvwS4z8rzILhrshePdB/S1+k5RXlaArv1JSAvgYMIKH/APucLO1mXfHM3KMtUHxex6mqeTywCwCJ4WdVgZRExEITJjBv/NQTsu3SA/zTaut1r33X0C9GauJ2F+1e/2TARCf3YBet34zGl/J1CexW2+ZkCnwPParckb1ZHa6lD9jbHbr2h6j3bSlGBQVqWDPOcyktMQ5dvXMHMInbieHlk9rNxmVmjtt/S75rX28n27I1x97dV1JFxXaKKZsrsaDR4LUXOnA5kihlj3wCux1qRJnNqnRZ9uLHKW66LcM1bwJzg+K13l4C+6rF2c7faEqsxxq2O3smuuf4Ieb9JWHC3dIbP1f6zMwIUv3mtGdFBFRsjrA5diCXHtJd44/pc5TCfjynpGx5wU90af/Jw+717osYcqyxOWqkhlz0IXmsq5eNWUKhGHqjCEWTiRVBJwxScj/h3BegX0QqiTqI9ixeMNZ8D9LAOla4KF46KXtKGZwdZgsz1sN6SLHVHP1ec3xmhilhbWaRP2jazwTDaN9o/c+AypWJxEBsmt5yny2AH6ohbgU2L9o7UOZemQshvY8inwGX0xMDnYvNFaGampiFksCYcnUtO81H7n8YeqzsDI8qiwlDe1L8wrAPcWa3klnD7H3jyWZzz9MuGy1nnSwRUsItgsUIIPNRUQorWY8UH/QMtmg2fPZg/b0b6Jiqxh29XJa/+N/h971PnLA3oLbtq32GxNWCsYNFNEAAAgAElEQVRjlddf3HiM8u6dA/aRYXqY4inoUBJiExVN5K9iUcWLai5PCgagnxT/8aUqTsfHLMxhkErnIGbpDM3R0qX54aKopTBdfH7jPOItJRqsRo1ltHLU5BWhl6zao0jh0JnQ7NQXMwdILxqwvrA/WMEM101/YNARtTeveGdp9gRiH6/NHz0SO4Y97znWVotCXlS1UE6MiB9Diq5RnUOzNNcUbC+P2AbnR2DAlmlIFeTFzM50RudTj5dXOfKSj0eqlxvptGfsYHFbhJ46qGv75OGH1Ts1FfvWjrXLn9HvN2id16fcNGfTKWiGAfgt8PpRAuECfELMHrbsWUlkW3KXG4F98OyWJ+QqThV54pWD04PcyR34nIcGjcId/KywS4BMOeNObGMhTiko9azly2X8fCwkJLNXpfUVoEm07szxat3TvfWR8+ZoRVXI0zXX9Sf64xat48aFM8T0hT8zRRk9aZ7HpjwZbMbJGso5vnJLiomm+mexPYA2i3FKhCmyTusP6eGlxR572FUeK7PFzOc2a+Cy93KAuojr59iKYexi3xZ0dqW663KOWURIJDOdIxdfyzuB6VMv7CQFJcVculXB2q5Xu/nqpivqKkmXeMKe5uXm3sner+irTQqyTcNgkE1nM4L1nFYALIA7XuaXVUruEa//LewiriyRkwmMOrxOwQDNjdLD20/vtK60sTvFYj60u3ecF5Y6tEGOIpSJZVOEgfNKFrmOY3CEyGwsFj2hlhFdXD7MBCq2KzSC264AT0aG+zqUGX345KOr01ea3/iMsYrSoxL3rq0m6ilNlWGDxl/WP5c2HLjq2HObE5bm9eaHNLYFlOeMoRy4cJGfqvNjLURlgekXMDvqT0ow6DJaaS2SMqsi8WrxgvUz2MWFjtIZ9LY+oKNJ8jdudBiyJtOhs//1MHvnDQYNASLQjRcsav+wDdnPCvRSbq7uQAf6vkC/PWrz6UAvOviZgIzdtdI0gwmnqMhsrrCNPfI6v+MVDy6ySR9SmmZpvn7VV560NS+3Ie2sAlFr3CeHmAxcLn4WlpOgDYcv1VJXuCdqDb5bHXHNqJCiRWvdbCuNVbhClYNTI29oRe6XYZx1U47FSQL1mejDowVlZNwK8BURKEHJbdoap4eXVzqNsVItodXv1MOBY2P85WgkSCGuF+EetcgxDBmKXm7DThpuKqD7cHjgcr0MGeyXly98x+IA5o/oumb0nuv197m3HeYDFND1LHQ/ptFNbFUaOYSVJgILDV8grjLskFaaElKKWB9S8ixHIn2gTE7usJJJKjkn33eELumZTQr+gf40uDh8bqvOljAZUvmOsG14cgSuPCEFOybgsufdC0RjES+2jOxYip8cr7zHxg/becqkUSREoFtyNRG5BXWN6FndFbhcGfZURMutCbMr7Ox53TUGOgTjFIcsy2aySLhkVUUlJqKTsTB7SoTYCdF4gpFADEb8dDqLbVASdLhNW/9aNvgZfdY/O9C46nNFPGXpkopYecfqhdsTH6qM+wpuxYwNDHj5KgbOjZONU5buymEv3SX4fcYbZfXkoxoD/YUYiFi7t3KDAC+y7y8vd9Xt1NWE3c5diyPkdMWqzrLofoZrKzXf63ZzyuHcdfVN976ilzG05QNFddhCZFzSQkTnZMzWBS6zJM+TtC5C8kjOv8ysrRfMKdhSH8C3S6Qqc8RqGpqGBGnnPo02bjaYwqbWlYvwzls0bDoKl/GxbsaaBLZI1afuHZNJljeYGmFI5pM8Ccb2z3Y7olbfim+WFvRR67YO47Gg8o88KwzTrSeQ5hAPaMGqaZSoeKL+pqAdZbAvDhRDCtDC+Y1mLVNoSpj75rs1N8O8bEmhVuSZ6AOllT0V/D0nPnqMBTrq8bpnSK3VLk33OKOVliNrx1LnLC0quw9odFwWIw7AHIrJcH78mT+gEymn7DLmZ+mIkm9o5Xf0eefqBWvCZI9bel/3IwMHAq+Q42kGgDFQHcFJGZU4bnMLHydFoUdKkaobEiWYJ18pfzpS8KZWwpJMCsRuCtnIa9EuL3R59isrDs3ukLt/oedL+t0rZKEE47QPVJclBDX/GOjZWZ9M8ypTFg+PVuckWYh4zrIjCA7+bDqVTSXZB0KUPqSDLdqeppkPH91tXWx2Jm2lyWJX2N0V6AHWm2EP5xcYOHnmxIyyUi8srfArZ7sI5yhMVMmXgEm+mlObpbqAZSEoxR13pKasRfvg6Qftq83OsLX8sNQesfUsdv8Jev0u9HZeFxld8B3zCXADyTZHUh73HQMZ6KGmngMbwkSZLB0eUHiTVmdo8iE9vP7yunvPUZopMcbMdZsNw3PDKCGWetpyluzskUHURhfiytRhqghf64ffytTEjuQcsQDNuJ8/8hK4BFm1BvJpn4z9w7Xn16/NXe9/MXh15vpJQv8Cjqs133a7Yb/Uu+H9Z/rHFXoD7x+zow708MXLEs2hOxhW2JDnTQKzOSeMOGhUlkTOWOcPK8DKfR3UE6kLJzbDp289fr96x1kZcl55dUPZnlq+ZJEIsYT3eJrE73jMou+KmvwLegoGVgDUXc66GQh0O6DRNwcY6NUQTw/x4p4VsuJTWAdMUQZ69Sfe1ucCF8lxEvZvJpvNLNDixdkuY8Kcd5TvW2vSatTyBbQpbD4TYcDITF4F9EJfnewyen2VCGUK8pHVN6Q1bjWVxUsa1uqfo6QAnf+wHAWh+VkG+rZAf4LhRDiouCxFKT5Fs++P3anbrDbFy9y7nuHAVeRgoJtJPjA4n/VRAXqmiWTg4PZzw1O+HE4nxyJWuzepa3TZpq5n51ieQeppkWKPfMSiIuTyd2kX5i47Q+6yaHlVqLJ9ue3ao+tjNL5Cy4z1mOQ0FCeVwqD77tDOXFBPBofR6i5O1onUDh+i/PObsgWGznTofHkwQzOf0acdi62eiLP4sLQyVnvt5XtYR3aWxyfsNJ0ncoiuTgg9jv/IvS8ePOYppqreEUTnDNVazcBy5RyU3J6lbhc2Ryxzh92X5rruo5nH/BIys9fFaw/oZgbhIQM2joFe99apC5QWhL9UODsJoAKLQWggW28bGS/Pr81cOResM0bM1qSjKlTpXW24HOi8/fQDEMHDdODOSMfD0rX8nIzjset2rf6u+HyYGXg/IPRBRnIOHnkGpJ+Z2HnViNAdbEqvTuBfyit6EDbaDmzd893f0NebtJ7NsJMGXUVlmYKTTs6IvsMKQw7rKBx2E8Uc6rysZ4Ys+UtBOeu8cNGIHZ7NZlKZI/SDIxxs0PqX9PsLyxdMsdK6cNVHDz/GWi1jvyL8ELIQ9cJisJ1agz8vJZlD8jhdvVkbmkFdaNNqs5/mjql1ZiSTpc121DHjAyXlm7hZOefrAeSxS4W8hUYIlFynN1/Slx3LF00Ju2+jTauCboq7hN7BtpAOTqcm1DGOy3qQNSAGFKu+WOTHCJjHvuAOrXfhsj1q9O7Wj9KDLWy+HGfu4GGw6sAGu9JpZcynembKssJ7IrApJIAGkj2i5A5FXtJ0/3yfK2QzHZQ3rTVAqbcg+nacTSHjZ6Dnyi/l4uKxqCGzwqdMRZ1cogTCPysO+WLk1uepjEXErUFuAQbEkzhTuXu+pzZWZ9m3mmMW125Vz2L/GI0HKYiOMKwBgSg8BF4hWZVNhDO8STXXCojY5/XEaZbANCwfBC4zlDmSTJUM4QAnw3BeR9/Q63G6P/JyyB5xFyZL7SFb30KP2qelFPeZk1kYoDjq1WqSP+QCOYX5z/EAs4EkZYkgzC+U7Xrz89BNDhzHkkRyVOxIvuya63Ls2E1xqz3uPrfReHmlZ2Cq7yv6ww5tUYqdWDKP8gyFRjLpmTg8fj09QV8MLP7g8lEfTBIdpil1yKbALoXfIC3nm87FC/awsyRWWpE0mmJltQdV59bPdfl74SSohicH7byFrXn6mCZMG47bK95mqaY8O0y3QuTlIgML5hwsRMQ68E/2tJKNM80s6irkjXf7LFOTe8aPfWuCsRE8O9RccCzWbFe59p1DU8PjNL5LW7CflI0tTChaOOuRrGao1SuKJWsmnPEmradAf30py2QoHVTOc1BXcB6czn0w0ilEY9ILNHd1+krlrsdyWNGwcg6ZA2xyykLCAFQ1rMAYludJFnx3FD3+FRzp+dYmVMYOzQzbYvaGtaYZDsYqEXeSd3/0mBmYKaWAXlFHnWdxyWub8xL0Bc+dsFkMJPcoOE5jg9PD1qi7cbVZq1IrmQmSc1GckTwneAeEP8E/AvTSK0bnqjw4Zxu0my9GKiM296799uMPpmkqSnvMCzwSxROSqXVGSQiKIJOaQ9a5BS8piJmjNNrCUIY2aPMz+qx1rdl0WOYK228+u4EMHCuzuqqU1YcBXObaUVnaKq+Gly4zmUhKnWTS3wv90STXsAjFSHpGnuzxxPhWnFOaLZp2Seub7mteaqnaqy07Mtn33COTV8bpEXc2lr2odahS5OHtV6GjI1Oe96sGN8k/XnG4Hg3PmBng5xeSSoEVp6Ng17tsJkEHG7Q6TmNdC72OCGLU7pjryotrqLFw8qrP5YwrlGeFgLlG99oLlytGyvECH8A4khbWx1Fr8IeENLGzLSOnBrpz3KLP312/02CK2Ixxk2nf7Aw5Lr+++IDuvaHXQdqIUgQtgAQkEIqFeg5g4NHxiOHUYlmPq3RmklwRXJ+iRAq8wXontP30Jq3/gf44MDfcvtpZt1nniTrLokWlVGKOWTuWLmMbA6/e/lManoEfJOEC2qS6fxkts7ucETow4APgEfeRXXtzLmQRobrLR+efd/WaSwzIiSL8Eqe95hdpeUX5x+2ZBqYHa3bqyg/LnBHn4NTIQxrfpg22E9GIU61NUejFYaCMSZ3g+isznbpcpkJnUZ4XJR7kC8GY/Dm+BO5meCtTlA3QXMfSBSQjR1z9gV4IXt48DPRVK0+XuzwxykH8rsh4/L3fkpFIM2NNsAJAPzA9aE+YG4LnFNArxeR49Gc5OqbK9z+lfzG/MgCwfxa03KGtURrtnemzRuzNG2gXoW+rrPqVM7wdD+etj3RGx6vS6EUCFBZopagh/PXYB5VhT1nc2L7a+SV9uU1brJjingFM3IyNGeL74/srZ3LOKkZGtf4Z2pmvjpDCAlzYh1L//NbL95whR3m8rHW1Dd3MBeuLxQD59tBlXlmOsUaOd2WMItv0q3PzD4+WWEnMgLyodFRj3YmLlLQ8aFF2TsJr0m4/vlu5W1NyVG4PO7sXeibo8TZtJ7JxXgy8FHhYrOtwtolqaoTgpEx67jkHcjkBoKjGjCNmNBvN6X1KrNH6I3p4c/KGM1xZnDI5YjWtS7wvay2sZGXlFBp4aRVIh0dRYU76+wS4vkcNRaQc0XRC6a9Mk3zEqVlXw260ty4uXji/Ue8MOU1Jq/nAVr/T0BXo+oI+m6YXUdqFeGMdBo0+sNeWaAho6caxQvyZSrDAV5JOWTZMJRyDJsxoRKkE7W/Q1gK9CdDcv7b1vvPsg/alVnPMUpQqMSbM9rDrXLDuqn8EG5tUcNEf3O+Q1VIzcXK8f4Ef1EhPXnl86gfO6pT5SV/5bgGNwoP8zHPC9d9sa5TBfvnw0Z3K3eqidJk5ZunY7Lz78KMpmg7THjdZVhoDOAm0lECjSof6K4vyh9/iCWDPmqj1sLvAnMzCvHHw0Q6FxuhR3do5U8J0fq0BZc12LM7SolLwnz4I0JBpz0z5bcXrJyXiyS/LLXScBNBzYNiE5Kq+132meFnTZv00+TEiWZ0/TIWf7qxwN2WTkI+0R3v36cGAv9+576x9UwsXIScYyCpVKeQnx/MTHzN5ill3btEaN7wVRzbnnufK9NU1WoU/OnPIzQtFJ/8uRp2OKDqj6NaieKjh6k4e8f7UQIMsJbcoeI/ueTd85kOrJ+TpWG2/+eQqvBbcxJjHfQLd35YOJ109apFhsQEtJAEHayzXz70efd/gsk+XOUOO65PXH9HEJgUPiduX6+FZ7uIvjvvcyvgu0DMV/uLJk5RMI4EtsUMbT2i8y99nC1XnH5UVx4wdq+0fP+Gdm8zsFJUq4oKCPI6C8QYsvNUwJ5mLP+rMqHVitYgfDLHKeuRwa4Nab6C7bqe+JGo0ZMpMcWv7m7a7E+8/R83Beoz2U3DdsJuXgZ5bvcPWh7OSz2Qpm5QyWlbhpWuIzhSCJ3D0S0xRhEWYQpP06kv6on9+sG6zwRS3lFCpltUce7Ybz65BD0CQVvUulXTLMw/5bRnp3/w5BYUQqBKvFBM7v6AA3o485vtG7erLG5WRWlPEfmG56/17t2dR57Idp4OcjwbEPU4CQORLaMcKxEm++rFjlsTsY+VCCRhm4Ff5/gxld2jnGT27+exm1V6lK+rqm+uX/ZKkek3C4lAQcOsK6HmxKf/Yv5lef+0Ljvk2dySOOQvCTW1rTaaDiqYVr5/muCeJBIrOTKEfo+CJ95mv0wluacl9JHZob5zGR2aGHVFbTbAGvmkbHBDwIv4EsPbXiMOzkV+kFRfmcdpJtdbrH/ZEai0H1s659te0SOlsio6O6PAQTXqZLCfMuROj+quHxzgvR8eIx3karNGzPpigxCzN9k4PukNVlpjJHCk/t1838GpQ84iRwywEGEYClezPclZlgSkqq4hZUbQpMOdf6Oduh+V3/dW1qrCz5KDQGfV0LfSP0xPuBrMPAGMnjDhkkkiyzDlljoepdKIfBnl1Vi0nDlVya6RUgqLbtPGvtZrXXmFPrhIqrYiX121W9U93qQpSjmFAVul6E2v4enkwZv6HdPq/zhHoEsGd/xHSKJScRnj2zKwKnNM+mrjTudxh3ncWpypsMVvTdmOPv/cz+mIS/SA3UVCdTKKLHceq0exYNUJAoDCVAe7r6XrCTyc4RwjGJ3K0O0JP/711Wl+gN1/TaNd8r33HVprKL88UVEUdV2aG4c7KQwdunlmpyfz3AvXMz7mwElskun4vaGlBaLhvesgdq6zarf5H+pcpRnmOCAF+uTaKSaqnznA5u8oKeCsYg9dN8qLUx0UQc9fSNVr9F/qXltVmR8LuDrrfn7gje4FKcy3eMk2W1jHQ64vsrzPdT/OumvYcaIrPyKFde9Ffs+227tsuLF2W9EoYKtg/7QTzvYtDcaApGUy7tPecnt14ft2xZ6+P1d8d/RWyCxCERNIJHu+SbznT0FCIPTkLIWCGtXOrjcZ4RctG8zRNMcQfHFJCZeBAdTizUq84BUgmep3u3eb9PQ5hMRx7dTbQEeVez0x/09Z5e9xclDQ0rnmxhU6ODmClfAZ61eCW5eFpWUWAnn3yOg9iTQnQ/1A/9zJNcyAHo9d/uW6/uvCw1BLyXJm6OUYTb2hln+Igh5hoGIS4MM7GQAxqTCSVyao7vLPZI+zLuvmYnozMIMXeEqswH1R4dt0XVi5g26YmvjfZpkptTiapWpJ2JWBxRu5BjJJ1s3z0Oi1BJapWlFdYkFcIbaCUWxRc0vpnh+qDXnPIWrFvrtqvbVz03nr2/hg9XKbFMO3GaD9OiX06iFJsj3a3uT3iHjcA36HtPexYu72H7Sf3tvmxS3vcFfF470lupIg+iZuA+PlpmpqhwD0a/c/0XyrDlSVHBfkZzXCU3/EGLdAxeVwSACdxYS6ec1qW+BtfJ7OEQagHXgrz0YMUlmyrNrg4bNora9iseUj3wtyGCRwjvlRs2S6F5gAqhn6B6TODmKxS3YOmfxwLFvsr4PeymSVauBi4bEs58w8NDTte1YaQ95GB65N7DKnkhmPUEj3kZyCy5FMgSP8txK/SupYu2vYtlZGaQf/VWXoNmfiWJs8ZpIEE5HSFBzL5gPYXaPbvJj5x73hcYfet5++p3fWkhuWsKuvZKcqe64JCrQQJJ53a5aVu24GzdqP+Pt3f4pb6iCCKdahadJ5pvHDKcsUFIpX45DFLSZuUdDqbxgZ+vPX0IUqodl/Qy3+mf2l902rcL6vdrFU9cLjkTimwmE2Z2ZwEONXIRdwrW1JWllLqUd3xA/3cDexJs0G1Gnl2w75bXXRkckSrLi30PqCJNXR5PMCI2CJRVMqpo6c5UGKCX3LGANMomUklKROnwz3sy7p4n77GLlGh6oqEs3TfZt/x9CxyFzyJV0MV5DoDQL2gNV4gws76T30E2rEBQA/jCdqRtIQzsXbvgefz4psu276rNFFelih3RT2tb9r/hX47ThN+Wlik5VVaXaSF5/R8jMbHsGv8N2PcxvwpjT1Fq3M0P79HY/d4W/lx3u1nFG3SH/Bu8qOj9PARjf2RvuwJ9DStNTau153bqzZFTaVpY36mqDhd7tj39E0Pag4Nu6bJVKoU27MO+G90vQTKhP10lGeNpoydNuW8F2uP1jrbbk1UeNfPBegVt1ji2DZWkRhHeuM9BfRopauWmRyc7vl4VeqKBz4nQJ9NZbMHKSRBv2xY92qHheX7pkvzXWglYQDf5eejHxMTnxmFkVZHW9Ya3oILzzwpuVoauQfm13woJs2rPmPceG694Tf0z29o7VivPB1l3u4quCmRgsaQx3LlIBPbps179E3tTr01bu+d6YKbHs2KS/IKfhb1hGEPCkQZMuquTF2xhhyVezW/Gv9knuaiFE4CcPT8/7NpqwoDpY8t6+0n3BgqLpeVDbf4GlxPWYpQ+BFNXJu6UZnweKKVNx/fBVOx6nAC6DnKn/eWQA/WE3RQz5yA/5f6uRcxuvm0/rmRqmhd8VGZLezqfTE8ShOrtHqYw3reWpXHcFruyMkCxnZZWaCAaPUSpcRxNrVFG1/Tn4amhrzrHbZItSFZao+4rgVuQQrW8O1BmeG+fWhyJOYOL7kzLhlFD3hD8osKkHdZLGqyZCip2mP+xUta90Jfw2ajfd9RmCwyHpiblpqHp67fmfi7L+mrP9Ef/27sk2tPrw/PXOmb6h2ZG+qf6h+ZGbk2OXJ1cmRoerjfP9QzO/CvW/0N+geHZrCFJ3bxnBkY9A/0BQb6AwMj0wMXX7fZDmyFqQLTUak1brREzK5YlXu7rmG1rWd2SLuA2yiGDcKzyXbp24z5jCT6SS4XKxJbozNa8nfmcczhPCfz+5BSqd3QGjZ8JQdl3g3vNE1z6gvnNKHjUjLLm95yBITXlcpc4uMzxxuPsyYE9CUtEws/mzqk/SCtfU1fn9ttMB6YO9Y64T00aUX5pWxKQqFgvuEW8DwDjO2S/qDW2k9CtR/7kjyVkIeMWb6PKq153WvZt1xe6v6Su7vo+6Oedom+9XW6xFTBlCyaSCSe06tzm42lR+XNQa/WC3+o9HJSWzH82PD+Te/zDBUUFiOLvEr7+2d/79xxOWKukRdXn9KzMIUFd9CmEAbcmbV6Dr2qJwCYwnuCoo/NjPhMNptMIoYEoE+nDyi6QIt3Rz9xbFeVJ6xtK50IBpoB8sJP4tOS47OOXQVj5WMK1YQn4P3/Tj93YKY0epRKogbt+tMrHsRmy21hZ9fr3of0aAO+abXnKo8AQa3TP8TIUZ48PcIGK5yjIvJ8lEpyb/fNBfIjG+f59cqopyRdWrFjat5sGZgZghktfU8lsqcKQRHQOJM2xVp7viGf81g4I0R9hWSH6PZlMTaoZqyvhnfh+uS1qpjHcGSwxu2uaK1jr861W1cbqqncdrojHue+yxG3WaIme9xpCdvtUZct6rLEXOZ9h2XfYotZHFGbI+K0Rd32iMcZdjsiLmvMadm3O2ImS7ysMFVojJtbV9v6AtgC7+rza//w5H9BV6hqDhvkaSXcqxUTZSjKZfidlSt+/uvF7ELmlATV4Z00I/B96/HHfTMjwzP9vXOXmlZ97r1a06GtdakjQAvMJYLDAHqOd58wkwH5IgZUsdRZQEq2nUCWvXSpV23MmJX3aGeOAr9+8mvnTqU96ro6eQ3u1BKtWCsRoMfC/Baj5Uxn5Vn91pvvhtiyltnKKGJDgw/Pad5gozVsHZ4dHqXRbQpmKMXVqmehzdtdCwzIYk9BveYkQ+Sn+ZY37eWHRnfYecU/ghDTifLOd0MY/VtzEbtS5rRW7dx2fcWBqXWl7TP6fJP3nBLpftxW46wDPwF7wqaM9knKHOFPMBbcFnJMKPmLb9POKE00bXSUH9hcYU/PXBdSLEyYu5zLBgN4GwbSOSL3aR3uv9/PXbRkljCc0W9CxufAbK9r11maKrGGbQNTV0ZpYoO2DmGoqWwFEWunfOasOMjPnPNQcqNzQhHdUCENECZL08EubTyjR93+Lteuy3pkqYiVV4WqBvz9ah9K5nE2Y1Wy+BljGJKryEn2OU+IWE06lWCsi8Wuof8p0KlBG3415F31Nm36qrbOWSM1pn2XOVxRFXdW7lTWBmt9G43N617vRnPTRkvjOh4NGy2NGz7v+nnf+nnfmte32updbfettrestDavNjettTSt+7zrDb61Bt9ac/ccdzBuwQ7gYAMP/yi3SSxBe0Qx64QvePw6a/+SX/NZlUPlVzG7nsDcHVrfbG/NVq0tYquMOp1hmyluN8edjj3XgH9oHm0PdB8fMmJUISsYR2Wo6oUMssHI2VbpiY2h8SPpFLYrUUwZodBzmhh+NmiPuKvC5z4e+zXmALsawMzDGswxh1qQOaD/+aaATSRJMs5H7Z+BFYE27XywxhNyXp26NkETu7STpXQau/2d0TdxNmKyeGSPDeOd0BbxzUVaHvQPuCPOioSxc+0CtBXdyfQ2UHZ66uYmhHPTQJw6rXm1uSRVWn5g7FrsXqT5XL+Mt1ATQM5c5IPTtyTbl6mc5q1v0P4UZmg2wZcC0bJo/3IUoPmBwBVXqMqUMLlCtp65TrQ9qUC1VH6eqmrEhJ71H8xMxZs5GYfvULzK5iZDmeJh1oqVF1i6wTRpN55f8+zZyzLFppitc7HnEb0IUmgfGUro8HUWphDpplrbo/5FGQXcoQqNItmGkqZh2MED3QLWaW2Mxj94ervjTVvlrstxaDm3Uf3RoztwcJVJ61IZTW6zsdPTCAma6BK9P9MAACAASURBVPL+7ZXLSd+opwWZTr4lqagSsq4DEP/92D9ceXGr3z8y5O+9/nLw7x59DFdkNTdermIvUzX/WcPPVfpzFe8GJX/WcTcCubiKYd3BMt7Iz9LjTOH5yXkUJ61udJx+xH+jK6XsVUp0edrOaf2Bvsqw23RkshxY6larLwQ7vcstrQsXbi7d+gJuB2ySAOhV5h/zmQSIdKDPsj+HF9KZuBBcxy4gBkB8VHXOEX7cpuDv6Xedy63WpL1qow7uQjNyQjnTBvygeOLYgFS4Iqzyc1GYfw0lFVyMyw6KX018XLNTVR2uuv74+gt6tUd7Ge5N8PMCPUrfeScKWqH1f6b/3rh+znhkrF8+j443BqCR3pHkXZKKd+xALIVzDDWX1h8YsO7bDFRUs1IzSS8TyNnFhGcyWUGiswCZ7sXAZ3Kojz+kilQpDcgdSLBigpwkwcpN2v6Kvu4J9DhDduNhqStk7Q90I6cbWAbWKuQGn2cmjQJ6kFek23fjYeCXHJipr8fFcq6E4aZR65/tcofthZkic8Rx9dX7Y/RshhZ2sSEldqc69T+4Ro/oIIxkyj3e13N7izZ2aTOMjTzXN2l7nTZXafkNLc7T/AwFpikwQc++ofu/od/87/S/uvcc5akiR9g67B9G9Sz2fuB/kp2EIZ5NVdCBPPc10OC5yzE6w6gS1BPk4cO8vHx0wIRW6malu1nXviv5ZL5Wgswu/m7kBOFD0iaZ+Q6eVRYwrN8w+KEFDYfHC7jrZAFvw4J7yv10TkrLt6r3zjxeNc6f/YUT3vLyQBYjdlO8PfFx/eY5477RFna3zV+4T/f8ND1D/inyz9PiJm0l6RBK00kAzy2o4/OqovXkVafixdxXifWda8SUpXQ2vUhzfYHLjgNzYVJrCJ7HIixWi1Cm45j4SvFSkyMvTNuzceHZp4O3xeZWhQWF2KsIFRZN2siL6/awy7VT+fGjT+ZoYZ8SepeqU1Hl33CREBTyk7U39CtOU3qDNr+hr7oDl+xRa3uwHRoQ73X6s+gnADFu8MSLzqppvVrz6xZjvOL8bsN9Gt2iHew0JFbjmRkIn/sOEwn10AJIopfoy8Q1ldl0Jp2ULTvQ3pPSIZRoTFyav+A+cJmTlppg3d3HHyu9lWH6bQrKOEGTsZxz8plhFXsK1wpW5ABFyzcUFHNSrmzZxGFhM7jo6ouRqmhlWbLUumfvWL74KX3+iibV5p0nvFUY/198YNfhfZQF+Ufp8QNkodx7SPcf0r1RHDy4R1//gX7/z/RP12Zudq701a+1N260n9vwYnvxXbv1yFycNGiHmmvf1e8fhmcDXT/ZzMH9qwZep181IvyUioaPIXGxgNuHqgCJ6jIAvUlhaj5vcCsQXMz7T0jDdzNLnVI+I4KZN3QU0ZPHZZSSRM4QgG/DfXOMwWAolrAy/zriwjIbuTpSwL14loD8+p3IRacf7d/4ypymYceSa126aNo32w5sF5a6/kBfbdAad4lLcutnyaYUzBDrTvI5vo37OizlbGj9xClev7NG0e8AaXJJoj0KPaKxpo364sN880F590IXupjlJiAH4DIcxSZSPpWbI+GOd0pvCfwqtsRNcfODwcCINe6s3q3/mu6v0FqCuIIJ+upbIdkpCKlfAgsJvyErHy8oL9mmnTEauzo9UhXzeF97OTsY7q93r5/kFRQY8jkeUISoEKsXTdq1V9dcYZd91371OUKyexQBaZQ5pw/ldK+ioQvv5ThQ4Z6YoXiWI6gjR+h/AicaaJOhXViNn3UsdJj3HcZ9e/vqJQT8LUCgtyTOsUb/3Z4w39UW+Qf0nQzQ+kuKZ+HZKGBF1af1+Xs8IVc5lVccVLS/abvz5PYTejxHs6d+BOYRXx27/fTjvukrg4GR4dmhEf/A8Ez/oH+gd6Z3YL7v4uIF73pjVajGEDaVHjnKIw7nQY05bLPv221xq+PA4Yx7mlZbPnr8CRq4l6DUDu3bsCc6PzCq0/47XqzqE+iNwy3ksJWNbgHh66XpN65irS0/H/Yy3OSsTeUWNgKk+A4OjMm3F7GkNLEYEG9MCb8rwlbpgGgqKTsp5paueIk4RYVHJKjP0kyN8N8Z0EtzmHw4rXpmB8z7jsJscdVW9T36c5CWkxTLrQL0mMmI7YtkZXYCoKye83GzqsGQID+r9pwjx3rk6ZaoukpBkriHDrmbMUUo9pImbz3/wLPrth5YWlfbZfkpbtCXoKI8XjDJUqt0or2ZnD8tF77ddUg0423iEd4sLFQNimd6TTFb3UbTC5o8AulAIN495dgIOhORTn2xSE7lCpM/iNDkeYwmBiaHnSFX25po9AimFYhL5e1GfqpPqaWdj4JhdumWcN+b8b+r2amuyJR5YvbB6d55mj8hnE49Vr5QmS7MRZKlKXuxcudKSqWw84Z0x0sgCwc98tLA+hQKTbNwa2zS2gO6X7PWWJq1GfftCM25gLXsnGAr5FQj/f5FAvlKW1RvC8ueeIaWKb5uvYVWYZ6hIK8QWM/7lF19ccW2azekDeZ4RVXYfT7Y4FtrOeXDu4bI5Lkdnztaa4k6bVGnecfsDjvcYYcz6rTFHJaY3XpoK94vtB5VVEUqm9Z93YuDfdNXB2Zv9PqHewK9l6Yu90wPf/jo77VKBlCUtSI4iSVYUHwyd+/74//BMzmsx1rm/3ncxln9yWDO/YAM4BfeDEUgl6vfWcFGKglCTHkQNrrLVEhaygKyGvFb+O6b+UDSQ5GuX2TI402K2GuZl5fPOwbjJ2X/Q7SmwyGyrkSDUyaAEmbiisPl/w7+4TYLWfFs0urXGg3J0vJ9U+9S7zzNAGShU+taJwzenFKUzGKFqA5BsrVFFk2F9PQbYIvucD/LUtVxntN50ZnviCgbpM1P6YvmlXbbkd2x43rv2V3ZG1bt4CKTqoR9ThPgvvTsUIP7TaaCJ/HdzUqOa/leOHvAhp7jbW98FYdm70arn2aZQigAy2axNcRZaPMW10q6KnuheW7we+h4E3pIjwZnRmwhO7Zg9LGLCSD2rrmWzft8QBnmqaAQzjcz6v4vvu60xE1aQvNtNPrRCyiL3Bjee+L0w2ZJpvuodG2DgR7jPqREhMJbtLlBG0HaXIc/enuTtrZoc41Wt2hzE0WV27u09Zgmmt9cKEvb89JF3pUWrRKOY1j/ZyePzpuK/5jCx99yfKTTHoqkqCgFnHgDRzW65CPnoJDbGjdq12ZvnFutr9uvNu8a7VGHPeo85cMWdVpiTnPUYY7YPZGahu2mlo3WtrU231KTb6XJt+Zr3mhvXGv2BhtaXzcNT/Uj9bYdswOI7ODO6Z38zHUGuHkeAFRuIKzsvvWtMf3YWpPAkIpH6EaTKNfy5XIBYzuTkp1++jJm2atcKaLaFUCFOO6WWqFp57Vfj/766strA/7Boenhay9ufDj+K4T3qhj0kC3BO1yygs9ocfzEuCE6P9pg6FUD4uAEJ7+1mfdjZHlH75cjPH17/HZNpM526Gh93fYFfbFOq7D6GdiRkZZLX2B/g+iGCqXwnihPnLKmgrCy6M6ssepALz5aTgPL0mt6073QVxqv0I4KmvbaUI1dhmXAfjPurMQiXXejSatYZXVJhR2A/ttr7l3QEr+Vz+4/eFqxfa3m1i7PdZkPzUWZYt+yd4Fm00dHkpAKQNJl6Omx7IxXSrqq8kzID2aJdmh7jEYH/f3WfUvVQdV7EzdU1PEtkOwsdIStnScRX15OBawtsVKvdWsX1y5ZEo6mtdZpmgXGp7nc+iw0YrHGwVXFj6AwM2Imkz2M0t4M+cdpYpwecj3k2H0av09jozT2UBVMjo3S6AN68Cl99r/Rf7LsOUvT5S1raOYM9FKK6xkGnBP8CvzEX/8tZ464InLKvjAP9iXBT7LKyJ5knAe7i1x0IgL5wZP3r8wPS+HPKZ9RKzTddy0wNDIzfHPsFhrwSlJKnX7g4XSUWu6m6eSEMXF6WBgWTawgV/Dq06nBuWUKos+E8UxHcZCwSiTjxVdwHo6SIjAVTixcdX1BEfJepecMREE+Oh7jC5XZZSjJxw6wmksbmRqp2q22x6zWfbM77PSE3C6YQU19U8PaRRac+u+qDXQkhMsjYYGhcD+nuvHNnLylM/DDT3sp7vEEadRfckafCf1Vkm7caBd3afmyed/q3HZ/+OKjSZrapd00sRdZqYP6gmO0kHV0bF9jcSlM5xYIHGtUJ88GTWwHKFcDoUvRYYyiT+hJfbDBkC2yHFovTHch1J6HlVCI/Hm0IsE0sHhl01q2fFAnJd9Vaav6uH9ain//2wrUDsKFWo3WuO7NTxeY49Y+f+8yLfAeN3ofJgZ6fbTfIRQILa1p+QKWCj8iGHA9W1csmpUgQQssdcgvWWw6EZqklx88f98ZdZTEiztX21AiZH/nrq1j4EM4Vp8wUVTbtN7pAUvEXbPZ+A09XKG1LQruQb/e2UGjkp0gbSzQYoBmAzQ/S3Oz5J+lGX4OzNKsPPzIEpmdodkFmlukuXlcNuenWT/5AzT5hMY+fPLx0KuRYf/wcGC4b2poYObKoP/qwPTw0MzwsH+ob7p/wD84HLhyaa77/KbXEXZZDi3YPLpSBxtx7H5/vv/CmePxygXHeI7lyN4ABfTsyFJn2IHGvmJetKJSqlUN3MtHOV4p72fdwh6J0z83s3ruZQ29js04qEnIbpRbNeSV5qHzEXtC9ACkeEa/BSDH94SByVuQSvw9f4EYP3haVqcO9PJF4qPRj/H9x1VnBbzwuX8kf0g0bV3r5h0K4W8pLkB6SYFWo3lXvYWZQuNRuS1ird2qrtmrLj80liaMVeG6nql+FOJUQIRjd5hvzZH8LA9ISQIIFBnscWT458KT79MON5VjIP02QIcCtqwgEBG/gDe2oIB7zVsw653LHZZDa2GypH6jaZwm9ih0iHpXpFDmIlpAejxQs/gd4GCvACv/bDdLSv13cOs0f7LyxYn5yuWQjtPOFD2//fRWVchtiRkvLrWgV6VF0/KKc9IsJ3MVbyim1f/SGfH7xPrpz6jlArlTwG5VrUrzrjeUxcualzq+oD9s0SpHHY4yWcRjCdlE6LGHDoKo4tEjkDCbQP4M76Gj2rbo0hWhRCUh8HriT7TkTtIh947W28wpacxiWAwxODEyexQdo4naYG1hJt8SN3YHLqng9k9PlONvVEtGXy5qBqVDaqs2MD9ijFhsR66u+b5/ot/+Ge1KxkXdHqeHX9Lnlxe6mzZavaudvtV2VL6s1zWvNTSveptXW3yrLb41n3fN17TW2rTW2rza0rza4l1rbVxvbdjwNWw0NQeb6tdrK3ernVGPJWKzxhz2/UpryOUMe5wRpz1qteybjQmTOW5zh6rcoUpjoqL8wOiJevon4aMH1sBHoKt9x2P6kaNjLvyhC+Xdk9foa1Z//Q734jRfXsBqdQXj1FmfjfwpSRs9cVf8vYKZ6mzu9k5c9RcPT47iL170A2+c6XM6B5340Pdv8tipUq01rTWaj0wtK23/jf7fz+nLDx7fbV+75AhVmQ/sdcH6u8/ZCYyiS0zx99IR9FlQr8cv+hs/MJ6f55SIHaRPiBzmX5UR5BUVIEQN90IBJ5lqjJhe7fr0NUfUnn+Q7w5XX5m+sYCWW3DCCNgK1itVEjgO5D+pY+r4w59gx46u1AscnQbh1TXIgcN+gewTwg9nd2njAf15aL7fFrFWhyr/R3vv/R1VlqWJ7usi5MPLI5APGVyCPCZtZZK2quf9Se+n99P0mn4za82s52a63/RUV1d1V2W56eqqzqokcWkBWSAxcgiQCVkEks57e+9zboRIkkQggULarEBx49pzvnPud/bZZxsMkF3FcUhIYfrS8X6kVUk3gYb9xqMSyqF2ZG90Mdo+eOzP6swUeiE8WFldwqFRm3BnpEPyzWMQSyZ6XCdMJ0sycfrxxNXVFUqVgyjr2dTKinrwALme0hJxw2j9Gg/D+kxW6FxR11+5+kpoqdB7aLdMNJGR5SP12eSf9JoyZ+rRWb+weeiM/fYX75Tdq8xbLCy+V9Y00Xr0Wlv3QA99ujv7OxpvNuYt5TtrwYLZWGK2PDYXis0XxOZC8dlInPTU0dk4fVBhXTyTSKTQ8b1oHr3bI3PRcCoUm43FZhKlU+V77+ytHa+rHUkmx/Ynh5uTw40No7W149VVd/btu13XfPPA/hsHm0aTrTeb23vbcNk/hPSKYzcnit5kVOR2W4ZABSQnGnNncxuuN/139Q//f1L4f1S/+Gv1HxOpCm8xJzFf0j7Qjou0RZj9hQbQDNbcskJtyo3Jp4wCy3HKL20UhBImiSOux+YoeNRGHVZHb3vxbNxbtPcu7Hn9qze+Ut/MqVktySOdP1ilLItGPiT2RaIn/jfSfppqmO3NPID5h8eMp/zLOiDfzfaOmvxUnX6l/2h4saRivBY9knNRO88j2fZrFk7kggNtju3iIkIF1I/XFc2H264c+1Sdv6furq5hAOeHSi09wPxAZMetZ0hE7VpTRnFe1ijFhKK/FFcIgV17sLJMCaOR61G5hXehwVHTvT8JM42BY3bG2Ewjw6pSw2rkd+q3rSPNean82lv1UAG2TVYGm9ITH38TNigh8zdMyYIn4R+LtM9V0H6tIzKdKLwfLrhfmD+VG5sJlaQi8ZlIaD6a/7DIWoWixYL9t/Z39fZ0DvS0D3a1D3W0D7V3DmBYkvaBY+0DPZ2DbT39ba9e6jlx+Vj7YMfRofae/o5jfR1dg53dV4519h17+4t3cGmR/SHLSCXNf8tJMV1JvpEltL+C/oZRF4D+NZgA/PG1kr3bFIFyqBuuC6wGw4uR0vmy4sniRCoRWY4E7ue4q7mxmeLuoU4d1A/ADgT1uu42rcwjxcIZCC7YE7UbuZ73IeujtIkdlmPaNMOeu3udB25iKXrwauvn6J0/iamDORYGivH319QihZ5ndiL1AqkckKyMWc06ojd0wzTDOven/6vU6oMVpEL+jKg7/6x+3TR+ILgQrh1vRR9O1Dtpovcw2c22+kcivY0aP8oi6EIpNIw35M0VtH77ym/VH4bU0D01OaGmx9AvcZoCZGNc7Ek1Na1SS2oZQ/QScFx9M1KivozTTTxEm28cZR+q5ftqaU7NTmF87XtT6t60mpxWM1Nq9p5K3VVTE+rOhJq4SzruO+reHdqg0yamyLzkqrr6G/WbozfaEstoGU0S/Za7TJEkbxZRSJ6nsRHzVqK2dD90D/W03GxtGK9P3q5tGq9tHq6rv1lTO5Hcd7u+7nbN0auHUHfXQLrpJoxei5+mjE8LbddjVHc81EL6aLYbYQO7PSih84DDq20kEtFanp5f4OoB24SjPIGdzVh9bD/JYlv1/m1XmAScHDhZObknMRlPzMWLUoWJ+7GiqfzEXCyeKm0cbT51nlJo4cItW3Jsef/fPIi0lIQmSnhT7rtp52sX7CAeKAQ4CAeHjoTnSyNLJc3Xmn+rPr6pri+p+ZXVJWRwlsDRV4my8aIGIC0hkkN5OgYC8RGNBBgLyVyr2ckn7afbWFsmsZUGk1V1Vd04dLU9fyEcXM1tGEb7B16N2mb87jefVp2hhBpALw8og+R4suhhqOZOw/+j/vaP6g8ULPvsaXX+M7T3+OyMOnNWnbmgzvSqb+6pyWWETwOA+ixW1mMcR1wa12PACkYyWFJzE+r2kLp2Xn39Kcba/uw03urCOfXlWfXFZ+rCp+jo+JdP1elPMTz3udPq7Dl1+oL6lD6nz6vTf1R/+Fv1d9W36vMWi2qGG3AQRTv6LYSWNax+Z9SdE0dt9IfEDhulKCUsUFdSrBIOSOJHLCkhw4988n8pNF4wvpK6iAxF2ESEExWFqKsXZJxZQPYzWo9rkbme8RTzy4fOMxgyMYAO8Y5Dy5VGaPLbWja2PQL5aDj/43MfvfHNq12XO05cOd410NE1dLRrqK2rvwftLKuoYwTwfXUtjI1Igsi2rxcWUBM9Lkfjpk/0vGGRNW4hmme1DbWXTlcVzMYrxmo++vrHveryPXWXMnY+wIh+muiJw42KhqgHKdhI6KglIP5eQx9ytHknMZ+vRaLHVCEZipwf3Kbo9hSRfEWplJo9rz4vH99nrwQj8+GuoXYo4QpxOi/t+Lp9moVoHoVBbX5lOVAOrdcPFM6HE1PlNeMNB/v3n7xyrHOgs3Ogs2ugo7O3HS1A+nqO93a999WPTqvTl1X/ANqWoHnJkBq4hp/+q6r3quq7ilEohq6qq1fQ8qTvG/Xln9Vf3jv70bGLrx8d6NGxtvt7uvuOd/Uf7xzo7hhsbx9qax9qbx/sbBvs6Rjo6e7vPNbXcayv61hf14mBnqNXjjSON5XN7C1cirXcOoQuMNx7thJQ5lKtUdQSNNlhm3cMOy4K1ORwyVYuaKBNNlQ0S3XQeZJjrWZ4xmd2fGPASUuo2oAkgNboZK/CaRO1Yw1ng9OWefr1IbUgNaXrQdAlByYU+Cxw2at+K/GRe28mAn5w4300w2vMmAi2kPquiE1pMOELRZzY+hdg06pHRM+zUaOgx5fLppS+nhXASEAt0DHYFr9TGlqMV6T2Hulrv4iRtqYX1f1lchQk5QBJ8LxKakR5sySbFu553ZWihi+jNQflIyH9PV1phFA9bOgBQF/+PTvRqketqlm18I269OY3P4qnSkIPoq03W9nuFd9Ah6fS7Ai1hRLoRhuFrVV1/g5E3YFi6Lx8vGy6KrRQkjcfCi+EInMF4fn8+GIoMRsqTcUTU6XF0+XFM4mSe4mayZq68caGsZbG8dba8bq6sdqm4Yam4Ya6sdra8Zr60frGkcbkSGPDcEP9SH31aM3eieqKe3uKp0pL5kujc7HIXCQyF4nOhWP0ic+G47Ph2FwoOheNzBZHZkujFJs7OlsWnS2LTMcjC7Gc+wW5i6H4TEVH33EMBbrl/Zz4k5weeMQmhAMW2sNh0mWSp9hw3MVVJR4W8CKtH2ebTPKFMxI2n2POxRv6PcK3yyNdn4eWUBTNisZitAa0AziEoDUNWS+QnsZXz1i269g55BlPJhl6WNpop5DzXx4CbHYfJENSdgIIkwVKmOaFYXJJQ69L1wIHbbWzR57XvdyfHWvaR4EERRPM9rAHugc7y6fLw/fjxdMVbUNtn2C0gwlyc11bRqbWfJ4hv2tOzpDstRrBt8yhiJUPtFUgifmPjArfQ+vfIf1VraO4p6ZOq9NHB45EF6OJ6cSpL09hapscdBTEjqMNi/y38uV1pownm1igFAUBecFGS9BW6L58ovXbVxpGWxpv19eOVdXf3ls7uic5Wts03Ng8fKBmtLFspiyxEAvPFEVT0cRsSTSFSRIi8+F4Kh6fTYTmI6GFSHQ2EU8VR6fjiVnM1BGbTUSnE+WzleV3KvZN7Ksdr60fq6sfq63DT03DWG1ypK5ppK5xpJ7sDtHWsG60qXa0uXa0pW60BX0gh+vrJ5LNwwc6+8h5BG1LtvqfcZAxUjO1Ja7NEtET46L6iA8TebN5Ae1wKJK266IjpWZm3uJx3+zMIGTapHeAJllYO8rWju+HYXmKYaVvhx5cbCVtxhjsYDy6ZIxMW42S3H+zEKDVFiQ+SgfFrYx/MR8d9gsWGTA7oHZV84WEzSrBVt2He7kubvoHuY9Sst1T596umawpWgoXp0oPXznyhfr8nrr7QC2ZEMFmGRTlahLNWU2DhLy6oh4uY1SQh6sovJs8sWTSQVp79FhHqT19ScaYwZODH/iLUbfWMEvG2j1174w63TFwJDZfWHOnCr1hc/FVJuGMRt6MF3qr0Hy2+2o5lL5ckh0Sxoqj3AS/9jfKcFL55tevtw8d7h5s6+5r6+lt7+xtI8VLR/tgV9tg19Ghjrahrs7+E119r3b2nugZPNHZ39nV33ms/9jrl9587+yHuOS4j5wb2YCENdplZEDim5RkKrs5HjcfKgVMPBJCSWBrNfQohGCEflw9IklEezJTO9K6qFah6NEb8ctoaOzTjCwfpz7uv7r4C4vvC/F0Mt7aRDxHBxqjAbIodg0/3+ht+Fx/UZZ7F/2lp2Y++tm6hVz1whHgLmSkQdOYKFgEIEBpq4zjnlmN1cz5wku64Qdy/8TL/J7JL4NDSdyPQuvI/vz5gtyZvMO3jvyL+tcJdddwM7E0i+ho+oH23axFYT/yNbV6Xy3eU1NjGLr69qQav6dGp9QEuy/eRbuOybtq6h4afsxMqelJNXkPLT029MFII3fU7Vtq5Bt16WfqH/ePNIfv59cOV9EyLJrbINGbFjMtuGGUtuqCNOY63QRjn+YobBZj8YHEQ9yThxE5MJZIkixGGugvb7M9CRuWNBhrkyTZkyTpZw3xO09C8XYO5TpBjbZ5EIZm4mL4teZOQvo9DKnMIjSXZks7OknnOE1mgZznnUZSZvt6BIjLozXshrDpNKPVQUlMZ7HTsr0meuwbXDv/m8yKqc8w0dPD6f3GE7md0kMLrq7gP74JfumhgtcJtnoo9JtINjYDgfT7iC1KbwHOKS0IBMELYsgyms9RYz+bQ9xmlPKZ7kH924TH4Pebp8sUGL3l2uG8uaIcFdwzWfmv6pMxdW8efS8NkxtxG6NWI9GTTG/SiShaHe1XV8+pL89gkJC/nFb/9pn65C/qX8+p02cwfsjZ05Rt/bw6ewFTsJ89i1FEPvvsqT9nMDv7hX9Rf/6Z+u2hqz3VU8nocjHch8aJRqjAly7jhdQ0uaXEtOEW8DsWX5nJr7xNxEH1YMqwXJeWx/2Y2hxaJJ9sRXyrEj/GSCGJ3iGyLYnQOUXasQChQVURfvRDNOHhgzluq34klw1PwlVQG9c2+Wqitw3XeaMXEEZIsMzzhjr1y+bTNBI+r4+ZpVhOz81ZLwMOBBy0bzfqdeoH9C7j6aRu5c5CB/wyakz0b7+5NAK6i6EwwTMMuiGPgDoyon8n2cgWBDjMguln9JbQaj+FS8FK6C6SfkOzo2bce7lf0huM3js4Pf/xn39ScnePe1rR1wAAIABJREFUpbzAA7tmvOqP6pM+da1XXetTV8nGY3AQo4IMDarBATXQh3+vXFPXr6vrV3R0kaEv1Jenzn9wsv+N7r4Tnf3dXVe72gYOdw8e7eo/2t3f2TnQ3Y7WHd3d/Z09fZ3d/d1d/d0UbgmNTJ7u093Vf/zAUHvVRDIxvzc4E8qfDZdMl2I6m+IM9KlliAU27JKecZet2SQq0XpeLbJSX+JmwZJnEBx3MVqhRMrFn5ZnB/QWSehod0j/6CCRM5ucGM5yPO15xF2Wb5nJlxyPy0S9NcKq9regxDo+0b+gKRJXmDODsRiik8mlQcIqY3CrDLDoFdVjFrI8IUNQpQcJi9bXgnQhA6TfYzPmUg0zjvjqGz5gpkGYAUNPGrC91l21Nf1G7rolCHBX47ia5qXQfcG8QCTlsMCfHg22pDCbd1NfROFbGs5Hq/lqeOvym4n5RGDVLUtF/zf1vzbfaa6+3lA3ur9upDU53JQcaagdq68dq0+ONCaHk/WjmDO3cSSZHGlsHK1rGK1tGG3Yd7smMZWIzcbjkyWlqYrQVDSUCscXIomFSHw2EpuNYxBU7XQei5roqfHZxNN+UoniuZLYYixnIVi0VFQ+U7H/Vus7F17DcNL5yIEkaelKpiNabB5+z3knnv254HiUJQfvtp53mT7I8jWtGrYDpE1A6ZFCofqqHdzD2mQcz3Qn9AnbAidAFG9YiO5IT3xkjxnusTBp1jKqEh5VeH1bm6M8JwxPutx0SRM3CwsdQEkE01ZgzXFKql9Bm+Kb80tKExX9huIXnaQHLVMneq5Of2GAN3gQJLpgfL4/hDCwZvDh194odQgkfwTVjfmk+smx7YaAaTTd+dlgAj3AM4meeh2r8bZb+R9bHq4MvQTrXvtCdBx47eLJ8FRhYMVOTEXKUyU5Szm5q4Wh+UQ8VZZIFcdn4xE00YslUvHimQSb4sVn4/HZaGyuCEOLzMaic/Ho/Vgilagdr2261dI0sh+NN8Zr943soZGgHhOuY871htrx+vqxhobRxoaRRo4w9XR/G5NjjQ0j6BK5/3qy6xKlY99D65nYNKRPfmTK/1gcXtJOSiToUPRwh8JqGo0vlgeJhQNu8iHcp7MlgIsuG6xhJ2tvsho3jMd6ZKw2nkQshVkvHR3zjycA3PKaIulUJjLdzY0MiyfwHXwNj0+BSJF0zy1GjyiVLOV1oV0KgMDlyFCi4FF2MSblja+lYRzMa2oqROCYnZk18PcxFJnnf3ebH49n8jGDm3+TzDvLdnYg4Dce6+RQNc8vmH5dHvnKrkqhfpMlFyx3Dhpg/OTCTyomS11lBVZzvIe58NAtmovsv3Ggu7+7Y6CzYxB1L/Tp4MghmFu9v6t7oL1j8EjH4NGuga7Oga4jQ22vX3wDfdDLKDNvKfkd7KM4IRVkUlJBDo2cdp3NPzb0l81R+JIEGb0WmNRfethlBjNz9u3ULERhRO4EvVEucRFp4QRFUbPYiGyClOLYOvGCazsc39icQiO2302pP6LZCuksPNS8c5f1dSDc4OYqJkRfHMWbunipT2GPspm5fOsgNcxKMxUccYh8DZvic/UZ6V24pTHjnfoq07lpEsBBMfT1+it9C31bX/NOY51BiWV2HgSwdR6x2/XB4jJkzdx+69owy+6c7gZmS39jw2tpmIZ3aulMyWwbV9S8RzpUu69/REIIo1B/sv9Y3a2amvHGmvFk3WhT25UOjBzSaEKFcDJ1tvfgINe8h20/2K+smdJxFYCL+c0CAchD3jIBpWkRzEia+n3aMF6uiyauWBcU+/C9xojKtEvzJ6o0zIu64dtv4QWMPz6ACp4meuSRtIRtOIoJCGtGMj5VGdU1SOZa6GAg9F/8Yr4JYkZR1upQTB1sAP6kRVJTzzRQpNf2cD/fEMuEYjxTJ01cNeGZazf723RQzdymIKY49JuA4mVYfA/1se9QsAaR7IYzBDQ9DPBVXBvEDM9eR/S8aI1nG3xMG/nLxHQrU2K8AyO8xRBtNuS7/X6mb3GzYuOZt3Qd0dMikTZkyArI/Hqxwsm8JiQU55PFtG9PXU4i+SO5YzhsSJGx+vB/+nuKSF2u4+jgy2NeRYTHvDS8jUee+9+6e1B1TBWf+9ZbcQNdXF1QZhF+TrrY6S1Tgsw9BsPMfeY8+uYD9DdjUzfD915FrUPtlXEz//qMfVu8aQpovr/7ODzi915zmHdm9LX09byVBt5ckvmtzzGDmbl4XedKjyrr7rgO2EcvyHyGbG9zBNKNZ7b09/d1h21eHymeICAICAKCgCAgCAgCgoAgIAgIAoKAICAICAKCgCAgCAgCgoAgIAgIAoKAICAICAKCgCAgCAgCgoAgIAgIAoKAICAICAKCgCAgCAgCgoAgIAgIAoKAICAICAKCgCAgCAgCgoAgIAgIAoKAICAICAKCgCAgCAgCgoAgIAgIAoKAICAICAKCgCAgCAgCgoAgIAgIAoKAICAICAKCgCAgCAgCgoAgIAgIAoKAICAICAKCgCAgCAgCgoAgIAgIAoKAICAICAKCgCAgCAgCgoAgIAgIAoKAICAICAKCgCAgCAgCgoAgIAgIAoKAICAICAKCgCAgCAgCgoAgIAgIAoKAICAICAKCgCAgCAgCgoAgIAgIAoKAICAICAKCgCAgCAgCgoAgIAgIAoKAICAICAKCgCAgCAgCgoAgIAhkCQIWgPXYon7vATqbj6avzDxbb+tTLLD4w09Zd6G+Hk94bBlkpyAgCAgCgsBzImABuAAO3sUnYAu3LLBs/BAB86F1Z+BRh65EhrYAbACb6FpvA+1yLXBtcB382FxWG68yd6YHWGDb4AjXP2dbyuWCgCAgCDwWAU30msn5FCR6m8jXtpHx6d86gTs9DCB588XI8npc0HuQ2XEUscCx8UNEb8aC9G1xDxI9jymPLaXsFAQEAUFAEHgOBEitYoPFgj2RMcncyLzrBHrmc/8vPtIX3vFEPTw4dCvXp22U9M1goIcEmgjQTn6STeOKOe856iKXCgKCgCAgCDyKADO1pWVv5nqSuQ09EzX75G5O59uYE2mo4EmARfqcAIBHtK1HgvSQQVv+OGLhYOLSREAXbN284dHCym9BQBAQBASBjSNgRHLzjcysFS++9J3mfM+GAEnfvgIfaJXVtXC/h+MFXUX0bXQx5nIA24GACwEaVljgt0h3TysEvtS/8UrIFYKAICAICAJPRIAJPYPe1xH9uhEgYEEOSeG0FzXyeC7p3z0ieoev9WcA626Fwr7ngqeHCtTduzRyuHwXffITCysHBQFBQBAQBJ4BAaJlbWnDdjPM+iSsGy5HFkYZXVM5G+QwQfNYQEc9In1av/VHCDLg0SSe1szwInAAIEjKGxbw6SHPUAO5RBAQBAQBQeD7EbAsXAhlJbpZGWVW1tRPivgAQAFAAqAcoBKgAqAMoASgGCAOEKajuWRig/oZR+t/UGmD99eGlb6cr+neBWBlPqpu/IPfX1Q5IggIAoKAILBxBCy0kLFdXIt1ULNCy6qsgGfm9VAxQ1ReAz39r9WOtNSNtdYMJxtGmg9cP9Tddww6AA4ANBD1h5HrXcshfbtFPB4MoLrGti2U3NH03md0MtP3TTJpNw85abF/4xWSKwQBQUAQEATWI0AKFIt05Oy7ykuiWoXCR1HsLoEPz/278ql9sObCquOoXFhzch7ml6TK6scbDn77Svc3xz849xE0AdST1F9OvF9JIn8RQCEq8l07qBU7jl6OXV8WZHmzALD+iPwSBAQBQUAQeGYEWJGuNS2opCEO9lU46K7qQh5ADZy89Gp0OmYr21JgKYA1gBUr934wvBgKz8VLF/ZUparLhsv2jexpvl3feKsmOdpQN9544MoROAqwByCPjeldNLykVVyPTDBxSMHBBb/IbYr0+89cH7lQEBAEBAFB4LsIsCqFZXiHXFhZkcPEjDQcAaiDYxePxedioMBW4CoLkO7tvOXcyFykPFWZmCiNTcZLF0tKluKxVKh4Nh6aL3RWnYKlgqbhpnfPv4Nq/VymdhdcF2jTY908LhCgCic96ny3lLJHEBAEBAFB4JkRYHrlqDUUggb19Hw3Upm7aBdTBu9eeL8klQAF+FnBv7lrucUzZX+t/ubn6mcfXHj35MUTXQNdXQMd7b1tXX09+28eiC4W5azZRUvBhvGa9868h6u4uXRjHlt8+3pD8Ob7masiFwoCgoAgIAh8DwKWNpzUQjzZ4aAKJeA4Hrjo5BpC5XvXUEfdeHX9aP2+e9UFqfzCxcLiyfJDI0d+pf7pE/WH36nffKw+/pX69cfqtx+r3/+d+vv629VFs4GAgshs0bGB11B9X4jmNQGP/KqY6HEHjSz6z/cUUXYLAoKAICAIPCsCFLMADWAybqC1Ocj7LtrckLF7AUApLbGWATTBkZtHE9MlkaVo9F609VbL36r/+lP101+qX/+z+v2v1B/+Wf3up+rn/6/6u79Rf503nxOfL+66TEQfRvdYtrTh59ngOKi4YTt6kekzWkE2BQFBQBDYJAQyiJ753f+L6nnLQ5tI8oCl+AYe2AFwUDDfD69cayueLI4shYtnimtu1xy5frS9r6t94OSRgeNHh7o6hro6BzqbbzSFlkLx6ZLXLp+CajK3tz3LcjhMsYMm9q7DY4kme232s0m1k9sIAoKAICAIIAJGgP8OGnQgrbInedtCGZ8t6+vh4OCh0tmygsX8wqXC4unSkunyooV4/lI4tBCKzoUTqXhkPhJcySm5W/b+hY/Q2Qp19NqYk0x7kOjRpJLUOHz/zKnFd0okOwQBQUAQEAS2GAGLZHwXrTAtVNwfgfbettabzU2jydYbB5tvHth3u67qzr7a8eqG0drkSGNyOJkcTXb39UAdeV3hlcY9Cx20MNwNzhxoLZg0RWJeucVNKLcXBAQBQeBpELBtyhPiEXeXmYgIrMGvJKt5jpFQRjr9CnKbKiQ/WVbMsB8uGs+TO64JweDgKIKpTp6mDHKOICAICAKCwJYhwAodimmDPk7aYofXUXWYYlbCUOAzcoWybcfGRV3btWzOSEI2Nmxxw3obdNZCGd9EVduy4suNBQFBQBAQBJ4CARLMXcdxwQmAh9FsLFqy9U3jSfFPa62OBZ5jBwEsx7F5YPAsZH0W7v2lXyPGm++nKIWcIggIAoKAILAlCLguRSqmAGguuB4EaUGVmNs3mSG6Jnt81+JAxFQW1tkE0NJGE70/IUARn2cFQvVb0m5yU0FAEBAEnh6BDFscC1zHziF1jM/SJNVr0R5p3HYw0oFD0RUocFo6cpm5k0P6ezLmkQzhT98QcqYgIAgIAluFANEzMjmK3uT8RII8cbtFVjTaXJIj2IBlsYUm+t+SzsayMaEss7yN5pVBgBw0u2TxXiT6rWo5ua8gIAgIAk+FgF50tSngpDbB5wjHfDk62ZISRvO1Th9LtG5M9jF6JeYncVGHE7SQ5YMUEJ9OeKpiyEmCgCAgCAgCW4UAx8VxLXZ0SgeqMc8z/lWa2bWUzvK7T/Q4WlgYKdOzdJIptMUxl5hbybcgIAgIAoLAS0KAhXpWtWP8eps+ZGmpdfNM2Vqmpx9m0ZWM5HEPrdSiLWVa/NcXv6RayWMFAUFAEBAEHkEAqZpsZ9C7lTJD4U9mbp/oWY3PBjUcCRnj5nDYBb7aGOpolZAobx6BWX4KAoKAIPDiEXiUkVEkpw9xtOFtLBdt+yGQcQZAsr9lYt/rgYKEfcxX69tcvvhKyRMFAUFAEBAE0gisI3oW3Q2jp3UvvB+pX+v02X+WuZ6J3kU7Gw5yg1HNaAwgxU76UbIlCAgCgoAg8BIQ0BK6Ua4jx/vUT2oZYvt1uhukbzMGZOjqzS1Ilc/7M+cDL6Fu8khBQBAQBLIEASJZI1JjmfV2ehdusbZFr5c+qWY+S7N23SJBHENOso6es4gYrQsPAzrijX6wiYdj5H4yuORUJ1wkXRw/NM6TSvMyjqWBYzC5DOv2voxiyTMFAUFgtyJgmJbN1xkFYtC0UA0YHNizwfFQaQ42BQa2aR0VBwA0cif+139sC3MJBsl5lTQxPn+vH0HMmPEYAuRd608wv9IN9ZgL0wdf2paewbB1EA96XFAzR8ko2fasQUYBZVMQEAR2BAJG/nYB6ZnZVC+V2oCRI3GfY1loJ8PqEq62Y9keJvkj8rYpmg39oD8cogAjGeg77gionq4SnIGLAKHam2GQgNITIzNoCdE/HaZyliAgCDw/Akj2FqYAdFijQnfkPW4QPBdsB/+AGyAdC5rCE/2TUibokdiOEj9OAtjMHSmOed9w2vOXMmvukIaA7Yj8guOsicZLRJAnO/4x2RAEBAFBYOsQoGweaM+CJi0ZgQpsCwIOBFy0byHR1FsXWDitegewPROsxpjKM8sz229d0bfpnc3MxpflCQ3Kp4uevWwzyisW27QGUixBQBDYYQgYJb1WI3DQMSRsx0LNjLZnpJHAdsl23bIs12OVj2drrQ0vsfoWkJrodxhUT1cdBpI18mbAs8By8UMpFXkAoKnOY/T2T/cQOUsQEAQEgQ0gQIxtVhBR84KJm1CIdx0KN6kV8xQqsgCgiD4hgEL6FFD+bhuCjmccWTG3H5MdKSh2VxxhHv+MTZG/oO2CFdCDJM2OjEKLwTW/NtBqcqogIAgIAhtDgBQu7IyE1IRBIlEvTzRlJHyAPIAqgGaAFoAkbTQCNAJUYsxgTedaQrUpk5TrkN5/VymjmehJZk87CZABUg47EJghkPgedfi7ayDcWMeUswUBQWCTEMiQ6EkJ76IZpesCyfOkwkE6ygUoh/fPneru72zr62jv7+jsb+8Z6Ozu7zz1xY+gDiBBAn4O2e7guizexNaurLtPYrUJhxwz6QnSCgjRP48EBpH1vzapReU2goAgIAg8ggBzksfiu4OGN2h+gwKnza5OFuQD7IEPLnxQN1IfmYtF5uKRVKx4Nh6ficTno6Wp4prbe7t7u6EWIEwZQViuRxWOQ4ppQ2uPPHlH/sRFasqMEgYoA6ihTwnpu4KIsVGN4WKsXhbZkThIpQQBQWA7IcDmM56x/MMYMsjyvtbeIfpuhrbezvhCqb3kFc+V7btbXT9SVzteE59KFCwVBtaCldN7Pjj3YyjXKnu9hOuQHgjvtZv+WSTIN8P7n//Via9OvnXprQ8+/RAnPUWa6MnXDEO2CdHvpm4hdRUEXi4CmXxD27wD1Qps7R0CaILOK8cTs6XlqYq/Vz89rT7rVf1fqK/f/OrdlvFXcmcK45PFr108gQJsAfG6l+F/9XJr92KfTuY1AYhDV39P4l5x6WxJ2UzJnruVx3uPo3YrPeb5GO+yUfDFNoc8TRAQBAwCPtGzxphEegoCrO1nUCFTDz0XT0TvxcsnK9/+4lSv6ptX87Nq/hvV/zP1q9LpqthSovVGEl5BudXjWYGLuondttRIRO9AKTR9m8xRQVeB8xAKV/Jbr7VCKQHuMzySvg+9aQv5FgQEAUFgKxDgoJBasCS1jQu2BwEbAo5FvrA5qG5+//y7FXN7CpbCDTeaf69+f1vdWlWL02ryjDpXM1Hv3A+E58NtA21QDHQtsjzdbCuKvH3vyYowSED3QE8sFc1dhrwHTnwq0TNwEkpoHUQ7H9Oganxot299pGSCgCCwMxBgA0pSHPOKLDhodROk2GToK4sBykJoUlk/0ZAznx+bKj1y/egZ9W83Vf+YunlBnW8YTuatFrprgYbhJigDBwJBB+3qMewLegntIu0ET4oQrv1w/MrJ/d/WHxlu6eo9BvtpqcM4SGkPAxHod8YrJLUQBLICAVp59SwgryiHcz2RAQ5HMrPIELwcOge7ElMlRYvRyHxs70Tl4f7W36tf/1p9/O/Vf4ikir0HwbqRBijDoDisk7AxKNpuU97g4IYJzGMAxWR4U0q2pyFctGAx3sYoCJxMMSt6hxRSEBAE1sur3y+iff+Rl44hCdxEPR76tKLChdQ5LH7qvK42Go20Qvtgx97bNaH5qLfmFt3PT96oP3jlQM1EXXGqLHQ/2vztfjS8cVCYp9gImB52PUIvvbZbXwAcNl2w0JBJG1EipjorujFgdcW8cutbQp4gCGwSAiQLo22K7SCjGW787jKbVs1u0mM3/zZkUEnOnL6ixd/gp3mkwKmCD87/pOX6gYLlfFiF0HJhUaqgaLkwtBCunN7befE4LjkStwds28M4x86u8ow1DcMqHB9BHuZ5/NR/d934Z6CRb0EgKxHgxUxWVrgUpR2rwQuR+gXHHRmbWVlNXWhykYWDcOjbg9V39taN1TTfTjbcqj1wtbXn4nE4RCoLF6cEFOAexXqf7bK52lJ2QUAQ2O0IEJU5nKZDxwDTvM6/SJrXfqbZHojcpuRR7Pa5B6CC1NBlGCABVdJhOopxL0mQ38b6qt3eZ6X+goAgsBEEaJJu03JlLroLYcCAAEn06PCejuFOcd9tB1fhslrGtRyLgqpTmHrPtV3LSlsMYsgDcvMHGwMY8+CW1dXdSFeQcwUBQWCnIkDLlx45uJdSYJN9xPXIbq6FiSYo2K9W3OyI2C+klbJxtRWr5mAOWQRBhzDDLN64w3IcS9Q2O7XXS70Egd2GAArt+QC18O++/KvXv3n13c9+hOF881Cot9HtiNJ38OIccmOWa63NKiPlCg+w9X0gECCudx0rQOHsLSfASVO1Ec9u6xJSX0FAENhZCJDZDZRC+2BXWaqibDLefKv2vQvvINdjlHYyQPHXYXFjJygybNTbYAZUx/L8VWfaZaNXLUr0FLYSTTN3n3nlzurgUhtBQBAgBCyM4ts43Gotu7mr7t7Z0mNfdWG0wjxM4oEKeeMPuTPwIlUU0NQEUweyUM/Rz2ykdztgozaHVig469ROGNt2RttJLQQBQeBZELDA8qwgxKGj71g8VVKwnLv3bvlPzr2PschzyKgyg+iZ/XYC7WFNiNUpDyrajuJkhRaftWEpg0k2lrhH/gkCgoAgkLUIkAdoAKIY26Rn8MT+b1tP9vVANRkasu2Nr9pgGTfbzSt9Px/Uz+h1V2w9/ZPzzRr5HmMhiOomazu3FFwQEAQYAYzbBR6q4sOA4QnL6W8eRWNnjQ2SHibgIMPKrI/9wpOS9IKyWX6gb1565ZQa6PGvJX3pK4KAICAIZDkCJkAj0zql5HPJL5S0GST2Ist7LppassV5FitvaO3ZcnF4Sy89GLZHDQ6Zk+Lg5u/M8vaV4gsCgoAgQAhoVvO1NLyBcn6ADMwtNqvUu7MZNF5x8Fk+PUPxed1scBQEUdxkc2tL2QUBQcAggKaGht3IEdbCwIUY7BcNEMmxiJXZeBb9N1dm5zfXlavi4JqsCYVmQMA6kvZebG6ys4Wl1IKAIPBdBCyMSus6rJt2bSD1jeF0Ij2TcXvH2FniyMWReDPDzbO4r6c3hBMOdTthcPtuo8seQUAQ2F0IkMqddNPI8kT0roVUqBcjWW2NUu7OIHo0sHEw3jp+9LosYYDVo8oi15MOn3OEbzfzSn/qkR6DdBuajstNx0ajZp98CwKCgCDAvJ7+m4mIYRb+zjySrdssvD+y6GCqqSv12HNeeoX9tQMaiakGeibClq9UCfLyRVupXZn49qW3kRRAEBAEBIHnQgCjiJL5EymdaI7lEz1K+Jr6LWb5LA81+lxIycWCgCAgCGQxAhQ+GRcZsA7E7ahd0qahpHNi/6+0aieLKytFFwQEAUFg9yHAkTZxeUEvHmgNlL+CgtobOokGgt0HkNRYEBAEBIGsRiC9cMBxR9EuyMJMMR5aw2IMuoz1Zab7rK6vFF4QEAQEgV2HQJrobYpT4VFymACagZJET6lh0O8X/wnR77r+IRUWBASBnYEALbC66PwQIHNYG6MtG3W8GQiQ47UJ1c6otdRCEBAEBIFdhACtvnpgexiDyCHXLyR6Y2mJSFDA5Uds63cRQlJVQUAQEASyHAELMA8WSfEUqcG2UKbn8HOW5WI2RPIHsx1Hq3CyvMJSfEFAEBAEdhUCFi2+ZkjvjhtIG1aihWXAcoKcKRFzqTjuroJHKisICAKCwI5AAF2mXNvhPOY6UoVWx+tQdA46xbLanqM57Ih6SyUEAUFAENg1CLCZPLi2E0RtfBAwQVgJQAVAJf0tBsgnk5wAGd7sGmCkooKAICAI7BQETMQDQC2ODUWYBrK995WWm831ow0Nw63HL78ONYD7ORmkuE3tlJaXeggCgsCuQYBjr5E9JbrGFkNnb2fpYqn3wIU18FROyVTla1+9hYl/C8kWZ9cAIxUVBAQBQWCnIGBZjutxvANUzZfBgVuvuEvBgHJgDRxl5yznxabKOi8fR32O/BMEBAFBQBDINgTIuBITY4FnY8QDKIPDw205D/KtVQsU4GcNQHnJ2/uhHI/LP0FAEBAEBIFsQ8BC40rHcimdrwNx6L7YWZIqsZdzQTnM9daakxxpgfJsq5qUVxAQBAQBQYARsCjdoYUhbWwIARyEowOvlMzusR/mgAJLQXA5p/XaQTTCEZleOo0gIAgIAlmJAK/HOhZmfgyQgU0NtF05mkglgqtezlogNlN8bOhVKM7KykmhBQFBQBDY7QjYNiredQpzB+3lXYsMbA5A1+XO1m+bWq83d/R1w0GAiMjzu723SP0FAUEgKxGgoDaOgxlitYklbniAOpwE+UyVos0lelHRGCDrsVnZzFJoQUAQ2MUIoLsULcNaAcfhHxjBEknfJVUOrtVyKEu0zJGksbu4r0jVBQFBIEsRsGzHQ6sbG8mcbW9YY29DwIMCgIDr5SDxW+BaZKCTpRWVYgsCgoAgsHsRwGyBqLdBcR7D3TiUZARsnVMwABbGM3NY3hct/e7tKFJzQUAQyGYEONoNKmh06hFW3ZDGxqassZxAljU42VxTKbsgIAgIArsUASJ6ygXuWJxFEHX0HBUBval4IKCg9SLR79I+ItUWBASB7EbAAswg6NpAIRA4y5Ref6WKsVqHdDticpOT0Yh5AAAgAElEQVTdTS2lFwQEgV2JAEvrSPRsYYlJpUBrashT1qhxDN3vSpSk0oKAICAIZDECSPRkXmmjUSWx+Xqi9yw0qjf0z/qbLK6vFF0QEAQEgV2JgBHWyXfKwuVXo5+3LQyJQAlHMhX1uxIlqbQgIAgIAlmLANM8/mVR3qSNRfHeAVycdXhBNq3Jydq6bmbBfdwee1NazXjyKY+9TnYKAoKAILAFCLCoromeVDPpLCQ2sj8lBLeJ8jlD+BYUIgtvSWZKGRanPqtTMFBa8SAgLXQ4llXsLGxhKbIgsLMQ0DRkCMl8Zxra+DS2s2r+HLUxiNA4yHGCcJcOEuHYtmvzbMi2OXDcczxLLhUEBAFBQBB4GQigKksbLRk7JRd3ORYpu1iMtzGCBFi247yMIsozBQFBQBAQBJ4HAV6zQOWNS+E+PdqgJQ5WfiG340hgex7rv57naXKtICAICAKCwAtHgBReNlgO+pt55FOMkT4BwHHZUhUjBJEyh9Y6RFH/wptIHigICAKCwHMh4EvtxOX8i9g+j3J0FVH2lkKAPBT0LS8gK7LPBbdcLAgIAoLAi0dAr7Tyg5nngWi9GiAJ0AzQSBt7aKeI8y++heSJgoAgIAg8JwJptwJ2OAhSUq698Pb5tzv6Ozr723sG2471H/7o/JtQQVwvy7HPibhcLggIAoLAC0YgbZOK4rwNYYBW6Bzqrr1bE5+JxWYTkVQ0nCpqutNw6vy7UMVy/QsuozxOEBAEBAFB4DkQYIN5NKYMkFK+Ho5cay+eKgnPFUZnQvvu1VZOVQeWciNz8a4rx1CZU/gcD5NLBQFBQBAQBF48Ai4F/HQtC4oADsCRoSPRVKzgYV75ZLTr+pE/qU/+p/qkYqImNlPaPSRE/+LbR54oCAgCgsBzI2ChVaWNivcEHLvcE59JOCrgLnvJiX3/oP7bV+qrP6nTNXebo1NlR3s7oEUk+udGXG4gCAgCgsCLRsC27AAZTVbAwRsHvQc5oIIFS4n/ov7zP6r//jP1Pw5fORxOFRcvVLUP9kATqXdedBHleYKAICAICALPg0CMzGyKAGogeaMxb7UQVgP5y4nmWy1HrhysG67ek6osmA3tmah+58t3Ya8sxj4P1nKtICAICAIvBYEmMpZPAhyBw9cPFE+VBFfzrVUvtFQUmQ0VzBVGF+MlUyXd33ZqlhfzypfSTPJQQUAQEASeGYH2gVe7hk60XT7Yc+0IvAX7vz1YN1xfP9FQN1rbdLu58Vbz/qsHj/Ufg/0o+FNMhEeigj4autiEw3zmEsmFgsDzIICRVykq+SM9U/dbP545PeORc57nuXKtILCNEUikKsJT8cRioupu1dH+TmgDqAfYA+geVQZQClCC67QQwohn9JK4GCGB3hqKfWPeKYxzjP9N3pfM6NDbuP5StB2FAEXfA8cD16WgrNxRyaHbBXBtx7Ep15yLteYkdBvkel+Q+b4NvnPGg3cUwFKZbEVg1XFVABQUzUa6Bk5iwIMiil9J/d9BgxwTGIH2WEDxi9NET4b4mOmFO74meq3g2eBLlK0YSrm3CwJI9BYSvYPCCMsduhO6YAfAQmtipHzkeYs67caL7vfqR7h+/Z30+7B+p/wSBF4SAgqAPuH5SPfACbSrKcBA9EzvmuP5hclMqU69WHfl9FGOdpk5MvjvxEuqnTx2dyGg1Ta6q1J8DwrtYWGuNMsyXdPGrWdiYhoc/Bvx+8F/9bjBM1oO+S2p7HZX79vWtTVEH12MdfcfQ71NHhE90zcXnV+JR/7S1BeJ/JH9aW7nXL3p39saBynczkCAkqPpbqmJ3nIxCjeSvJHxzQiw8b7pE72FUwfd9c1OPY5wek6dpnpnoCq1yHoEDNHH54u7+shSPkwUTi8F9WQ/vTp3Xawx9WzHovj1rOlkUsfcVGY2QGlMArwj61GSCmQDAiycMM8S1+MqkmVY3nPYmoB6tgWu61Hn3BjZf1eq8fdohPzfvJENuEkZdz4C8dlI6VJJNBWpG657//yHuAxbpMlZi0X4qrgUCidI61g8LXYMj+PbkpmeComeXzXU5svkded3oe1TQxZJWHgncRs1KJTgnnprDkA+OYK44HhMww7LM09fBR5LHkPmj+zStj+Z6s6nf4icKQhsNgI9/Z3tl452D3Z+9NWHUE4RDvhFSb8ulk0LXABE9DQ1Ji6nCbGlFZSmXPST9z2DvGTuIt+CwDMi4BMuUrjnQCAADkoeEcDuXQNQSZ0cc6ptTJbniayNYo1NpmY43dX//Idq4YgV9eYVMmfJtyDw8hDgvCJJwBDEubhE5dkelsZMgH0RhlJM+TY4pKrhRSkj+SOxWw59cKUr48KXVzt58m5DgDkXJWmLiB4zHWN+tDp474u/OnHpzXfPfYhcn0/dOU3VTwsTKS1RHeQr6LUmSOvrWcbxbYxFon9aYOW8LUbATxaYi0RN9O5a4GC/Jb2LTTkG9U82TEMJySYrNd3JsdfzO4O2l0T34JCVwxYXXm4vCKxHwIjUDtg846TDxdDV31U6VR6bLa4da3zn3HtGrNHpkdff44m/aCCxXdJQOqj5wTUAyzUGPWaC6w8ET7yZHBQEXhQCLJ2QCYHppGQbZqR120FdO6rhHVLekFYzAI5tW5BLCv0i0nuy5TzegocI13UlWsKLakR5DiGQnkRaLhI9allIFimH1ptN3kPPUk58ruS1S69DLQr1Gxfo8W6WSxNWdL0C13E8B3/zh8R8UxSeW0jTCALbAgHfCiytZ7SB3xPLshzUwQeQ4UnhaOHKLK3D2qixrwK0u28i1Se9Ni6pdvLcQtv40T7Ty7QtgJFCZB0C/mIsydcOEz3ycQJ6Bjtis9HgSm7F1J6Pzn6ALt95ZI6zsUqSiRnPFWgM4aGF1ZyskjfSknT8jSErZ28xAtxJWfDRMohxMUGSx+6cZwexEAUkv0coIkIpQAO8deGd9r7utv7ut8+9i3rPPJT6XbA9yHEggKr+DRs1bHFl5fY7GgHfEFj3O9KfYCcuAtgP3QPdB28dOt53HJdkQ7gitXEyxic4bhAlIbBty3YdmutmKG78WYUI9Du6r2Vd5Ux/9F8SF/XvSP+W7dmotqHXJZcC4OwHOAo9l17df6N17/ie8umKkvmySCqcvN343tlTGN6yACzLCUC+Azn4Fol1Zdb1h2wusN+HM9ZAST3jAkQB4hS4qZREFmJ5D7v3xv759jZI6Ejy+M9xaU0rPSfWa1cbH0g2Vhg5WxB4WgT8zklKeBRUPOJnFOXRgJ7k9BgqZ9678M6RoSM1w03Fs1XBlSCsgacC8BBsZcWmI69feg0FJcwo6ziQ60Iu9vKMF+5pCyTnCQLPigD3ON3pUF/OO/B2lEbN9piaUXTBIE5sZ7CBpzk0SBSSsWYBQA69HewliCMGq22I/f33agN3l1MFgS1DgCNQEqlr4YZVjdhpOV14FUAbvHLllX23q4oXigseRq3lgLUCAWXDQ3CVBytQNlX+4fmPMNplLnZ32wrieJF+y7as9HJjQWAdAizT6zg2Frg0JdW2kK7nERXTcirq2dltat31P/AjH6Ca8jfUAc5fS2iikEfCkWXZ4LkQcCHA82Ds/xudL/zA4+WwIPCsCLBdsI2+r2QkQ9pGLZ0UoiD/zufvNQw3JhYTeQ9zrVWbI6DZCtwVCC57ocVQyXTpK1ePYpCcMJnloGbfRSWmdPRnbRS57lkRYHWhVqSsI3qW8x0bJ5ykYdfyt5FHvpeTPVLoJyhqdz288fWbHYOdJ/pOvPX1Wx+e/Qi7fYSnwLaDLB90IeCQibH0/2dtxGe5TjdfxkQqY1M3xZMJ6clHn6VM2+saInVyLUFzSDaUx5fCsiABr/W+WjVVWbRY5K0E7TXPUQFYtW0Kj5O7apXMRFtuJN/5+h3d3TmwDfpMuWRvhvjKP0HgxSKQ+cKyNXvG8/Egn8B906J5K8ZD8LWMdBiPUux6YvlWONZ/ouXWwaqJ2tKpPfFUaTxVHJuOl89UdPR3oAEPikcY+olke7S7RPVNZkEyiiCbz4OAcVVL34Nh1s3nK8+03RU3qzZ+NQZR3MJ8J/pLbWWOpu+8s7aI1DEnA+Zq0ESPRgu2BWXQPnI0ZyFgr9igbFAOrNquCuQ8yInOFDVMVHf1tcMhMrKMUg9HYOiV4Qw/9GNngSW12WEI6DQk+iVPUzP6QOEUtxBgH3QP9ZROlufOFeQvF4Vn4sWpsuhsovB+yFl16sdqoZznBiwmodqf7yZEvxV9JaOJNNuQkw9GJyWR1SyUGKL3SZ101Jr38VyUAXRQa0NbfHQrSr0d7qn7OJnZkD2kjkDpYGyQtt724tmS/NVCa82BNUCuX/OiM+XH+1+DFso/FaKXIYj48kIuKoAYXZzAotHOdqillEEQeDwCJPSzOyB2Vf062J6Vi2ute+H9b97bN1oVn4/umS2vGa1qu3aoq7f9/1b/tXVkf+F8XnK0GsowiCt1elzesmiNVyT6x6P93HuRWpjs8csDCFoQdDCoEXrk4+35DGT+AH30bn7yejLSN/IPrT/63GXdXjfgOQ+Pb4SSNhlji7TD0NHf3Xp9f+NIY3K0sXE02TDa2tn/qtbIoxlmDgJPYBqRxid618ZXQN9ve9VaSiMIZCDARK/pmn84ADE0Q2gZbo7NhWNTocNDB36pfv5v6l/+oH7/U/WzppsthXMFzWP1UE4EYxiIo3ZrytGBQTKeJJvPhwBzM7G5jplr4eq3RwaCRDWavR0yigqyDpnO17zEzzccT+M8NeDzlWvbX60lGDMQYpVpl+W6OF6GaQ2qnFLIlpMIX0YOU4U0WOJgmoOGa2ioZqQhoy2j4MZiSL/te8CuLqDFvZRjfKTzLQRINZ+EQ9cPFc0U5a8E993e8xd1+oYaualGL6gvW64fDC/H3IfBxrEmdBVc3/n5l9m7o8XEF955SOHCpJUpQZK1FYbZJaWEoSD8sb5p8KexujV3MVxvhN0XXqcX8kA/+U5anGEAcC0qaDtBBIYUYBz5AKNTogoeaZ1FeZfTcDKgbJuJ9+JorpyF54XURB4iCGwYAUvnQCZ9ANmKEUnk48rTqa9+VDFZkbeUV5oq7unr/lbdfKjUA7Xaq/r3jlRbD53I/fgrg224GMtBdXzmII4nThGW33CTPPECbi8dtkVL95kqdm4ConJ91IjumvHNNf60jdqb9pqVxScWIGsPkhqdR0DqlBoXpG3bCtqQa0GO42JWZR74KEuPbTmYgJkQdjwrx8G1XPpncGR7Zr1CkrXgSMF3PgLcY+kNoGggRBVRgHao/7Y2shQtmS49eenVz9Xnd9WEUg+VejioLjXeqSu8X9B0oxEOkyk9w8Syjr8qZUhn52P44mrIEGNrsYqMmQtJnERMtq5l3TyTT5rUjOBOA7Cm/bRc6i/Pvri6vNgnkQ6d4HqM8OF4kG/jmhSZS9JKE01ySaKn813bdcAJ4GIITpv8ewjRv9hmlKc9KwIZM1HaJM1vMbT3dZbOlRUtFtWP1H+mzkyoiWW1sKqWltT01+r8vttVkblIz1AXNKKvrIs2at/5J0T/HUg2YYdRsBiGoWUQM8TavD6rF2GZzVmhQ43BMnuGMLquicydN6GQ2/cWWpDHAhoceBthsnFFG7ty+hAjS+TOxsNpP3BdST4jk/y3b+2lZLsTAcMPZnkJv23MmlkKrcOvBOfySmdLuwY7htTAA3Vfra4uqvkhNfT22VOVM/tiqdKjfV2QRG2+djUkXaZmfPp6DPvvTqA3sdaGhjJ0LxxR3bZtjFzEH/aBoMEAI/GS3oIdHRyLnKJ9LstoozS9bWJ5t+OtfJjSnZXmoeznypytwTCn6tjz+IaYAPYIIY8XHBgzA8ntWGkp0+5FgIieV5yQIczPAJRBzVhT7oPCfbf3/kL9bFTdVKtKrapJNf2J+uzwUGdsrrx4suqdix9hIIRcCGByBv+jyYZlSOn9m9q9uImosdKKeA6dbpMDA2BOGM1OloWkjrzugUfO/57nUohdNhM0JMYlNMrpTS3vNroZuXdwyCdKo8yzGc6jQJIOGS5p65l1ip5MZHzMqGPr3s07t1FdpSiCwCMIUCd2bCIC0/VdKIea2435S0UHru//k/rDPXVbra6tKnVTjf+j+mXNnaQ7V7D3dgM06NDcJNE4lKHHiJSkNJY1qkfQfs6fpDfGkLo8JhtlMbUbN55WzNuWHQAK68LCJsZOtwLsumzbOWSNkx4ozBhv7vecpdyml6NngUOR/NB0wDA54ZOxxOGbMvGQak5jrue/JNP7hK9rKwLNNm12KZZBAA05bAxQ45k5qwXlsHekJn+5oHG4/tfqlxNqbEWtzqmly2qw7Wpn8XxZ4YNo040DGMUPbM9FSwTOaIXd3Yg39KbgL/m3WQiQM1qA7EEIZ60YJqTZQaqALMIL9QBs257FQUppDuBang0BCrmoY7RoaqdG4pFi57YX+Znp6lEfZSqn9LFpPqdkPDqUh9FoZvRoVNuYkw3hU1OITLNZnVzusyUIcJcnC2KywmbuqID6243WihVZLjp67fBVdW1B3R9Ttz9Vp6tH9+XMB+Iz8fa+dqjUOarYdYeWqSiMCL8Z5v3YknLv0pvqoHUaYKIcj1Tw6JcfopCijYALJ1XE9egmwfGHkLQcC331bQr3opXNGaOxSQa5U5Hlns61o0HN1B0zxeIAgCdgAmTjUsx2TCTF62N0sVHRm2kAXYl6oZ07Ru7ULrEb60Ud1RfqSuDw4JHIcsRetvbeq/pEfTqorvaq3h+f+3DPdFlkuSh5qwHaybDSsDm7hZOLJtoiZ4qKuxHOraqzj6zGmGicRuhCzIz0/vkPe/p62nuPnvrmbfTeLzZJrVGRg5c4YAXtIEmxRiA1FJUOfLNVhX+59yUeZuPIjA6qF1kpL6D246YZLmVEZvbHUQDFeFqqxUsp8wKucXsYH83o0YTnX277ytOfjIAWDpHjfbdKlA0Pw/6bB4sWoqH52IFrh3+hfvF79Zu3vn61crKk8l7ZGxfeRJmxkJwJeS7LEhEa4PgBus0g8OQCyNGnRoCFSGQUGpId5JkAzsbyAerg1OenWoabiyfjJQuxxFS0emLf8b4TuFpeiIngMUEGETy7xdGKLbUZEz1q7NnS/qlLk2Unfh/Rowjvemgjr8Vyntro8Y/F/AyiZ2HIAccFz0ONJ3V3M1pmGSZS3F2CAAuI2EtxKx2sKQdjfnzw+Y+rbteEFqOlM2U1o/v+D/WfD15viafCdeM10Ey6YBRmPFrhypy4pl15aL1vl0D5bNXUDaBHW76HGR/p2ygKSJJkkRzXCzXRew5GLrNxYG6CzoGOxGSiYKUgfy6v8H5BYM0rmSx5+/O3MVdMTGvt2afWReIi4st4MNmRm/3PVpvtf5XBdn1/pYBAPldnYOJXCPf5+2kDGyadr0rEeR8q2dieCHCvRbbQAg1SgE250qqgo6+9YrosshTOW8yJLYYL5/JzHgaT442wjzS/KL8HsL9jP2eVJr9BaMvA78X2rPS2KZVNuYoC6bkUg0+2H7QTAyOieSQ4Ntqwcmwija1PTZj8PQmdA13xVGnhfKxp9EDjcEvhfFH+g7yye2Xtgx1oHxXBR2UQEraX7eFYjUkJLMfFEVui7W6briEFEQQ2EwF69Xk+irfVTEAkUwSwH9ovHameqIrPxaJzkcRconSyrPNyFyYRBHAddBq3HfKXepToXRZWM5hlM0u9U+7FrqyoENbaYyZ6+uHaHOec7OAtJHc/aBkbTaaJvhCJvnuoJzwTL53b+1P1y1+p3x28ub9kKp63nFs5X3ni4gn0YS4hHQ6ZijsBUlXQaMy6Nwp0LES/U3qW1EMQyECAtb4mbCXzB4viHDAlBFAJH33+XldfR1tf18n+N0+dfw+NOgpIpYvKHvzHV2QwO96IyUuIPgPtx20ydj5na12OHnEtnC1ZDgZYgaAbQOGbqZkGBh4bcFchQCN09LdHFyJVE1Vn1Rc31PAF9dkbF48l7sWDSznlc2X7bx6ADjLLCRkthA1WwJha8VDPueMfV0zZJwgIAtmLABM92w2TjaUfCotI34YAhnqqRB6BJoBazMbDuZFtQwqug+Fbma94pGAWYuoQov+BzrGO2Q2LM+8zpjSQOijQ0z+9E70fSAanU0mi7xzois6H68fr+9XVJfVgXN38Qp3pvN4ZnUzkLAcKZgsab+5/86tT2JTl1KZV9LeUrKdycREdpxXmOT9QbDksCAgC2YaAZXHmCiIRwySsZqeEgvlkox2miT+F+EONPpG7i/FV0peZKQE65ZN1stDGD/QFAxC6Irj4oQUPdkyw0KTGY+7l5L4u382mrNScXiqA8nkIVTcdfT3xueKGsaZ+de2BWruvFkbUrc/Uhe6+VxOpeN5aMLQYKZ4srx6rbRhOJkdaGkaT1aN7u690oCFmES0WmNL8QKHlsCAgCGQXAkzrFAiFWMSI9TbHMtQLrVpgp0ghrnbB1946Dl7BrE+UT4I824oY2s8uRF5saYlaOXNvjgcBz5hl2y5aebC3E+LqEheHyVaykMbdIlSg4aeIJPRDcPR6RygVrR1u6FWDq0optbakFkfUxDn1ZWdvR/V4VWWqPDYTK54tTcyUJVIVhXORoPIi00WvXnwVLXMKZSn2xba9PE0QeDEIsNqAVL1kQ02sw5bwHpnN4FzeQ1s8R8vwLKmTeR+msLNxP57kkIUaMT0dJLMRNtcUKfEJjckt4JIzZtBFs2ytNCehHbVjtFLqQS45u7aQ12vS/G0klVojwCGA16H+dnXufE79aP2g6l9ZfaDW1Oraw/vq/rSavqFunFNn3/z8ZM9ge09f17H+E+29x1tuHS6aLSpShbGZ4u6+Y5AQzc0TWkoOCQJZi0CmfphFe7bUpsA15BtIgwBxDTlSukRDniZ6HhIch0N0G1GeJH1cPcSxw19kzFqMtrzgerS1KDIBgkdAomLMJl1ZhHKXVsPbF0519Xd3DXR2DXR0DXR2DnS1D3a3D+Keo1cP1I1Vls/Ei+YLDt46eEUNKLWiVlZX1cqCmptU9ybU3avq6p/Vv/5a/dNv1K9+q377S/X7/6Z+umeyKrgUtFSgbjwJZThtkGF5yxtcHiAIvAwE6NUmWZxVLSSc60SYxviDvomAaGmQ1TrMSFhkGh5Ih6PHBJQNtbrnZVQpi56JNE/qMhwSMfW00Z25pJbZC3AEjvQdrR2tLZ+tiMxEimcSJTPxxGw4OhcKkd9ydC4WnQ8VLeVEFgtLJsu7L5+4qW6qtdW1lbVZNden+s+qs5+pM39Uf/qN+vhj9Uv6++uP1e//h/r5v1d/HU8lvNX8mpEmKAexo8+iniNFFQQ2hIAmeuOpoyV7zrejWcckSaZzMI0m7c90FbRcFEhJy0MiKcqGfKcNlWX3nczyPDpEcd1dD4ELki5+D7z/1QeN15ui92M5qzkFCwXls+V1Y3VNw8nG0Zr68era8brasYb60YaG0bqGkX2NN2sP3Tz8C/XPvar3rro7qsa/UZdOff5e50B3x0BX15XunmvH2nrbuvs7uvu7jg+ePHTlaNXovniquGA53HrrIJSAh2vyItPvvl4oNd7ZCPiqGy19I6GT1h2JHF0l6bVHeZ0CPbEy3sGVQVp95ctJQeM6EMTUVLQKm7agF9L4oQ5kAaYhRb8pWv6mIPIB1si/9/n7NaONBYsRZzWQP1/QdLPxzQtvXFBfD6hr/WpgQPVfUUNX1ZUramBI9Q6qi1+oz35HMvtf1J//pP7tZ+qfXhlqr7qzL5qKR1KJyFwilIrGF+KJuQhOCGbCkaVY7sOi3OXC6Eyke7AdirEY0mI/1GJyXBDINgSIqVHyxvebdAcc8pYUxZicyLz2qKth2xrSHOvEDWyET+uzQQvt7T0eMITon74jODq6GF6Bw6qF8yKIAxyF5pEDufOhvLVw6VTloauHf69+06suT6v5FVTAr63hYium/VJr6qG6P6XuDKjL751/B13bLrcduvpKw72WxEx50UIoMhetul3dON5SN9JQP1qXHKtpGNlXO1JTN57cN9rQeKPl+NVuOEDuEU9fbjlTEBAEsgcBXnwlsvFXY43Khb6J6o12HrnIWNmwwTcZ0wcAWT6o41aSCQ4JqbR+mz1YvJSS4girMx6RPO2RuWQSkjeSwcV8R+WWTe39nfqfV9XVMTWSUtMP1IM15HYievxGrk+pxUuq950v3q2/01Q0Fw3djxQsFeUuhMILxZWpysNDh9CZuYKsMPfQRgXZ8PCeEhpXQhQJx7g6vxQo5KGCgCCwRQiQCLneNkZL8YbuUUhnX3ssgiF6IiUzEvhRL/XcgJdztc2lKAOe1HSWa3sWTpZImmftfCl8dP7d8tmygAqGp+Kdfceuqxsraw9JgF/DVda11dW11VVFHyL6eyr1qTrTeaUnvFAMS4GyufJ949X1w00Hrr3SdbELjS8LcZJm0eQNR21sORdI25bj5DoUlw7zy4ry5kmNJccEgWxGgNQ2LFVqFQ5awbMyh2V5Tes2JikiMjAuUnRaOuSKvsiMC35AzGxGZ2vLblC2IZDj4TiZD1ADJy+ejE2GS2bib1/+0UV1cUpNK6VWV9kLCl2hVtXqisIsvmvoF6Um1eRZdbattz0+X1Jxbw8cxCQkmOixgkwzIzjmYgJCyhvuYjxqGs0tCHiYBlJTP1r9aD/cra203J3fr8fi4AtY9G6R1UMezfLYQY4UpNhi+h+f/ojhQ8Y9zHnyvcsRMMStSdwQjyH6DBKnLHSOo73v2VXKCPgUI0X3ubRYyFnYdjnAT64+rn2QVSUCjq8vBRzu6u8pTkUb7lafUZ9OqXsP1PIa62tWmNrVqlpLE71SU+reWXWmq78rmoo1jiWhEm/lZhjQUGZwUtA5lk2ZkRyTPY8j0OtpHA8ATy7y5h3VD/0OLZnCbN6TttudWGOqR1s0YLB4EHbYZM3CRrEt17FoXb6a4ky1UsseiNgAAAcUSURBVKipUvKKDoDtWjRDQ00qRcbHJtd8jzN0cYnYbm3+8stDLxrpDqgs6ffOZ269X5vP02Bgzl9/Dldm57+om9horLQh7zTErRCgAbr7jhenYg0j1b3q0n21uKLu44IraWlIhsclWFqSXVnDdVk1pSbPqLNtfR3hVLhxrIEs4lk/owtqrKfw58vNJEVaIxrVMKwPrT+zFx73QtzD+2lrB/ckrCdWz0LzNu4EZOOg48oFKFNMHKAe3vziR11Xu4/2tx2/ePLDM/8LRqsoYOQsBxVweMU61GiYJ/w2sZ/KrQQBQeA5EMBYByjKo6uZTUTfiOHJimfjDbdqrqiBBw+WVpnojY0NaWvY3GZFqYdKrU6qyU/VZ239HaUPSmvGqjHLo7cthToOv19Ay8IVpFmKU5U5Uh4NR6xKYgp8sROM52jEZ7g0neYH10Z0WChKAUO/CpHiT/S+WjteXzZVGp4ORWajiZmymsnkyYtvQILHQ8IqDRgS/Lr1smcollwiCAgCW4AAz4gwpBDHeqZkLx1DPbG54saxxkF1mZQ0aGWzirFrSHWDinn6h6Y3yPWTauKMOnP82om8ybyqe1XQQiogzP2VVuZuQdk3fkuPFA8N0HGpu36kue5G04m+16GGLDtzUJInK1703vA/G39GtlzBUxjWhWL2BtfzAsjTubSu0gAnvjoZv5cIPgxElsKJhXh0PlY4H3IXclpGDkA5Ej1Nd7RLIwUbQW8XUq2SkJ8tOEg5BYGdjgDGp7RQtOOP53moo2+CtoGu8Gy8Zqz2svrqoVpEUl9TD9HShuwpmehZk4Pc/3BK3f1cfXn8m5PxmXhZquzNz9/GXI+5T1jye0nIFmAS82OXXk3MlsOK46jcyrtVH515F9eN8wkFmthw4dblZH1J5d3Cx5IFlEVZIrEPaOLOI7vXo5C8dTg+X5a7mlO4kF9/o6HtSuf/qf6vhuHGgvuhmtE6qKK8Pty+3HdwChekj7eFhZZbCwKCwDMhYIEVoAxSNO22UPvaAp0D3bH5+N67e0+rT8fV2LLCUJS0+qqJniV71Ncj6a/OqtlBdf3UZx/tndwXTUUOXD+AJpXhZyrQll5UDB39XZFUzH0YtJTrKq9kKv7apW4MiF+AuSlRlE+rIjjuz87U07OKHsNQW3YAMXdIh1UJb539KDnWnrMYhftu2UJJy43kL9XHf1Sf/Er9quNKe3gxUjNei5mA9ISABXtMJcwRUMlrMWMZfkubU24uCAgCT4UAJ/t2bcvyMOYzJQWsgZOXX4vPFJfcLfvg3IdX1bV5tbiGwjwvxKJ8z+p6lvTV2tqSuj+i7n6qLjTcaCyeT5TdKe/pP4a2lUEWk5+qKC/ipAqoH2/wVCBvoaBoMRR8GIxNhbv7D3NySmQqJnot3hrP6xdRshf9DK6o43qostKLM3vg3TM/ahhpKlyIB1RhZCr+6qXj59Tp6+rGVfXtX9Sfu/s7Y7Pxmlt1uB5LSjkeFMnYmda12X0dj+3M4fFFt5I8TxDYHAQcgBwLctiVCV/PXDSBf+fzD8omq0pmKzu/Pn5efXFH3VlZI6sbcpp6qNYeKPyN4v0aau5XUahfvqSudA12l02VRZZiyAZJEuq31Uy+HOpvNYbmwvuH9/+N+t+LZiMVCxXH+tswuyFJ9P5qIi1PE5vtUMay2FoZwHLI4gp1ds3QM9gRn41byoEVuyRV9g/q70+rv3yjLn6uvvyl+ufW6y2huXDydgtK9Daqe0y8WdxAyNKa+83pnnIXQUAQ2AwEMLeUZQf1O2rZKINHAfbDnonqooVo00jrz9TPz6tzQxi5bPCKutKvhnrVYB8FNRtS/VfVwFU8NHRZXf2j+uw/qv+USMW8B4HKVNW7n72HhJCzGcXcrHuUQ+NIMrIYbbre9B/U34Tm44nZso5LR3BMKkT1hcM6a9TUGxeNHUn0bA2ZFrwt7UDROdgeno+AAmfNLljKL5uqqBmvqx9N1o7XV0xWROYj3opXN1ZPqhtc22FbzMy7ZW5vVqvJfQQBQeC5EODX0nAaestwbth9UDte4624RYv5ZVPFDaN1zbeaG0ca68Yaa8ea6saSjaN1TSM1zcM1TSM19WO1dWMNdaOte+7UhhcKgyuWpSCRKn7tmzdwip//XAXc5IsroGa81l6zQ4v5oYUieyU/PFfWOdCBRF/ERM+h9Ijd08r6TS7Fy7+dT8daDLfJGikJHYNtoYUwKHBX7cBDz3uY467kOqsBZ9VzVz17zQEFteN1SPRsZ8NVMW4SmbfdkQPky285KYEg8AwImDhClLGRwtFQkAmogPqxWlBgK/DWIOdBIPgwCMoGZYHyQLnOGgRWIbgK7hqAAty/lmOtBWgb98RmY8d6j5tFzmco2dZcUgn7Jqr9QoIKFM2XdQwS0YeQumwU6o2b9aYS/f8HX+RwiL2p43oAAAAASUVORK5CYII=;" vertex="1" parent="1">
                    <mxGeometry x="10" y="20" width="383.67" height="287.75" as="geometry"/>
                </mxCell>
                <mxCell id="3" value="" style="shape=image;verticalLabelPosition=bottom;labelBackgroundColor=default;verticalAlign=top;aspect=fixed;imageAspect=0;image=data:image/png,iVBORw0KGgoAAAANSUhEUgAAAfgAAAF6CAIAAAB6Mt37AAAAAXNSR0IArs4c6QAAIABJREFUeAHsvfdzG8m2JphVAEh5GgAEvQdoJYreSq3ulmtz77tvZnYnNvaX/ZMmNmL25414E7E7E++9ua6N+vbtvm3kvSEJgkaiAb0DPeHO7jknK1mCKDWpVqvVUjIgKFGVVZX55cnvnDx5MkuIt/TPMAwhBFh/8XgcABL0BwBCCNM0ueqmaXLm3zoSAJBMJrnGiUSC62sBkHpKHX/zE89rHT7O3w6H47fefG9s+Q3D2IssKdlL0p+SK3VcHUlJcIafzJZy1a4/1aMZzOdJziuE2jCFMITpom/DEEeFCIiu3i5vxC2SwgCXSAgTHM6kwxlzOOMuI+kykmlm4qAJBwWYAkwj6TQwIQQII+kwkk5Om4k0R/yAkXQJcIqkYUKaSJhOcJgJIZJCgJm2fbhouezUvfeFFyvkFMKBpXgn/+wypCQpmUwyy79N7OByubiCcfoDgFgsxp2BSZ/TfNB+ZNcO8+YcTCaTQgjVUqrhOJHSk51O5zsp5r9gpRl51XcU47PlZLctOI8SLXsGdXBXueIL1bf9Wbvm3/WgelwikYjH4ymC8QsCJIRJ/Op0osEojghRJzr7e3JWvIe3D3uncismA4HJKv9YZf1kXWC0KhCuqpqq9Y9WV4xWB2bqAtM1VeNVNeGqyqnyiqkKf7gmMFHrD/v9YX9gAtMVE9WVk1UV4UBgsrpi1F8+UVG5WO5d8hyIHTqynlH1pEa0CpGF9XOYwuV4J4neMAzTNJUEKOJji55FQdn1v6govM6b27tBIpFQ3Y87gP3sbyLNRM+NldJ7ue3emgHZ6xSS/T5LQc0Xcp9SjGzvWcqmtktXSsOlPJ0vV3fjC/k+e/9mlcMF445vH7WnPPHV/TRM02kix7JlL9CirxZt/d3uZW/xfMnf4esg9PVCbz8E+2FgAEJB6A3CoyD0hWCgD/qHYHAYgsMQHID+fhjoh+EBGBmCoSEI9UPwEX4G+vDCvkHMM3Qf+r6Dy/8P/PecxZz8xbyLdy+KEiEOCSEMw2G8izTPlojD4VBMpyQvFovhSIesPxZBZTC+Ogl43Xcy6M9ekV3rzhaZUn4Kkzc5wVDarfVnyZ379tuntl+3GO32PEXTiu45wcKmJCcajap0jP5Y2Ha75VPHnE4nAMTj8RSuV3fbY0JdzndXxX7qYa/4h2EaLiGchnAcSDuI9z6GFn1bf0/2ck5gPBCERwCxBCSigL7UJEACtpOwlYTteGIb65XEmkMyDpBMAOB/iAXmi0N8G6J0YQIgloxtR2OJBVi7C30Xb/+udLq4Nhy4BldFhhAuJHphvJNEb29QZdiqkaY6+1qkQT3tl02ounAi5acid9Uf9th/ft1sqrQKOzubp6enq+M68QshYAdcWRIp0mWapsPhUAft3rY9lsouZqrR7QdfnCabFh3UXFo2C+wl32Mx9p/NcDjThOESplOYAmm3SnQPvOdezqmZrBmCPkjEkLyT9IUJpPYksn88lsRvJHUkeczAygD/owNJygnJGCSjkIgmAcIw9wV80zTU5p+q7B5oH4QgsrwDq20Iw2U630UfPVt5TqfTMAxFc8rJqETWQX/7b+A36wrDMFSNlNCrIrIJzP3wxR3mDTxr7/b2GnGaKeYlmEXdSidegIDibpP+UkTL5UJjUtGruo+6Sokljzif/d718pcjaHWVSqjy/JIJQxgOYTjRVe8QIkeIRtEw1Fg6X9YcbB6BAQwB2U4in3OsRBIS0Xg8HtuGrTmYn4HZOZhbgsVtiCaSyTgkkkkif+T/BFr6ySSqgUQsCdE1WAvCYNfA+xUT1U2DJy/BX0UmeWscJuk3w0Sr/t3+Y/5Sk0Js4zMkdp/Abx0kFnHuTlwXZn97xzNNU+HwBtL6s0VSRL+1taXOxmIxxTIp7PNbb8Q3qvxKcrhU/NN+UDnEVUKpBFURuwmiDnLCTso/xwxX9+Gb2LtAyhNf6U/DYTgNYRo0F4phfD7RMtRQtFBwYqjhEvwtDJNRiKE3Bi36aBJiZMDjzxVYeQC9/4Aff4Arj6A3Astk7SeQ2ePkvSGOl6OBJGzA5jTMXIarhY8rKpaqf3/rU1EoxBHUMgKHEg4HGvXv3p+SSJY/NV+kWAMAlKv3BYL4W0FOCToXWFVfCJGWlma3ufiUYsw3PME6aVfNpNo0JV72t9Jkv5VyKtGydxN1UCXsIsdV41P2q3atMl+osvHPXXO++KAqCWd76fu8+CkpZ9k1blBcI1Juoaiaqsheyewe6PkOfhiA0AzMTcPcDMxNwOgwDPXBSD88HoLBu3Dr7J3zLaHO1oGuj2//bgAGIrAUhS1J9AlUDWTPyw66DMuP4MH5W+eLFyrLx6tFgNxEaUTywnA50t/+0EqlvZ9tWnWE0UrhC20J2pcaqAkMuy58Vg0oDFXi2Tyv4YgqpCoGx+fYfTiq9ZWEpPRS9ZNzKq5RgsHHla2q8uuERgCFhGgW7WiHAz+GEAWiKlzjieR0D/R8Bp99D//4Ab6/Ate+ge//J/ylrberdrTRH66uGSsPTBXlLnozljM9G7nl4apPb//uETxchDl0z8eQ5uPo3U+w7wYS8TmY+Ar+fGKwtmK6uj3YIwqESKPgeZPseRxVON7ySHq7Jue0+lYdWC2Vsjvr32VhVeSlAGHqVATKkxlqHlslOEBC0etr4PTnPSIlTkMF9jFNP+tAsNO3XWZYDOwsr+YVUzTEs1e9yyKk644DZYPmQek/YZoiX/jHazPW3HWjdf8C/3dXX2t3sKM92NU80lk5Uls2V+VbLvSsej1Lx4qXcypnSotnSzI3vdmR3Jrh+s/gr0F4tAAzizA/C7OzMB+G6WmYm4O5ZZgLwt3OUEPlVEnTcJtopNh5k/SMKfWN/EFO+7ewabjv2Xspk7vdgZtitzKFJZNJ7s+c/y2EZg9VMgzD6XQqro/FYszgiURCOUZSOF1pAjv1P4+Lf9HjqmCqqPw4/sm8n0gklI3PDa3IWiWU8PARJTmcn79Vnj2AqrO8UwiQ8+aAC+1qgURfNVnniKVlb2W6l47lLGbkLLuz1nIzF/Iq5qpqn9Q3D7e19Xf0hE6dv3leVAlRL6pD9b6lwvyVEv9I4Av40zX44Ue4fAVu/ghXr8CN7+Haj3D1Blz/DP5YMpNfOld88dbv0Tt/0MboPLKgNbpvM/TcP5WJqjqwsuCY6JXFpwhCgWK/RB18uxMKNK4m/3yWlxVWfOpZq//ZS17zES4Sa51kMqkKbGd/dVC1aYp2V5yupEgdUbKhFIC6iU5oBHCxFE6F4gfj2L24LNa3kO9e8uTOe+vm/DXjgcpwzfGJ5p5HPaIFmR35vUqIIlro5BaiRdRONGSseLJX3McfV3X2N7f1tXeGTncGT7f3dbcOdHcPn+nq7TkxdMIX8dZMk3f+KDpt2KDHJlBE/xZzfUqPVb1R9U+me94SwM5TLKOGYahL3jWpdeBEPdohyly1eyp4hxM7vyu6VEOi18zp9selFEadsnM95+GFPEofqPhadYmShBQBsAtGipil5NQ/310ErI1usB8JIQ7jXjcXb/zu1IOzH9/7J1EhRD7O0AqfENk0fXpEiEyMlsGcLuL6EnHu5sW8hYKD8YOezUzvSqZvy3ts+dix5azstZysVW/GkseznJcXKSxeLmrvaxN5dCGtjrKI3UWB/GrG4O1tDRU/YxiGnQK4e3OXVg4KTqjFsXbD/+1FaE81s2vHXWFJYUk71Io3X0+CH63aVzlq+OlqSkYVRuXkOWe291O8T6znUkCwy4nSiHtCU2d6BxDA5agU1YheeiHEAfKeFwmk+DIidMpgCpFOs6e8vImjdFwm5T8mRLk4FTxdPlpeOV7hn6iomCj1T5bXzNaUjVbgzO1UfeVYTd1IQ/ujdnEctYXa0sYieidNy74b0ZXK5lJ9mwMoFWGl9FLuz7tO2b0D8olVdDgcag2BHRxGRuHJAKqffMn2Ni3gtmP92tNsqiv9bad+PhiLxeyGPE8jczHtvM/aiy+xDwjsFJ+SfkckRFfzxQiwy8SBC6bQd+N0piHZH0AHOi6RZZvdpC0SaMoU+R33xaFvIRy4wsnieh85c4rou5DGAXkYw4MDgjwhiq20B9WF9BYZuBoW2Z30BnuP3mayV2zFDKXCBDm8mptK8ZQ9otzObi9u0bf4rFJ4SiOmVNYOnYLaTpqvneHxgczUdr5WjP8sldszq2zKia+O2O+mhMdefcYqBR/9851FwMC9zDiu0SnMNHbe4H4ETL4mrVRlU59tb0szED+bDsOJJK087A4aFBBr000NJy+6pTVReFO6tYGKg/ckxt9M9IaB2xQ73+KVsaofqoSdd1gE1SmVeGdF8+dUXKGn/GPK/v0VfTj25n6FaXuNlAJQ4qSgYFuBf9q/Fc4qJye0baGQeTsSxNPsieFvNq9tlVMn+ZjMZdnh9oM7p/Couk4a6eq3VA6233STp6/m+75d38rO2nWLK3VQZXu7av/6aqM4S0Ux2YlVWc0pjm97nt9WWpn8anP/lEGPHZCUkSKf4m81qWvXCq+v2fSTNAJvBwL2TsVdkT3vqh+mZHg7av36a6E0JQfkKKe2om87M6qDv9GE8uekVEpZ9+y8EkIoHre3iJI9ddAuhM+eVdl0QiOgEdgFAe4zdg6yZ1I9ijOon/Y8Or1HBOxQK/pWxMeJFFpU2X6jCVU7AFD7rdvryBkYQCVjnOD5DLY52JZ/npTuEX+dTSPw7iKguJt7EceGc+9SG9jqDvbz5YNxftb5oPbCtHOiPf0bpXg7sytnlJqTUPa+WoXH1eTjKTJpd/iwKKoMP79d9B00Au8EAtxn7N8p1baf0h0sBZyX+Km0pkowqioSxp747bK8nbhZbyntpVjevnBMRe4re5+xVSs8FN1rIXwJqdOXaAQE9xwVz6B8pirxrB2qUdsvAgyy/ZvvoBbTKk63x6uog7+5hL0WymxXXK+mZ7leu2ZWAZoMlA4K2K/I6fwagVQEUqhcsY8yo5QaSL1S/34pBJQLghOmadoXzdoJ8TdH8fYC25029pGKndlVWukDe06+G2OsbHmVeCns9UUaAY2ARuDXQMBu6SvGV3TPCTsP2sn07U6zGlDBl3YTxG58KMWZ0no8o6sVQwos+qdGQCPwuhFQznoePzFxqxgV5n3luX67aX3X2tl9+mqImdJIdgXwbB5N9Clw6Z8aAY3Aa0XAzvL8YGXR2xPvpjnPvM/+HzW+YZ3HuNnfcKKMeiZ9Jvdn4X2trasfphHQCGgE7AiondyVh5q9Fkxw9vSuZu/belB58BmWFDTYeFcGu0owsMzy9rgdO+A6rRHQCGgEXhMCKdxkfypzt91xoazat5XWd60XI6BwsHM9Ez1TuSJ0fu2XcuC8AGE72jqtEdAIaAR+QQSUe0E5ItRSNUVq77jrRo1yWBMwLOzDUQ2jXDfqCE/h2uds7ad0WiOgEdAIvCYE2N58ntWpCM7uwdjV7H1bD6YMYpTmU/VVq22Vd0t5bJRRr1Tpa2pU/RiNgEZAI5CCgJ3l7bzPe5/Zbfl3lu6VwktJKDWgHDtqo38FsrboFRQ6oRHQCLyJCDCRKTpTCWXP6sTzEODmtCvRN7GBdZk0AhqBdxyBZ18v/jxS08cVAsqTY39pu3bdvONdSVdfI/CGImBfAaQMeZVQvKYTzyLAzi4FoGb5N1TEdbE0AhoBe+Agc5ndDf0su+kjjICaxlD8zjtva4nSCGgENAJvHALKuaw2rLcvlNW0/jwEmOgTiYTaHueNa1pdII2ARkAjYEeAzVIVSfI8dtPHn0WAYeRX6Ngh1WmNgEZAI/DGIWCaJjtt3uV9zZ7l8RccUe8wUTvaq+HRG9e6ukAaAY3AO46ACgDXTpsX0HrKKTVfrdYfaJZ/x/uRrr5G4I1GQE0nKteNYjGmfvWTE2q2Vh1PWV7EnKjOqnlLxYnqVAp7qvsoD7g68mzOX/2IqheXRK2PfaMbWxdOI6AReGcR4PdmMGExfzEXq2hxANje3lbcmkgkmO75O4Xy7M4fvo96A9ReiJvvxnd+gUpQhflVElxHe/GUvnxnpUhXXCOgEXhDEVD0pDwPz3KxncftaTvD2imPj9td2OosX/68m/Cj7dqFc6oxhP2Jv3qa39liN+QVhm9oY+tiaQQ0Au8sAuyjt79Gg9MAYH//1LMefKZvReJM08oSTzmrTGB7/mfJWp39SZXw7LW/yhElNuod9+qITmgENAIagTcOgRSDlHlTOdb5p3LCKEZWDK7s9BR/jjq+6w2fx872+6v08zK//uOqjhxHz9Cp4dEb17S6QBoBjcA7jgBb9HaScjqdhmGwOa9IViXsrMokbj/FV6WQu/LJ2N339vuotBoQ8JGfzK8ufP0JrrXSjirxjouTrr5GQCPwxiFgpyd7Wi34VHu5pBTdvhWaonsVqcmzu+qSFBZmNk85aP9p9+/bj79RaR7r8KZmKdCpiuuERkAjoBF4gxCwW/SK3BVx26cc1UFmNybfZDLJd1Bn7a/cU/XkPPZnqVOcUIyppgSSyWRKHvvPX4v61SBGFVgl7MXTaY2ARkAjoBH4uQgoH5FK2KmfDyr/TzweVwStnOx7GV6kXMWP4JurCigNp47ohEZAI6AR0Ai8AgTsnGvncbX4SykAO6HzQUXfKo9dSdjvbA85VdPRfNA0TeWn0lz/ClpU30IjoBHQCKQgwHSsQu+TyaSy3xXXK8pmrzrTOk8DMNcrxn+W6JUHSb1gRPm1uCTKY6PoPqWE+qdGQCOgEdAI/CwEFJuru3A8ewod2xncbr8rmlaXP5tgBjcMwz7BoO5vGIY25J8FTR/RCGgENAKvEgFFwc+yNk8IcwblukmZ3X3BzLB9CjolbY9KepWV0ffSCGgENAIagWcRYKZWlrXD4VDmdkpmu0nOp+yhQXxVyrfKxgm+ubptio55sc5QV+mERkAjoBHQCOwDAcXLfI3dqFekrPhX8fLzHO7Pe7DSJcquZ3eNXXOopzzvJvq4RkAjoBHQCLwkAorcFdWqI4qXlY3Pp1ROfqQ9/7OFsGdmflf51aldb/vsrfQRjYBGQCOgEXgTEWA2V+SuEm9iWXWZNAIaAY2ARuAlEFDef2Z85dZ/iVvpSzQCGgGNgEbgjUNAOWeUF0gHU75xjaQLpBHQCGgEXgkC9vVQmutfCaT6JhoBjYBG4I1AIGWW1R5s80aUTxdCI6AR0AhoBH4mAmrqVbnm7c6cn3lzfblGQCOgEdAIvBEIpDC7ov43onC6EBoBjYBGQCPwMxFQtK52y1Gzsj/zzvpyjYBGQCOgEXgjEGBz3v46LU30b0TD6EJoBDQCGoFXiMCBAweEEMqiT/HkvMIH6VtpBDQCGgGNwK+AgLLo1XaV9sSvUCD9SI2ARkAjoBF4tQgw0dsD5+0B9a/2WfpuGgGNgEZAI/DrIKDmY5/dDvPXKZB+qkZAI6AR0Ai8QgTYoldB9DwTq6j/FT5I30ojoBHQCGgEfh0E7JyuLPpfpyj6qRoBjYBGQCPwiyKgGF9tbf+LPk7fXCOgEdAIaAQ0AhoBjYBGQCOgEdAIaAQ0AhoBjYBGQCOgEdAIaAQ0AhoBjYBGQCOgEdAIaAQ0AhoBjYBGQCOgEdAIaAQ0AhoBjYBGQCOgEdAIaAQ0AhoBjYBGQCOgEdAIaAQ0AhoBjYBGQCOgEdAIaAQ0AhoBjYBGQCOgEdAIaAQ0AhoBjYBGQCOgEdAIaAQ0AhoBjYBGQCOgEdAIaAQ0AhoBjYBGQCOgEdAIaAQ0AhoBjYBGQCOgEdAIaAQ0AhoBjYBGQCOgEdAIaAQ0AhoBjYBGQCOgEdAIaAQ0AhoBjYBGQCOgEdAIaAQ0AhoBjYBGQCOgEdAIaAQ0AhoBjYBGQCOgEdAIaAQ0AhoBjYBGQCOgEdAIaAQ0AhoBjYBGQCOgEdAIaAQ0AhoBjYBGQCOgEdAIaAQ0AhoBjYBGQCOgEdAIaAQ0AhoBjYBGQCOgEdAIaAQ0AhoBjYBGQCOgEdAIaAQ0AhoBjYBGQCOgEdAIaAQ0AhoBjYBGQCOgEdAIaAQ0AhoBjYBGQCOgEdAIaAQ0AhoBjYBGQCOgEdAIaAQ0AhoBjYBGQCOgEdAIaAQ0AhoBjcDbhoAhhPpYdTOE7eAzZ61cO/9zlp3f+0rhw+x/tucZwjCFYTtgz/fitCGESZ+n6mJVS16bWm78rZ5mPIsLX25Qphc/frezdOfUR3LGVAwYf+smtiJhmfDvmdvIPE8df+qH7TpbXgWTSffkTPIBeMQ0EMZX8ycf+2zZ8UESd+ukQY/Gg7Y/6wZ0yF6554Eir93lOjpk3SL1h+2RJBBW2XaOG0I4SLqslsAS8O1MPHNQiKNPf44JwZ+jQhyhDycOCOGiSxnnnfvYqm6Vc+f5nHre8dR8+vc7hQCLhfqmutv7udXV+ZhhWrLMCYeFlZQuS8iIDh2U1yaaVuYX/U/dRz7M6iXYWfhmSC+GQ5guYToxgf1AlX0PCZM6UJoQToMud+KNkT64f/IdUlUB/jaF4TTwKofM+9SDEQwHFWm/tRXCiY9mNOnxXAaqlkWmtuOyOQxSdggK18BEFKgO1jXMknhfQzhMVI14RGZyPIUaVZ/qhYA6hGE6hEijj4txYYytVjGFy4E8RDd5UVvucs5wYBkQfIeD70pN4jCxIk5ZRllfw0RITawRtb4hnA6R7kColbqlZjScpPrxcVJM6LzTpItVczKyzM+qzSWg3AB0H8rPdXVgizuxnAQrF53K76BiULspSTDTDHHAFAfwaBpd4lDN5EKWLxSiyvapFqJGiFr6rhLCT59qISqFyBciQ4g0J96IimaYiI9pOk1sHKulXYSNaZgmFg2/saeQnO6CvT70LiMgpd/q+QQFCzZ3ENkRpLBbVgwxBncqvpJNbNUl6KDqYXvHlzsG9m07icvbMj0RNSMbWUVOqcELfxrEJkgoppUijqTiU6Xsl+Nz5QfpSBK9xXeyVpgBy2uS5qB77KO+yCOsPKwKM2qyK+8UQGIgmwOPW9oPSZ/KadGc1YZ4wsB+j2rKakeLI9Sd8YCJCky2OkK7ow/ljS186C4O4XKywbnP2iJFUplMLA7e2jCF08FlI6LnusiyYqlMYbiQsKnYwuUyDplYI9UuhjD4QmpGUlkupkJ6EN/akDqFWkqZBwo3eTt6BisAQpSE0KRnW49jZA0aWBjE5oeFyBGihEi8QIhc+hTQz0IhOJFPGfziwq1znX0dnf3dXQOnO/tOdfT3tA50tITa2wY6OoKdPX2dPX0d3YOd7/We/uT6J6KabpUlhEeIw9S0KCoIjcuBWtZwYq0cBCU2HSHqTHNSY9KPvYuhzvnWI2Dr76r3YKXVce509JO/uKeaaPpJKwx7GhMK9V3rYvp/nwBKC4jujkxGf8xoSIj0bLqvXRXs8xnIL8QIRLHWE6RWekrHqR8OrK2DCBFLRUqCjU0LJ+v/fZWFamuSMeuigQpWzYmDDvaNEL2imcZ3Z8rGpqF/1OmVccf9HGnPajGCj0vLetEqGzGjrLdpCoeTxiKMhjW4wSdaCoSLwSTDdX9aNVn3/cn/FZ5kfqIViv/4qP2BrPNQ17uwQko7s7zRJdz+BA0qA7wL+vMcBKMD62QIM40OG3iCbkTthooB4TWFk5C3caLF76zWLOjY5pA3dzjQinYa1E4ZQlSIjuCZkvGAfyoQCPtrJmtrwnXVE9U14erqsUBtuLZ6ss4fDlRMFpfO5+UsezKWM7zruZmLHu9ynmc5L2s1J3PVm7Xqy17JyV5xZ69mH13Jzork5C0VByaq3xvoES1C1AlRim4fbE8SARcpWjI7rE5Iomnh7xRGmpXW/2sErC4mKY57i/ymcxbRKt5HzLD7Ew/TWJK4XnlVbBRjkcS+YSYiJWK1iAq7d7oQB4RIIzcLMY56pq2Qe3kWE4viFqoR3XAXosdexTnJTYQ2E/OLE4nDdKEPgZw57EmwcNxLMTgP35xsRvKUEH7kmHKQT5f4mfkW28Vl4If+6D85orJVxoG8iL4aLCmzn2xlUm14lUE3cXKbmlQFugpNdBcZjhbdEc8i+NYBSzuyYUnH94c+aWy0kYl76Xnp5JjOJE/FMfJfHxMikz7srWYXdqYQWUL4yEYussznfHJxqO9C63iuENlkBWMtBWkyRxq5+wgWRJmGOAgyNzFXg5Em0GnwaAFIaKLvjsds3M4IVrb437/6P2rHGo9sZLoSpgFCJISZNIy4OBQ/6F7Ldi+4s5c87pXs7NVDuatZJbNF5eHKwHSNP1xTPV5bPV7rD1dXTFZVhmsrwzWVk/6KKX/ZZFXFXG3xXEXRWHHTxPHWUEN3qOPirXPo2MkjBNyE0kEkfafhRB1mOmTHI4PAEE6ncZDFRH9rBCQCbAiRZWTRDso7z7dRz1bUKCkDCYT+IetJc8jKw/8rimH52x/WxCrSpJO3cxnigCHSDWQlejI+2Crtfu6urqGCWcar/MGGvjTYqV479eOH8MiCKAPHFjRbwN5qZlU2vfdTIMtsJiB3/AvksnCZwmXiMILhZFs/ndhRujLY+8RYMVRk0KKPVjI2txQ2mOXNt4AjHPEoPVWWmSuIdadLnOKAE2GXzU2GteEi3Y4HGR5M7f2PWsBwmKYTy5hBzFVGTuoa+g6QC7uWzNgage4LPlIlRLNofdxeOlHun/GXh0uqwmXVE5X+cK1/or5qvL56vKZ6IlA94a+aqGod7kRDuAKtYAfWFy13mtSRZU6RUgUgVYNLaMnGzjmWHfTasNsJy+9Cv80fbv++biyQsXFQJIUDDOR6EJkbx6of1/UMnukOdp0OdXf1d3x448PrcKsPBu9Bbz+EhvAzMAD9QQgOwOAADIbwZ7AfBu7Cgytw5X+5/p/OXz/XPdRZMJmbs+QumS2qG6vuCbWLdiFOkko7yL0P9bHLccjA0Y/LMFlZq7mzvTeNzvlWI8AUr76pT5O5g2Y7073FNJKNkB34b4f6ZLvvAAAgAElEQVSOrT7/dBci240Zxbrkp/+3Ez2SnGGgIZ9uou3MHlcuD9IZWWQvwTRo5SFfoT9GKjO7K8gieKoNV0lWDC+T3gR5Eq1sAkYpkX2Wx7oz1mrnWaYh0ojocWwuccZ+zVOk5M2ggrMXxpq8YF1FDnesGJVE3p+VArMA6nE+SXemjFYLsl6hs6ZTpLlQ2XBevLlTOFxMdC9ZXWE4aYggTDTby8Q/Xf3dhw8vtPWeag/2dPZ3dfd1d/d1tQ90tg+0d/W39fS19/R3n3rY8+H9M629LcWzpe51b8Zqhnsj27OS7Yl4s1d8WSt57ki+J+LLiWT5Ipk5K56CmcL6kYYPbp1Drs8jdXIE64AKjKopa0//UbsjHvjHJg6HdKkKkhDSOUaF4EB/msN0uMQh0QcPLsFf2oca/POlngXPkfWj6eA8tnH0v8B//W/w3/8N/vUSfPED/NAHwWVYjQPEARLJJCQAEgmAaBJiSYAk7PxtwMY8zAzD4F249yV81fKkpWy2tGixJHc6LzBbXj9efTLU9OGtc6gCfeTBP0Ij3jSDvakOJ82T/3RP0zneMQRY7pnpLGcB93vlq0QRtzKQ+5h+yw5jcYRiKsyN7MGO5v0RH3OVdA7gnQ0TPZLI8vw4Zi+y7jHQRfI0P/Knv6mX4jXsZE1HbyaN2LmCVoenbCwGspKq38tnWI9CM4qpj524+6rtzkNVio1qnG5k0xlLYhE9z/rKprHcZxQlg3WwmoybgWogW2annSSxc+HpmTTZqJ6uRgB8pdXolo1vmKR+LAgsU3/P/cX+HOET7b1dBZFS73KBJ5LrjXi9Ebcb/dTu7BW3Z8XjW/bmLOdkRzx58wX1E8fbRzragz0d/ada+tvagm1dfT3dfac6+7s6gl3tQZzY7Ay2dQVbO/rbm540Fs8VFkbyy6ZKWwZbRJMQRej5I5FEXJjcabSExj4dsOFFYEro8LBBOUkZyNkCbp00VMFpFDTpRtP+Olw+9+Cj6skTh9aPOONpnu28knDlf4P/9zv4/jEMR2AxClGk9HgcWZ4pH4k+yr+Y65PxZBLiG7CyBpElWJqAqQEYvgH3voErn9z/56ah5pLJEk8kz72cWz7rbw5R7SotfYYlojkaGpDuuVl0xncBAckC2HnZeGQysBEHWi8Wy/NYWLoOdgiEmEB6LvgoEp51633BSBdJasPehnEjZHjjXezd7+lRiHrqixOyUHQtj72ldSzLarvafoTys9pTd6Baod/WyaqCjet9Ef0OU8qHUf2k653cL0SN9pIgqFgE6so8eXGYnLYcoH2MDNgMy4w9YjvFGTIplkO5s/OIIzg4pIACSI7QsIEbgIx5xpyei6MrQ5BqxOfzZMA+asxET0EzaI12DpzKXsjJWM86uH0wLW66EqYrln54MyNnKbd0prRqIlAzXhOYqDo+2tDTe/rf4U/fw+UrcP0yXL0M167Bretw6ypcuQI/8pGrcPkqZrh8Cb5sG2iqnCr1LecULBaeeHz8/G2y7r00H0CBj6SVTQcOCl22iCOJLE9asP/LGt4S4twSqFtx0sgazMkOgjHyJeKv8NXJoeaS6fL8xaKi2bK6kcazdy/chOuPYWgaJpdhMQkxiAF+4gAQT0IcjXs26tm2TybR2k8kIImW/jZABLamYKEXBi7BV919PfXjJ4tnK9zzuaXzFS2DLWfvfvCH67/HSM0SsvGzaYZjX51OZ37LEZA9jxiURvAu0x59puhdRn5Q1B25KC3nLrpxqKfvEB7fU1Hy/hAknWLIMpCm2Lmdw+Hk6TA8zgGAkvUoo2Tgn0ij4sAsVF7mVbtL21ZsSWBYdXqgDaudMtEZfuTLEL11I+veqNIYMPSTcKQ5u04QdUpJrkG+xSnHfAq7Zne2isuuo+jsAMVl15DXu8ZydjeKtpHmysny8umKsil/ZbimKlxbOV5RGS6vmCpvD3bipN8xmvnmMrE6lSoWgyGl74oHEljz/f1h8dGmMJAWK8RHt8+eHK3OX8pO33IciKdnLXn/C/xf/wp//Ad8/wgeDEL/MIRGYGQERsMwOQOTCzA3g5+FBVhegMU5mJmFyVmYmoOZBZifh/lZmA1D+DE8uQW3z9x8/8T4idw5ny+SWzId6A5+iM6cTHJ0EH+TEBHRs2eLbB0eTTLqpNulYJHIo8efEKCRXMpAk5dEZYtBGL4ONz+699HJkcbChVLfckHJdGnTYOOX8MUj6F2FDWb55HZCEjt6c4jp0ZlDP+hEIo5EH01CHBJx2NyApRkIjyIaw7fh9oXbHzUPtNePnKyZrC2dLiqbKaydDTT3N+IIpmp/jaJzv+0IWESDHMJeG4FOWSdFRZDvha02NvCoh6J1LycLmXOQmkj8ybIlPiJnCN6Tu8s+UOSxMc5AytEnE4M1onAIMw2DwiXxcCYuxp6/+WIKZ6RqWYY93cxiN+rcVG6kMp6vIBqwSsYZ5ciDns3TnftjPqsizDNOHLvI2B4caHCk9lEyuosp4CTfCiwppJC7enHhxsene8+09Xe2B3vagz2tA10tobbmoaa2UFN3f2dPX3dbX1tHsLPjUU9X3+lTg+81DJ8oXyrJXsnM3Mw+upaVuZztXcnxrXqPrh0+AAcylrJP3yc2zCK7Hhcc8WBNNgAN5TiEkVphHy37TNZ04twi8Xf4a0ffyZKZgty1PN98UdVYw/t3L16B66MwsgbLaP8mIZGEWALN4GQiis5sJkikx1gconH0fqB5jBYyekbQN7ICqw+h9zP4ovlxU8FsYca6L2+2/IMHF3CCt0wItwzLQYVqpmPb44SPnBFxqWkoqeTxLPnKcFoIf5A3n2I0lZBgwmHgYgtsuCPiAdy/BJcaB9uKpirylgqK54tPPD7+wa0Pb8LdERifhtkIrG6ygz5ONYrFIBkHiCXiUfbtJNGmxw9+JYjt8VASEok1iDyC3m/gu3+HP7f1d54YrS8PF+UveEpnC08MNp4ePPsM3PrAO40AWtCmy4WiaQinyyD7lcUe2Y28k1a4HvGrE+dF04kG0PRxpDlR8jlgmUWdghywXzD17g9e5aK2rfGRFI7FcFEUCt+Zfax4e5lhDwlcV0LKB+OssbuaJs7GOnHJJcZXS+LG/1UMjHDgikOXA0fr9AgMaZMBL2Tvyuey05zoee915oWdcgEl3Qi/CAUTvfQZaLB39PWUjVVWT1XVTPkDExXVYb9/tCIw7S+YLfQt5eat53kj3pxlX86yz73iyVrLylw/mrl+LHs1G3+ue9ybOZnL7qxldHwXzxU1DDZ09nc2B1tbB1pPBzt7HrV39bXXjdYdXDmSHjuUs+xrG2xDux5XZmJZCGepfqT3imhxRyfuvboEIAZ4mg68o4vYlmZlP771Ud3jhuzFgkNrXvdyYc2T41/Cl0Hoi8DqdjROPoxEIh5NxJH3yf5NQjJB/IfsmGCal7QISP4QW4G1SZgdgIHv4fsTw83582WFCyVVUzWtvR2iUYhi8mshp1OgLGo002W6eLUEUzn2AB7Wsr7jFrJqzgKDrbWj/qlr8MjnEA258sQ1uPdP9/755MDJwqUC74Y3dya/4UnTX+DzB/BoERbilusGZ2ghHktsobaKoRkPcWJ+Yv9kks7Lasa3YWMZIlMwMw7hJzA6DI9vw50Ltz9sGK4rni/OWMzaV5vozG89AjgnSea46bTonu117svM9eQRZgZjL226NSlHZ9J3zpOp7yTetCKR9wkhe8N5+ZV0VkuFgUaUE3mZopmZaQ+Q11VtGLKXxFEyJHMt0ziPEnmWvWz3WbMju4jcIwVkVudTkMMB2u+AlIGkdSoh133/RE9OJPJnKKKnypEH2C3+0+X/LX+u2AFOkRDOpDgYO3B0/XDOBs5V5i7kli6UVkyWVY37a8dqasdqAuFA5WRl5WRF5WSlP1xVGa4uDwdKxyv9szX+qaqayer2UOvX8LdrcI382leuwY834PI1uHoJvmod6i6ZqXCvuYtnCs89OIfDfw5Z4Zh7GqqQPEgVzgS4vxEMEj1esdOyPHA7jAOUP8Pn9aMtvkjpoc1s92pu/XD9p7c+uQ99UzC/BqtEe9LETcYTgLYtWsLIjvQhZUDmL/s/YhjZksSj8RmY+ga+aw92B6b8BdP5lZP+plDLxzdo9WkeRejjphio5VmUTfQRynkZSeJYbCor63apjOkQR+nIxqPxocNp4KCU1ZpDHEIR+gb+3hhqyJ/Ny9nMyVn01Y8e//Du2etwbQiGxmBqCda2aVzCBJ+M0YSttOfjieR2gmJ0WKfRsCa2HduSsTqERATW+qD3j/DvvkUfSov+0wgoBExcRZJ+SBymhT8k5LS7BsovibJkMLZkpR/G6TLSZVQMdg/MSWfQ/KclibhkVO4Ig5bvPqjAZhshFTAdMM87HdQTqeholfPAnz3U1RRwvffvJtE21FgVrqgOV/txuu94xURd+VRVxWRVzVgt0aW/crLCP+kPhAN1U7WVo5Wl437/TH31ZN25+2eFW/KUBZIy6NiBu4/6Um3sGGMQCBMoLm10ol75Dz/85+LFcgGGQJZP90Z8RWOljcNNp++f+sONf74Ml+/CrQHoG4LgEAwEKRA7BKFBGArB4xA8CcHjIAw/hFAfnu0dh5FZmFyCxXlYmoXFWfxemIP5SZgehIkf4NbJYFPpXEnJXKl/LNDT3ynqiQc5kBUdG+kOjHZFBNiK3Wdt0dZFj4dJXhLaywbDlhwGbumVi+344Z3zlWO1vuXC3DVf8UxR21D3Jfh2GqaTEIVkMhGNkSOD6T2Bljx5bWLk3cAvJscdrzea9huwMgfzIRj8Hr759OGF5sdNlZP+stnywHh1R1+PrCPqL3ZLUvVYcKWpriIV2HvJAmDZQjSj5DKMdHR4WhvOoNpn5UBDwzS54OsG3Dh3+2zD8PHShWLffE7xbHnjUNsl+LoPgkuwRD6q5HZsG6uXQIcVTtTiH3I9TuAmrKMx/ImhmejSwXpHIbkKa7fgdslkuYAd35Pq7DrxDiPAAswj6MMkizxln0kzchynwZEbKpzDfjBTDn4PmBi9QGY+e0aY3fdt83FxyBZCMrGGyHg3RSgGGvXEC9Xioxsfv/fwvc5g514//Z1d/Z0nButKF/PdkWOeFbcn4vWu5rvX8jLWvJlrXk/E513O8axkuVcz3Stu94rHvez2ruXkRPNckYOuWHrFTDmaupk43LeInhQdFponGFRJf1quqIJk4lINrUX58kZIJ+S6ORlsyl50H4XDaVtO77Lv/4T/+m/wP3+Ey4MwPAfzm7CO3RzNV+Y9Ygb2b1jxHEQS5NdAUmDrEDPHkjTXl4wzPc5A5Dv4sTnYmjOfm7GeWbCU1xZqxnjtLJqeRaLHGRyL6Dmmcx/1pdkOCmfkFpVmgNNw0EZgR6m+peIL+LJ1sD1/Cl1SvoXCxpHWH+HHUXgcgcVt2IqiF55qi8Y6prAiWGmsRByrYv1h4EocEttUZdiAjRmYfAB3PofP2vs7AuNVxbMlpYvlJ4ebxHFr+HKQakrkjGQptbDcMog0gWR5a/kxxe+gZYNLyVLsGpfDxVuwsV5EpGhrs6/hby19TYFZv2+5oGC+pGH45NnrZ2/BrRCEwhBegsgmzj1InZXEUQmNYBJxiMVIAwBhEIujn4fGLNK5BUMwXD1dJ5I/LXs6x7uEQBrNShVSYFY5TdZzwEadtaNegKI1eHUiB3XU06laMqJryNF5iI27dAN3KSBhJ+cl9QCMf987oIrZyZpVXnJWGMJEE9/pdNBTfKLjUWfufL53OQfpeK8fr2fVV7RYdvzJ8db+5s5gW0+os/lhY0cQt5rq6O9pG8DVOp2kDzqCne3BjvaB9tb+1va+luMTdVkbGZ41d9NAI9qAGax8qAtLRcQrlfZVX4O20JGjJ/KAW05hvqeT/Lw1ovt+tzficSTMQ9GDBWOFn8EXvRCch8g22nixRHybWcGid16QQ1SBliESHlvCiViSArejOPHH7I7EGCfCT67D5jTM34C7DaGmnOXcjI3s3MV8rG8D6TZZTdme7MbZV/uyL8M0HeQbQQBNp9ztBne15OZPI2zLxUd3Pq4bPeGJ5GStZZfNlnfd77oHd6dhZgW5HpkdC06ajGstqZ68NXGEJUl+HZrKRd0G8Wh8G2JLsDIO4T4IXoPrZ++dzZvKy9rMLFjIax1tkStOj2AxLaW7M9VEk+2GtZ+lHMZSmXGixWmmUcvRfDrqQ1YA6MB0UlwPzmOxIKeTFZUrbsGtj25faBg8XjCbV7RWWDZV3jrU/iVcIt/9Ck4uYwNhU8qaEvfHAbU6KjicrsAzsUQ8lqT6JhJBeFQ1HRCw9z73s3OmyjtLCR3lIZJdbMjxZcsh23wHZRYRJVWc33KXvVRZrfLRUzlMxDokFfkut326zPvhsF1utp9D9gezoUFzSEg3XjJGCsjLXPD07h9qG5DnJcqEaBAXbl08d//8mUcfdvadbg12tQ92twTbke+CnV24WLGrq7+LVqZ0tA90NPe3twy0tQcbu0KtHf09H9/4A26+epj3JMDJOzR4yLNDk5Mu6hD7qKlVUbIa5Q9Ky1FxuoFeG6xy60jbsc1MZ9x1cPtg4XxhIBwIhKsC4Sp/OOAP+ysn+RPw00FyXgcqJ6sqJqqbhzo+hy8vU9j1VfiBPj9eh+vX4MaPcPVHuHoNrl2Ha1fh2hX8efkyXLkKl/8KfyyZKcjayMhfKOjq68GNCbHrIjlZZWYDnRXAnqpMaOFeaYibFG6yFGnkjXMSBu0HnIXhkk39TflLeYc203NXfN2PTl2FW5NozkfjSerwFmvT/xilQk7tOMRjEI/z7wQ5NihMZTvG9IHu7STavBCN4zdyywws/B2+bR5sLZgu8SzlFi4VNg2cxOnZLGpoWidEK5blXjG8ohQrbAFhpfi36lbs9mZkDFwiS2fUmjcTo9MdByhGHS3fYiFaxPGxes+S+1DsqG8p/8z9M1fhaj8MTcLCBg5FmAot+53+T2B4Ci5JilMFcboWcxFbkn0fo6CcDVifg9m7cOf0wKmS6SLPsrtgIb9hsOGTO5/iLsG5VowprzmmejBLO2gTUzZtZH2xWnjSgauGserWEizsAThe4+gpcnJS5H46bmVsOLHXFAnRJJoHTpbPlnoXcgrnixuGGy7cvngDbg/D42kIr+AgBj05WI0ots42Dd9oBMMVY2UntUEI+irC5a+F6KlmyjTjamJVrfGefT9xHO/SaIecxWm4UQPHeuDRNJoNpwuxD8jZf7wV9gzTSYvAaAsLDhVJVRY7jyZ5op9M6AQ9P5cWS6TR2kvssTgCo3ahCUq8RM7BSynmSvBEzcuE0+2p+6dkogKxP5AKzgjgd6YQ9eJUX8fxx9XV05UVE+WBqQDR3F6/y6cqCueLchfzfEu53ojPveLNXvFkr3podaI0kz02Yzl71Z25muneyM5ayfSsZPtWc/xj/k/vfIorNQ5z4bBcEiUMqkinBk6p0XN/KrHBu5DGkL1GLhQ1HOJgujiMJ7OFaBNV4dpjW0fzZnzfwNchGBiEoQEY7IdgEPr74FEv9PZCqB+GBtFnPdAHwV48FRqBx1MwNU9h1wswN0+fBQzNRm/1HMxzeh4W5vEIurMXYPE+3GsfbM6P+DIjmTVjdejAyUIJRTpGYSWHk0UGWH5yySgDhWSQIOJTtlZFXahqTmJK/nnccB+50CFwNs+DQYEXbp3PX/QdiKZnL+c0Pe64DrdnYG4dNqRxa4XjJZPWysuEHOlbLm3MSDOU7Pxg+lPDAGkgRyE2A9P34O7Fe5/UjjZkLXp9y/mNQ82imUZ+2dSqNLqi+WKczMeNw6w1mRyjSNPpVrwWVYqCEbmrpgoAg0MYWEsouNY5OMp8v+90ZsTniB7OXckLjPk7eju/h+/nYFY55Nl2T6Kbhr06eCCO3mskwTiGq+ByU+J81g04rNmGjSVYGIUn1+D6+TsXTwyfLJotyl/KK5spaQnRIKYAkaehBko0bvpOTYXal5sJy42bBkvzfueganarplRD6heWKeRwYf84RL04R9yAa+cfna99XFc8XVI0X1w+WdE23PYFfPYIHkZgBZstiSrbqikus+Jmi6FbRy6/SqBFHyyb8ItffjKWlRs6apVbitCwhi2ywggV9QwUfcNhUPwpak/eZNlAdIno+UYEJIUY0/DISbRyiL7tb2ZJCbpQawV5Vzx7zgzqObwZXh4p8FzLIuZdpHmjOC8RilOkOV0qWkAqJ6sgVCGrOV/9/+gcZM1mmX2KLHAdY09fV8GSL3Pt0JGNA1nrmZmRrGz2LNvY+QVujdylvLLpcj9awXv8BCrDFf7JytKx8pK5ssxIRv5SXlOoBYf2WZLSaTcYtOmRBeV4da+4KLqziBJ3kkHAZXi9OGAecYkDLsPERT2l4r07Z3yRnLJwyUO4vwVbcUhGt3m5YQwdGtTtld0XhwSZsXhgH3/Ux5IJmIHZv8GlxpEGz6o3bzH/g0dncfXNUWQ4S7ERAuymZSuPhIPHr+SWoYrIDJLb6Rex/k7lsal562DsEioM8ShWuX2w1RvxpMUOZi56Tve+dwNuzsBsFMMJOcqEiAxH/GzIkjueGI5Zz6o82fbSgy99wKwE2NsPkFiCxXvw8M/w+Ymxk4XzRYWLhYEnVR89+BRN+2w5mnHiRsD8PhZ6IYaMFhJOfEkL1oekl3ov9RfasmI/PYYDTCtEW/BUwUJFRiTTu+UpWCxsDDZdhSujMDoHC6s4RYG13o5tJqxQxe3YdgK9GVinOO0lQw4rTMlqIjsmUEKS8QhEHkLfJfi6faStZKrIt+gtmitsHm766Np5UU6+zUO0DBYnoTHq1on7LyEf4F43tHn1U9SP9WPKt4s9jls4vgqPonjQi2poNOgSZN2XiM/hi/ZQZ9VUTc6Mr3i++PiT4+cfnL8Jt4ZgZApmIrAahTi1bCyZ2E4ksI1jkNjGMQw7sxIDEKyYrBFAo1778191Wo5iaNhumTRYbTZ/0Q8ncbBUAb9xRlrOJPXpTiftUivX3ikjiTuI03TgsK6UfMf8chZeFsivbmFvMu+EV2WtBuR4DP7JGeqFaBWn+041PmmufOyvx8izisCkvyIcqJioqRivrp6sOTna0NXbI06gykWppbaTQmr1bDr6qiG03Y+MINzFEEVHFoHFBIVG5IqGJyePLB8tWiqsm609EWroCHV17H1mMth54c6FW3CbN8/by3cIBgdhkEzjwW/g8omh5vIZf8N4k2il/kDo0NgD0SJx56GvrUo/lZQIS9ZD0PmGaDGjIYVhQmlkSCPXV4vCcGHZQvk/4PswTG7CJkAyhgtPrJg77uvMaJID90HykhUojG8TNidh5jv4sXyu7ODWAfec53TofXTgsDDInX1w2y/amYemKSyZoSqQi4IZwEKHx2lSihTRYxfBEKZ0M11uy8yhUMfIOqkWpx72eCOeQ4kD2cuZTaGTd+H2PMxvwDZxFxqxvLqeSo3GXpLUQFyatDLkUA74SQdsQ5LmK4kGKcwjCclN2FyClccwehOunn94pmg2172V6ZvLbxvsxDVHNB1NbWw45AoEw5WGvCX36OGasnlCYLzMCJidHkdoZX+9aBw86Zv3HVnNylj35c4UtQ10XYWb0zAThQ1i+Fg0uUVRKXKMgrMQnMSaoe7H39bohv5Hrt+AjQisTMLUEIRuwvULdy42jjQXzpSUzpU1hRpwI8xi8uTgBtAYZY+a12nSGz/wjVc4dqFoHRJ6qd44nkgGOVKD8ru7OFxtp6NQ/3ChsqRxUgb6JK/CzY/v/e7k42bfLE5BFU0VtAw1fQGf90HfAixRhGkc7Xhy2W8nt+MQS+Ai2gQktgfhkX/Mb8Jr2I+earX3/cRZHsy0NBzle2i3jVxyOudZ8cvsd1YvbckXd+DWhVsXOge6m0OdjQNt7QPtHf2tXcGWrv627r6err5TtPtdR1d/Z3dfZ1d/RydOtXXii136TuOnv7N1sLlh4njJRGnufKF3JdeNhnBG9mpW1ponaz3vyKZHbJpHokfzZwo/uH9WeHDnZ6ZaSV+SeyxH0E+R10uftxG9tGvZACQ9iihVT9cd2cqsGK/8F/iXv8Hfr6Bn+ereP73QiwPDvf9Rt0kSlYzC5B/hL3Wjxysm/d0PTuFUgWIx2cmZ6/dX+x2it+4mfUHsmUMnh5Em0tLwbXaIQMPYybKZyj/c+I8DEFqGCFqwFDuNbMeEhyxP3Rt7+37/mA2icYx4S24l48Mw2vGwPW/Fdyh+OH+yEGdl3RSnQRvFO7BszjTe+YtfzkHjVlJSli+aeJ2tFmXs78gV1pqJnkMtHQ40/Uid8Eg/Gzc2aH/UVr5Qkrl+tGi+4OKDC7fg1hhMrcImzjlSKAqtH+WpvHgCiX47jrY6T+NZ9EecEQPYwg1VGDWc3YslaGl+EiNYtmF7GsbuwNX2wUbfoufg1pHc5YIz909hKE4OLWKQZIY+GWR5mkLBY6y32Dx5WaJn+U9zHsR7ZwlxXPSEeionaryrha7k4cxVb3fv6StweRgGlnBYs8HqPZGIJRIUd4gT0XQMa4ycTr+lh4qblqdtrWFbfBkWe6H/C/hb/fDJwukS/0Ll8ZH6i/c+wp1keFXBoZ1happ5wBROJ+4MbAk/FhQbmsZkaAMQb0hRlgE6NPBz4tpE4UxDaaAVhy5+nQjidgxVy1/h8+bh1vKFcvdiVtFiftPjhgu3zt2Em4MwOAVTKxCJYUNhBGYSYrHEJrnwo8PQVxUOiMT+Ot1L5SY5Zr+N7PnY+rvvJ04vgXGk4yssyEY4IU4Hu46PnqicCAQmqv3hqvKpyoqpiqpwRRXuPR2onPTXzlRVzBbnLXuOLR3OWs/K3vAcW8nKWsvJWPFkRrzZyz73si874s2OeNzLnuyIJ3PFnbWS7Vl25yx5fIvenCWvO5KVs+Qpmi0MjFe1jna3DpxqCXa3D55q7GtuHepoCHWUT9Tky2cAACAASURBVNRnbLmPxo8UzOe8//AUqh9ltlGTcbtZ5thLobTXi5THG3uRZTvixfi7RBSFK49suRtGGi/BpSF4PEN+5zmY2+NnGZajuGkSyfmevq2RbzI5A5P/gL+1hZryF/KaRptxx1SaPMFSWjSGArCfPyIHtI6k/Ei2sHkC6QS5xdMOGUdEtujpfa/2Sd352+dvw+1ZmpykYGOrnGjR0zSWdEnsn+wpsIF4AtXFAszfgZs997s8q55ja0dbx5oxMi+TF3Fhycnlgi8kweba4Xa0bMl7gdAwBypGIF1gMYWEDp0gpoEL05y4qp4uYZOY/JYj8OQf8F3zyMniucL8yYK2kc4rcGMCptZgDfnL0msJSnKMIVn06KemkxY+9CNG1EdUz6HbtMcKKfV4An3Z0xC+BTfOPDzjWcxxbaYXbOQdf1yHi0uL0MtsmvjuCx670btfnS602rgNLUVHGnr/20obDvQOEXK8cqIAh3Hv3X8/Zzk3bfuAd9VTEa7oHjj9HfywAPNI69Et9NWzRCeSySiKd5yCjsidzQjwedRtvPg0CvEoRjTGt2FrGVbGsL73Prnx++NDDcXTpYWLpSVjFV39XXI9Lc9SoFRKhnt6Ol5J/VO7H1FXkOKLE7Zyp2w05h28czMqRWJ91uhedCnfgGsf3v6gcexk8UKhb97rn6loGWj5HCNz+ucgQrOzycQ2LqZNJKOQjAehzz9dJUDK1H46337z2omepPoF+4k7hJN21aTxXoHoDrbnzGZnbGYeiWZiXPNqzrF1d8Z6lnsl27PizsapQm/2cqZ3LrNkurB6zl85VV4WLq+cClRO1fgn6wL4qa0K11ZP4KcqXBOYrMFTUzU14aq6iaq68eraierqyUD9WF3XUNf/gH+7BN/+ADd+wHAL3BXvB7j8D7jyP+BPOYt5R1cP14f9OHBzc9/ERuIuyoRL0wy7Ty7tF7MX5cdhA2FqJ3qepQiIooWKrJXcD+6dfwi9K7CGgo5dGCV4rx9cWr2PTwynu/AZyzB3Hb4/HerIWswOTNSgvYMdUjpkJde/qGK7n2Mjl9/oRBqDR08W9ZNvk8xE0yHSMeioVTQONp8aPvUFfDEG4SgkouiVpYg0LCfZbTjKfdpHvR/LPk6rVhJxHB1vwcYszFyFKxVTFYc2DnoWsjqCHch35F3jsloWgIyWZCj4FDMDGwpcO/Z1IgtIs09lcZjmAX6rlMvAN4GS1GEUjiGcCYBpmP4Ovm0JNhWuluTOFbbf7b4C18ZhYh02OTIvHmf7PVWBW34s4no2ZZXnGpecbqNTACNxpLpIQnIN1mdh/i7c6+k/XTxTfHT5SP5afsPjpovXP0EnaibGWTkN3NaAhNVJk7TcX6iDEMnRymEOoty96Xc7ih0OX4fNLiHebINe4He673T5XEXm2rFjm8e88wWtg9234e4MqrqlTViT45oYhp/HkcRxoxyegGZnHrU/awOOxOT5W5znSKDbansG5vsg+CVcag21l8/4c2fyA9P+5qGm87dptxwf2d0uCgih3sl9lJWbbEo5R7XTttjilpOHZ52km4uFA4OYaPRmyQcCcogmwJtEU6ilYtafN+8rnStufNJ8/sEnP8CNEPruJ9dhZRu2eKp5AEJlE5WvJ+oGeUmunMQKvHg/cYfDIPWfidHZNZMVmWsHcxd8FdNVJ0baWgd62ge6OoIdFObc2dXf3d3Xc7rv1Me3P7kBtx9CXz++n6VvAPoGITgMg8MQGqCf9PaWoRCEghiDMdIPw0Hop1PBAXqNSwgGR2B0DKamYH4G5qYhvADTSzC/BAtLsHQb7pRNlvsWvefvnkE5PkpdkowqZWzyYHzfk0u7yfJPHaO+Q4Yej+BRWR/CGIxz9y54l3KKp0uvwZ0lFG4amO7fZt076dHKjTjG88VhCRZ/hO+6Q53u1dyKiRr0VqNIW1PoZFJIBfVTNXzqvEUKVii9DD3k+CwydNm+pfPZGHfU3t9RPl3ePtD+GB5zf2XiIqLiBYRIdrYevvcaoyeIYtvoauLIGCRCMNQx0OVb9R3dPlI2XiZqqdvTXIp0szAY2LGl5lM0Ls9gnbl/22wFlQlBwNZ2OfHNQfSCJBe9CdThEmlO5HqxAWvzMHsbbh/vP5m/WJw3X9Ay0naD4nC2YFOaqsq2VWM2woH8Fcx70o+B6KCVgH6eGEUucpwKbpcOySgtOlqA5XEYuwI/Ng015c3nZy9ml8wXtwQb0c7FvVUckt951znL4GNLn3gNQzCoeZ9q8Bf8MHAVEm5DhFcxODzBf5QcR/WicfhE7rLvyIbHs1jUNNz6BXxxHx5Nw9w2bGN1yCZZT6xvcYQicSE3J9WXQjFjlkNLygcK9zZEN2FrBSIzMBWER9/DPy4+ulAfqq+YqixdLK8fa8BJqWLyXFHJWL/xwmh018ghG71x0iq7bHDZstj0TofcQ43uId92y0Yk7bGD78JFA4cjc3y469Endz9uHDpePF/omXP7Zypbg21fwzf9EFqiV5pAEgZhsGqi2ngdK2OpPaRmI6J/8X7iaKcewTqcfnAmdznTt3G0efDEn+EvX8OPP8DNqxjdjOHMVzG6+fp1uHEDbvbBwDKZLdYCghhGHrHKxvkWte2RVNsk5BhJLAet2OulGmczj1yUWygWyfgmrN6FW/4Zf8lsCXZgGUxG/Q6tKgwiw4bBAy/1BqUXyPWup9QgghhPysFRHMC29Ld7Vj2BcKAfhuVEnOrPe0zsg/EwK7voaWAMixC5Bbd6HvS4F3Mqp6twR0CcASKji8ssSY7R2rVuux3k/oz3seYzFR8y+RGjoF+U30VXIj66+3HeQm75ZNkduB0hNz1xFs+74Savyku/z+pSdhokoQ+EFt2w638WFr+EvwVGqw5vHfGt5p67eR4XExzEEkmil5WmonP5ifhIX1MNeaBmUQIDIS9iBNDURwToFa9o7JFTCPeWQGuDdpNGQzcDPddNw225y3n5swVn7n1wE+Prw5u4OQytplKSwFSOfYDDEDEqSTUqIobdAokeA5ZwnY506qNrH/3b0tk9DZPfwrcNAyfz1/IPrx/MX/GdHGjAUByy6x28EyT1fxWDwQC8xAiY5Ah3SHBRoAujhbPzeGuT696Ja2jLvGtFOYu5gYnqD+9/9CPceAxjq7AaoxUGMdiOWkSPYLDORzQ45p7mcrZlZBJOUeCgMCaNpmRiG9amYfw+3PkCPm8ZaC2cLiqcL2oYaTp384LcDiiT1rvKtxLwpISllpDlsVW5yJjEX3K/VIotxFNODjjAAAv8h82KIflOh+FyYnPjHKFpHMT1iIVCNIqWUEPlTEnhYn7JdGnjYMuF25/egNtD8HgSpm8gd1WZiV/8JVM88t4ZaJMylj11l/3EEQBT5IjOvjO5K3kHtw3/XN513NpifBq3ll6ex88SRTfPcYzzPCxEYA0llKaSUDjtkcFSGneGpSS+1HzYR0nqeT0xz87Qds90B5TwDVgZgIfnrr+fs5jnn63B8HDezsVqKDnJLDU26+7d2OpVHVMszwSPZIFxHRi0XiuaBzo9K+7qiUAQgsRJ3BcpuecvxQN7TGAEL8BWMjkPkT4Y+PjWx4WLeWUzhagUKRIDJ65ZoOXrKyV97RUSSXO0m6S8D3UUqwl2hjU8nD+CsVXF0/l5K56zdz54BI9W2YVFksHKiQwCslj3a9UrUkDXNtn2dCQCG4+g/9y9i+4l77GtY/WjtWjVZmCnlXWXwzDyZNlG67IS7I2VTjnKStdZGoGgkjiwawfPkGFBYNIpqj0NFzJwerZ5qLl4sTB/Nrd5uPkq3JiC6Sisk8cC/XJS8tEtQZHl5I8mu54Ehdue9bi0hKMA2zGIRXHlEU1ToA8M7aJ1WAvD5BW4dnKoKXc5L2P9mG/B2z7cxquFcTBPQZa2rfGI3PDdRwd35jH3Kg3MjKzzLTGg2Q7sCqzpS8XF6x8ff9LgXvEc3DjkXcmredLwGXzdC4OrsEorS7disIEbGicxpJ59eVEOsscNEmLkwMd5WkuXWZ2H3Z8QjcL6CixMQ/gh3Pvk9sWTQyeKZkrzlorLpiua+pvQu8trBmVvRfcUSwK3PAZQ4R5BDgc64zlalga+HJJEbYjtilqBX5DJ2RhH3gjEQEclLiOhXpaLMn/u9oWGkeaC2eLc5bziqaLmkebP4NK/wZ9y5vPNxC8edSMDnllksTVRKLniyFWp+4kfIA/4cVEyW+lcT8uNuE/3to3BAG1ASvaGpB8MGKWwaAyFRhuLe6DVmZnA2YSzhJp/8fW8qwf1d7xQLpNLxBI8DZ9MJmk9cWIWwl/CnxsfnyheKm8MdQgfxvOhMWH1L1kvblGr1+5daPedUz3IGiLR8MjEMVCNaAl1+jZ8VeP+IRggF0M8npTRFpao/vT/e+R3lQ13+yauX4OtMEz9AN+XzRQUzHp/f/NTfAnGAVoyicVOmTzeU9W5ugS2HLqw+GDvkGhjSqGC4mUYolCcmKzPWjjWONzwLXwzDTNSHqj2vBGKHPFIyv9pWGQOS8zIKpBx2RiyDdE5mLsKV+tG633rvoKFvLb+Joy55pAMubE5Sg1Oz6LCo46sKoHFJq+O7B07teR2lrnxsNWDZIpuYQkeTfbR/B3Z9Sf7TxSs5BYtFXXff/8Kxh1ORTkOZ6cyuNKAo5HIC8d2PLWtReYEXZKyYdye7G7Y43BON5aI0lrb6BRM4urZvrbSmbL8lfy82dymoWYMu8yhDQxwg0/c1YsriiMTrJJL4KwDOfX2JA6UiXrfTr/D++A6LF6Igw84RDzbIurH6nNX845sHHNHfNWPGz6+84de6J2DqWWY3cB5S/ZiJ+KJbV43G8e39nH8OboBiPJ5jPO0mShFH/9bgaV+eHQJvuwY6S6aKM2L5OMu86GGT+58gosqcqQDwDBN2v0JZZOmqdHhRmtiSXpx8a9lP1L7ytphddEyoA/LuNzZlDzGDlokTQ4Fk/zJJThB1TLUVjJVXLDqK5rNbxxsqRs8mb2R8xrCK2X35gAjKZBSWHfZTxwHXyfE8aGTWSvZBauFZx58cBfur8Eavj6A5BHFDvVsFGPbSOzIY4h+NMpC42qSY8n53Cpog+CiQFoXiNJM60Z2LDJ5dzpB68NxJ4wYbAxBX8tQQ9FCUXWoAV/UgjYaL/yT8bNcFWm4Meeg5P1SfzuMJuX7AG3bSH2pVnQMdx9byvRP+IegD2FCY+0l/pjMeGD/k9/UByhykXRjtBce+SfK8lZyTt0/g+P3w6jbcXMPtFMwGJy7+B4BYukhewbDN6zOrPiOewT5sKgT4Ty/eVB4RWtfV9Fsae1YzV/gT2GYRBTIdOMQcuY2PEJ0th+MpF1AsRm8gQzFoSMvrE/AyOfw15rHNZ5ld8lC6Ye3LiDX4/Zc1I1phQgtH+OtApDDWX4kW7MBIc0g+R/rN8mFStpkDyIcGAPrRiQhBHMWvrCpOdRSOF+SP1/ePNxzA+7O4gJ66w2lWHDqVbzJF3UY6i7szMbewc1vdTr8X4oUptDkjfHoIL4Vg7U5mHsIfZ/c/PT4SENOJPfYurtgobwtRJGX1pph3N2dWR49ECa5nPfVYWgEy3IkQZFzNlhxXINEdj277KvE2Ttn68fqChYLvGs5+dMF//+eRV9hgMq9KZjcgi00/aJbyCtJnHRl57z0+JJMyOqzHSn5nU5Y6TgkVmF9GuaGYOQaXH//9pkTYw2+2QLfcmHltL/7YQ9un5CBvhkXRtzzu3ywnE4nGubki2RHjqwFmf7oqecAHTmfIQ1LtuixN+BcBVaVBIczOYnrs0i7+MWF2++3BBuanjSWTVccjWaI5L5A3mPvfDobj1n3up94gWgPdeSv5R9aPlQ1UX0Zrk/DIm7jEEN3DEqoJPo4+s2s8SYx+HaCA+YseZVTS+yWIaMzRvqBbTglxJidBZtb2DoRg/gaRO7ATf9cuWfZ+17vRey0x9B8MFEbp1FkGFaVyYi4nkcqvyCm9Cw1heUwxUEMUzYk0bf0t2avemtnagehNx6ldfBS3e2dyrj+PGbdyzdrTNa+iOQQDFWNVngj7s6BU2jQya2+pP0pJfZpCXnBL2kmoDwz0XO8BSsLxYF0VxznYtA2bhuSJUSnCIzVls2Wdvd3PoZRJC0i+gT5H2T4oGz4fWGEU5JkBPC0prUNOg3512HhAdw9e/Ns6XyZZzmnZpQW1+TSPIUzTTjQ9cq93cWvWuV3D2FteC091QsZHmmbjXxLlZEFrPhdHUXTifKrU/Q0ctw70XVWL5oH23OXSgrn/e/dO38d7kzC7BbOTpGGRlSola29bYnBcJssGrJI+wczUy4WDhQmiSciSGfR6xOPxiOw1g/9n8Pn9U9OeNbyHIkDGSve7t735cY4clccgW+2wblHJLt9/lmTuNaIlsiTzAibbKH+dJE1XYxbx7T0NRXM5OWsesuWyk48aTh759w16cvinX7RFxWNx5jod/b1JLmgL66v9f0076N+wOm++CK2/r3P4fOTw63506XZK96y+fIP7n6IvaCQHCyHJX8jkVN7mbjLM21thCLAYxsUEDLY0eMpx3Oyavx+G8yAi3B5zt56Yzy68hwuA/eEc8l9gRrEH+FfOwc7Kib9uXMF+8R5n9l3LFA05eTScJbJ3fcTrxVlk0WH19PzV/Lb+zv7YXADF3fwpCnbjQS3lC9ifQwXjaJbjSfHlC6gKSZrAgm7NvOWNEvolrxiRB7BJYOWjR+HjcRGGGa+hn/kT+flzuX+043/FeMFKd7GZRxCB5n0HWDoGL9zh7qYNYreJ1B7zE6dHyffrB6C0zhowxzBydjOwa7sZW9gPDDIFj1B9ZQFQh3UEljLLPlZB9E/n0hsJGn1aSyZCMJAzYQ/d8Xd3t8u6pDoTZfcXtjhcODuxS/zJy17awdB9a5mXDJNKpZbw9ILmTgh2TLcnLPirhmv6YNh7K5knvG2B7LGNh7bsyZM4jvs0MKg4ZKEkLeNjW3B6iIs3IMHPaFTJXNlngVfw3iT3MQ4HRnZ2p6J3Bi4hJI2fcOxDjtvWYEpgCSFc3+RRxWhy4SsMvl1MYvqcbipp/VGquZga/Fced5sYdNI63W4MQ3T6xhfbws6ISOK+xntD8MOGZ5p5uAtREj2IMItBrCJS9HIEibepy3SY0swO46vSL12+tF7nhWvays9L1LUEuxE25bserKQkKrYBle13WNCKkXiE4KNQyzTTOFMx7lK44CJnm8EIp3CYDJx2fyndz8+/rgud8GXEckqWi1tCrXdhDvzMI8xRDFyy0tewZ1/5RpToohdiB7rjC1OTnxrSIhrBrcisDAF4WEY/QFuNA235U0XFM0VVk8FWoNNuC9QEVmKxBwyEInseIopJ/Nc8r9sRvKCoBrY2V6L2EW+SY1bmlQBrhc20PQkTeLC/w+SjeWmh9aK/3D9P+8R3pfMxmJInRuJnsumZJVvat9PvPtRt2clK2vj2Mnhxq/hmymYQVNB+kJ5aSMiz/2L/rOcpSipJLikA8hGT9J2H2pBJDaJvJiHZOhaJR82naCxWwxHpklcGrgJWwMw8smNP5TNl1VNVmF3PSa35KLFDdbiNwJ3h4Asz/FL4vXTl6FFQxKAkkx/NFg9RrEWQ835ywW1g7UjMJiIx+K098X+iX7PpIcZE/RW+m2SfQy8G4SRzuH2wqm8EyPHUbhxzYGMR8LSWoWWZd/Lf1Jc2NJBpwcZcSxO+AJAGb62I1UGSnmROH/3w5zV7KK5wutwd5F5jeYSeN4eC47/9u2kV/t+Ye2lSFEK19djsNckTF2Cr04MN2StZ+Us+j68fVa6sGiNPPdwmsMnoifbnC04hY8NpJ1aMVS2Uwwmb4zOm4XJk1Yep+mk0V6mEHWiNdTmXczNWyjsvNN9Da6PwxhxPWIQx82xZCQDmU4JWjeLG6BTR8E1U1xXJnrawTjKRhJ3KA45JXsfZ0AoLmXqBtxsDDbmRfIPbxzOW8w/9eAMdiIPefMwQBz3I7aKuhc5kHmIQ3AzZ1xKJEc/GGJJ7z/hSCQcLqVbowWn04lee9r5sn74RN5CUcaaO3+m+IMH537ANbRDtF0Edvx4lECQU05cM/TuYTNzQ+MxbmscyRHRJ7bxjR8kR3g1OZCTMAdL38IPnaHuyvHygilfYLHixMjx8zc+Ruu+RG4NRL4rrJRLpLloBydubKonMyX6othXjIaMxZ5OXGxE+2LyPC56GHCb+3QnzYQYGJ+TZtLafYPQzqQdbfeB8f6zWmXjECJa5oBtS+NX3OsBVZB9P3HvUs6BzQOVc/4f4eoEhNdhlRwyyOAW3tidOFZgx6zH87gNN2aio/Q/W/h8nb2pSFwpG3ta6dbJJM5TbdB7W7A9lyByD+6dv3muaqyqLdiO+5RyDDS3Bgup1Q0tK2P/AO37Ct7FE99LJgevXCyPEB2i8rHfv1jZ3df1BEZ54TuFy7F07uNbSfWeEqhqEe94PBqF5ATMfg5fnXzcXLJQ0hxqErkon2mOdPZ0vcRg3cZeyOlqzSCTxI4tbFlDcth+CCNPSmcLc5bcn9z7tB+CKxChJZHE8CwnrPj3AYyVVeFCd2A55GOxRDSCE3R9526czV3xHdk43DBxArc1z8ItrFDTmQKXdqLyww3apCuHQuiwptYI3qq1mqRFUWPPIKkGZeyTl0dxgKQKcuZiT6d9IVxko1SItpHOgvmS/LmSlpH2a+gUnUZ/vRSRHUKjzsXh8tSbuOdZtpEVi0kLSjEAB6Lb8R2zFuLowoHYOmxOwNQtuHv24bmcBc/haHrumu/EKOl+FZHCddpvFyCI2IVNgMqG541m0aZwSge3aaTRyz9IaDJloP35u78LjFSXLJUULhT5p6raQ11/g2/DMIVAsFtYNefOCIY1Ogm5mguUpM8SgOglILGFy3BxdWoc4rMwF4LQNbj8yd2LdaHasuny4tky/3hNe283rp3Oog4s68KrYm1ASAWG7WpJgvT6CRwG4qYaODx0Sc/+zuwXv9WN3mx1wJRvL0Q4fvHoSlVQnodg36Il3eSBwJ3a0FiuFaXz5QejR4uXSrvvnnoCYzSE3Eokt2ighH2M+hLu5EDxNjh2xkYhOz6GnhnetZPy4RdrY3kZX0yOWrJF6KTs79hmCYDNJG6OsU33h0mY/ht81RlsPz5yQnSii82FW2Ojew1Rs7xstqawtdMvmKTJKAMDfyyip1F7rugeOFU6UxZ44v8T/HESpiw/FnGTIqafTKSgtbef9AycQ6H1mcs/ws3O4Gl3xFM1ERAF6Id2Yhgwbf6yT2R2DAWSdzLmUXok7NhPOFoFD7BwUd+gDpQvWoZOls4WtvU2fw/fzcCsRVayVtz6qsNaLP5T/zOGRAc8ImBm4G0GAEeDG3MwewWulE9VHN48kruQ293XhcvH0C9N/ZbKSg0oX7DItg/3alULhOppPrcTPcfoSHc+ZqVhsyQG3jAUj7BqRKHNUv76oryZovcenLmOfurZTQyTT/njuCTyhVrDYOwf/CEnKZpUvMG7okVMYN8kTYA21zqtJr0H93sedZfOFGesHM1Z9jQ8brh4naa7eMNLquQOSbxIPCzSsxE9q8YdYUhzcK+QZhCHsrBXgT05GWTaN4vmUGNuxHdo/bA74js+2vgP+HaIdkbChX+Wl49mBtEjjEckRcTiNC+Iv1RXkvsm4WTgNq25RaBooLgNWzMw3QsPv4QvOgc7/RP+ormS4tmyxkEUSIxJc5OPBRW+8hAQBFKoSVqktFM3J9pJE4407E2S5bHteSkBe/vxVfUoDfy2exea/w4i2ReB+0rOya6HD5eTC3hbudJDONDxXSdahluPrmXnrBRdvPPJA3g4C7PbuAZqi+SJGZ0Bl66xndl/q9uSTZIisrv8lKGU2BpWE9L/CYwR3qRhKSqMYRhpDbUXzZQ2DbdhvE0mFv+AOIghTawhSeBkd6UWeaqLvhLkdr0JC7wUe8LUxO3eGp405i8Utgy2fQvfzsAUQvaSTLYLaM87tPMEnKTEZ87D/9femT+3kSX5vQAQ1M0DAO9bJABeOnmTaqm7p9Wj6d6ZnR3v+t9aRzgc/sHhsDfCEf5h7fXMzk7Pds+6Z7rVkqij1TpJgodOgvcJXiJxpJ2Zrx6KoCgREkCCYjIYZKFQx6tPvfq+rHz58i3dgNtd/RcKQgW+F3VGiZGNDaQjG0eus8699qq2XaksGvpeX7p1a72B+S0F6djodfWc0RFob316/v/Ab1/CFPfBYmI/TkWuIuG3u7jXr4+bvjSXB8/TxO7uMLeuqPWv+iFwPtDpCZUeW8n1jzeg14KiL/CGqRE+ZneOWW5L+2W9vk3Lelt91ebX1hWb2kfeBZUkF8chtg61V81Wl02WtY609sLNccz1yDkOaBgUSjRlrqQuL4ooMjuuWNqUl4KeHq3+pvOefBcqEH0DLdz1BVh8gVH2N88NnSudLSlcLKqYrGwZasMssLkUJ0NyzG/I2AvJFDazoWvkx4vaM7OhN6/d/G/SUZdsdnJTI2i2Dxx4Xme0jZwvDhWdWM89EjpeOVNxafjSTbg9BbPr8AqtdtKEdRwVjNH29FE16xh7DfgFrsRFJfncUYPVQ0VzxdYxsU54CZbG4OUgPL4G331y/1L5VFn+cl7lTMW5kXN/gH9FnxLmb1TJt8mQ5AZaqbd5bfFrprdYE1D8a1qKX3m8+WNjKGHDlH80+8e0xUX2mKqVHC9UYXQ/7C6eLs5d91Q9q7sFd2YxqXRoHWWXom3WaJirkmPOOkQvi2bNe/0Tuc1a2sl8STM/kGBFN2BjPfpqHdYWYPZHuFM75S1YKLl091NMe5CDw9WyjMOHHMeVmUTNJg3yptz09HEb/CmlatZmeibYYY2p8xtGmwrnS7r6e67DjWmYRN2Ny/A2LN57NfeGY/cIvcVDDOZh6Q7cv/DgomexoD7oN4rxTfMQJhOmH/WcphTIpoPZ7TgnMw3RcpmStgAAIABJREFUOoG69ou7Vxpe+DqHOvvhCY0XUtFY+Dy+k2MrLvQUC0YVlFtV7CPCGAyyQSZg+t/gu6ahs/lrbve85+KDTzBqi+qOE1s8JVuqwtAn/Xay6YJS+4HCl8/2ny1fLKucq7zw4KPrcHMSZs0klkCTjuKk2yj+UXzWOHoUHz7zcVMmEn/kv+zOV22DGoVFz6uiNQ3z38F3bcOtRQuFOWs5RQulOGkBB2VhfhjsS2CtVwGnWMlN0VIEdL1PhgjKDvf7xh1fKD40zqC9r61uzFu0XHwkfCh/Ovdn/ZevwvV+6JuGyTVYpbodWcc5uDlkK4adGawUfJOVC9kKgp4oeg2ixgCH00Ze4ZGWYPYlPP0e/tw82nBi5Zgz6jy2knPyWf3n9//qPjxA0/4YjR5TPU7UWc1vcMlc7h5ui3lu6JfeOqi9dtD8TXhHeYZSn3F6ojln8XjpQln3cE8f9C3A/CqsYF4ejvoyX7kJMva6UuVTdeidxMoUeotdEqFY2ijE5mG+Dx5e+fGyZ8ZTMVmF+UhzsDl1Gk4nRkpQd6D5pOIXWIWovVV/0ktbnUr9I6GwodDXBxsLFoq6+7t64foMzFiujJ64d8K0w51oqCWOld+IrC3AwiMIXL77pXu+uDboNUowZ6NDBRnsAiC7Dd2X2Vi1jmIi2b/r/U3VZFn1aOU1uD4JM0vY66M6YE3h2uFVqs0UTXyY1Rx1qkGlbAFhnngVQzkiMzB1A65WBouPR4+4QsWdgYtGISamYZuHkmc4Vc4qfFVH9U8290vSVc1J7gIvZnIvmy0rnaloHemk+Pr5dXIuk1mKXVdRnHObGzB+XcEKZSHGWS15LnEV70B+G914brIyXsH6FEzcgRttI6cLZvJdKwUl05Utg+3fwl84UwIZ3Tx4FntRKcGBmlBLm6a4jbIQd37dnFoo/oTinqw8uZT2vN74+MHHJYvuY5Hs/Nn8hsmmjwY/+g6+G4fpDdNaj5BPBqdn5GtCx7F6y4msK9dOQh3CdBH6NQDVPrwCi6Pw4jbc/if4338Pf+9+VZgdOX5s1e2eK/FN1Xff7/kJfuSR5DYHTybLLVPaLaOdo3zTltQm8fAQdZfIx5xF/SUU/FRrXHr4SfF8YeGyq2X43J/gm2fwdB3WKI8SosKceST0DJlMDA6v2VTvEkC/6SPW1ngKhE2Sj/28sXGcTeLPLYGzxaGS5hfNRglWMKfhxA4Qg7o5yEQwXeSq8rHwJl0P3wTvNd/R+xGF4pl6T1UYhd4fbPAsFnQPdPTCtVmYIwssoqZWeBOOFHxHcVHUGQ7rizD3Esb/BN+VzVVVTdZgUN1x1atB8TGvuaiUrrJTKhjq5DxE4bANRtVMReliya9u/WoYhpdhiZ5XvOoIZu9OuhU0xY6FHm0OU//QQx1BuTd78dY3gjBy8UFb6WKhM3K8eKrqKnyHD/MhIxsHv6PnVDmVySdLsTfJS9k74MvHYYktw+eKF0oqZqo/vne5F+48hxchCL3CaGZyxGAcqXWMouVCER42cmG83nAUg+5x4lLaQT2tyIQeM8LFf2IzMPFn+Pqj4W7f88aKibqyqcrzz1owU0IRVRLKjOSw4cQd1OVAIeL6udILyVyvGXVP++gjqLcpGliaYxgnMRd6xXixay2PMl8WnHvS+i1cHYIn0zAxDRNTMEP5V2ZnYG4e5qdgMgjBp/B0GEYGYWgQhgI4Y6X+HQrAECVPHH4Eg4PwdBBGHsPjB3DvBvT+9fVff/zo4+bRUycW8x1wxIBsA2xGzChZKL5y7wq6cY5TgmsHBcRjFz3aw/vgxxQmUkPSJO5Pw0VbtlGMU4K5Q4Unoserxsu/g79MwDjmFI1txKI4IFnZFNQ2sofsfYXetDNimHyVE69znaSHk1YEYfx38M/NL5prpmq6H/cYbuOI7XgWqTz2f1DokGlbcJVR0SA0blNHuKfl7vC4QNMMxFOogJ9Swz/W4A65OwOtN+DqHMyTGcbe6KS1LBntj0VinO+J3mZp3soN2HgEj2uDdUVzRT+//znGk+XwaD4cCpLmH5zeiN0AmCLXiXGWdaN1hQtFF+5d/AnuLcIihkfgQGrTcqD7v8NL5n2srmmzqwdDLTYiOJ9RGH3UPKxqIwTTD+DWxz995JkrzVnynH95HidZzEU156rEnfr4eZceaJvTcUiFP9QZ5wbPlM9WlE9UnXna8gf45iE8noFpHIe4scpZ/qjqcN8sendUI0drKaW7MnqpeTO7MdlfT/4rBsVsI9HIGqyNw+QjGLgOdz598HnFbHnu4rHqiYpL/XhrsJJgbghK9YvdGJzgRUkHdzdbRpDsqB5x/KEOnlCccY4AJ9ZFznzJ81WdNs49PeWeyz26dixnzVU+Wd050vV/4etbcO0m3LyOiRSv/wDXrsPNb+Evv4XfdfZ1NT5p8o/5fUGvN+irHauvHWvwButpPnqvN1hXG6zzTtbXjHprx/zecb9/ot4/2VA1XlM0U5wbyjsWPW6EbXZwYgJhMHJfHfU/9/7y5l+jDyebAuExpgaFZZfqxY5wbr+R7vFmnyR1HVJ+HycNFWs2yudqHGFn4UJBz+OupziwhR4S80mKcRyNaSXwMERzbjBtSe3wIaXNTKGP4gw77H0zhZ4DgyMwAk8uBj6uHfOef9KCqalyDDt7bOKpz7mdjXc78HyeHAixPYwUfMMzS5LQqypA9cBmoNDXu0OuzkCLReixQza9Mo/tI77GUv+UacluxEZgsHG0wbPo6Qh0oO8rFzvfuY1MAYU3H4KIYMYotJezjCKjfaCjerqm5XnLN/D1GIyq3jKA9Y01KnFyhKxaz5pm7o82MNkmkZhy1UdfwfIUjN2Aa/XBppxVV0Go4Hz/OYzAwfFT+Azr91ylQW++tBR8i66MbEc2Nrh5bNdjhuHi+dLmF2cv/3jlPtybhLENnoIROyX5UcSxsiz0+BQpoUczzFxmHys39nGovDM3DzokehXCEzB7HXrbRs4VL3mOrB8qmi+6+NNFHG1QYPqp0V4yVU5VcWwakxV6PgpnGsDDqAaVBN6Jr31qfhSbnWl0jXTUTvnyQgXZ4aPHF3POvTzd/ai9+3HXhcCF7kBXV6CrY7D7zGBLY7DZN+9zT7s9y25PCKfHyFsqyF0qdIUK3SEPrlnKyw/l5q/k5yzl5S7lu0IFBbPF5ROVtWPexvFT9S+bfC98vqCvLljnnag7OV7Z+NLb2d+OYbh5lK2O2jgaN7t/LHqsUswbu9SdDnTZ0/WcMk4NnzkaOlK46rn0+JJRa8zDLOoSme7RV6Yrld6HTX3Gr99J4C2NAe1PYVLkX9OHM88xDMONT5rLJ6p+cesLtEZPKNsCexvYNU81T1UabLYwwxy9byrxTcHzuM0hyBVmDjTRr6I2HGPtH/N7Qu7ugbZe+AFJkqlpapDl8lO9iF4wnpUHAUZwuAysD8HjhlGve97VFehRfW5q3Pc2F5aq1Tz2HZ0APArVgW3MGXRTVE6VnBtoegIDUcBYCGVCYAOV7E/crmWhR7FTeogpHjfCKzEzJ+I6RFZgZQD6OwKdxQvFJ9aO+sd9OOseVyrqcMSKRHqvXg9ThWKb46j4Fgd1Y+ThaIPukfbK6dLChYLKmapzgZZ/g79MwxwGyJuhhJyql9OZ8cUrBByJiI+sKfTm06T+03ZUOzBvBPZ/YxsYXUHTfvw23LzwoNsV8mRFsguWPK0j51HrPWjXUyYYNgvZN0kvyu/y3sPSg12cmjOZZRiEqB8gzL9zmLIcl2FywJ4HlwqXS53RQznLOYXLBa4lV858Tn4o37PicS25C+eKaiZqfE98bU9aOgNtXQNtXQMdbYHutkBPxwDOltE10N410NY92NHW39I50tkx1Nk50HPp4c++vPXL7+HaT/AIMyJU0m8ZjtpVy4X04ou5PrGXwmFXxdvmNmbgaq7H2DzbaZAIvTGVGZ39bWWh4hNrx2rHatDoyzdwOKoKYaJeIO7yp5TYVGH086TkK17bknlUeS/q0SWXkHpdwNWvYDUE87eg9+RkXe2sTynUURR6fNUzfYfIGLvytT1mBiu/S0VM+oZxK4O78el4BHi14R33Fi4UfPzwo5/g9iK5blCA0qz0fEvILQ0xyj4EsBGJrgxD/6mnjaXzpS2BNnTC5hh2HC9ENlnSV5zMDvq5Rkx2zJB8FJ2wnz74uHAhzz9dfRd6V2FpHTPNoos+mYrD28aD6OLx1krlY5QbC3PtIRaeu5Os2yCMfwVfNbzw564eL54t+uLur3nKPapAdHV0K6lCkaIlc8VJb6sqEFVaG/XNNhsdg+dL5otOrOZ4FovODbffgfvTML8Mq/SY4EPJaeC4NnG1wmXzieT/DIifYOXgp00JGaKm9o9Nudg6an3wFtw6+7TVFSo8sXascrb003uXbsF1TPp4hNmQyuMfap7MFjGZSyYvPXuBzN2d6DVWY6op6JxHbtMYLJ6esNbo7OuuG0OLG3/H6nwTfm/QR7/eMy9OX+i/YLTjWHSUCD/91tOy9W/C+jrKeKMmHVTXheMH2UeFaeYdOLoVe+spDz1eZFxikrnkPdmWHzx+xm0Ut++gRrvBqH9Z51nNL5or7Ah09cPwKr4nmpaRqh/KTjJtU3qeVLiXrmPJSxnVVvYCcV2lPid8MBdhtg/uX7n7WdlcmW+sHhtb071H1gWCR33lGqPvAj6lanoA/CrdP+xB4rPwOFmadaRmqqZkpuSvbn8xiKNAF5ALDWpJXsuS2IO7simKBc0+mnYO0yE8h2ddfV0np2pOv2zCyXfyMH8faX3aAan3HeUTwRRnRqnx5c2/KlnAxK3X4No0TiS7inSs+rTTi2ahJ9mi2or7KQ9FhCIH8PWGE4Vxp2YkDAuw8hAef3b3s+L54vyV/KanzegSdJHZRk+zDQfLZlM3stn7k6ZaZIodRfiQWyAeX99SvFB8bPV40WJJS6D9L/DDBMxwtyxZXOaDhvXK0pDF2FJHk56rHNc7SozBiSGVJRWhDjBCFSXXVvgVzj07cQPufHL3ctOzpprpysrpstNPm7+Gr/uh3zhCPTrEIwu9cOag/6RrkPm4moMMac4WHJSvWLPBRJKL1HlWzgKKySkndS6lecBL6C8vc/7hHOo7PWH+PUEvaifIUXmCwiWPUujXMTLVT1DrZWYjZj3BS2GFxFA+h9PMBmYGevD436QvOE11542H5cvgjE40TzA6oXzGz/s/rRovrZ6vaA20fUvBTKr+mBYoP4Mc32U+kSzOKrUsb6C7wnb+nOJjiUfEwS1UKXWQQWQCXv4Rfn/2+anSyZLzgRYcvm9Xkwawqqs21lJzzJvAqVfMqvNGJO/7pXpW6cw2HMRlFBn/7vqvy2cqamZP/hnHc4/S1HE4sYKJc6d43mE7ZkhPfySCMRs4hCgIE7+F3ze8aKwMll/s6zbcFEhhd+A49XT+UHWj6B6mZGByT6xyDYZ/yls5XvE31//2CTzHxNdcgZIGROH3FENp1j21BgCTs7PmU/Q0GfP0eRU2JmCqF3pPPz3tnnZXzpZ3D3dxWL2BWcmx8tidR2j6b5WqPo2QUNcwnIPnKlInovj6M31nShaLc9dyCmeK24Y6b8KdcZhexbztpsprKx6foPAahJYxEGV6FmZmYWEKZmdgfgaXJ+dgfA7GZmFiFqYXYH4BFmdxHr7ZCZiaxu0nJ2D0KTx9AA+/gx/+Ef7pP8F/Lpkrzn7lzFvNa356+te3foP+jWPcPYsiSLOrazFOAg/LuLLP1LATHqypXomV3Ub2m1Z/9XTRzvTHYaMkdPG2AV8ysqn3DjMvUxIC8uFSjg6bPdthHM42Dh9G+SbZ4B4HUzriyTyUvWiz0xBWPr5VVagpSOJ6925TxYzyUOdiqoMzg6cqZ0trp6vaHrX8BD/N4HgNTBCxsYGhlGaPqxoYxWPzyJXD0fMk+3Htt1TBnahUPJoSg+GUccL1OBYdhoHzT84WzRU2jzYbHfRWiwJFOUmUrU63heIbLZY9jxWI5+ZML2uuuTaHnaoQenurjM/vfVY0X1IzVncP7q3wVMiYVXJjg4ak7wTMu2/DMkB3hOPxYgBTMPMt/NAy0lkwX3jqRYNRikmnzKYprXiws9HpyCZJ4PR/pBdlRvvj1tOjpy/fvnIPHmDsDbZHkHx4JQfm4tun6orExhSvm+dLQMcFBSKy5wY7mCIb4ejGOmw8h+dfwx/PPT9bNFdcMVZx+danONviUXqQVWJyjhNKe2QSDUbioGfzpnAaklqjbeh82WJx3lJO6WxJ+1D7d/D9DPnrySFDbaP5BMUgvADTj+HhTbhxE364DlevQe81uHkDp/m8dg0n/vzhKi703oTbN+H293Dte7h6A67fgGu98MMf4Q/nR9pqJuvKpsvKlktzV/Kdq0eMqCM7djh3Kc//ov7LW79S4YY0ojrbQVlakzelsNaxvHLAH9FldVWqrb2gXDFVy6AE2Kys/O6M2TFVakyqYZyAhp9Eq8vfwLkHsrMwgIZMG+0QwNKwUUg+OlPlaSVOMsWDu7DAyp4zz5/h/9lDRlfmxPa5yvj07pWixaKc5eNnX5z+N/i3cZr9J4bxx/i0UJ4ZHGTJPnRzehDSEh5YbFoX72XR45u3EnoWOPJCrj+CByfHT7qW3T2BC9hjdtzAGS9x7I0a+2riV4YBNdUc64qdsQlVI123BuePxHmKKI0lvTY2GBf6ut2hQu9Y4wAEUL8odolnziUFfncZf8ueeBvo3ZwcGDoKZQYnCr/VMfhR7rL7ZLDKKMfaTSNAVFKydMHBoTZolqHGYxSdOQLJZfwe/rlluKWtv/0b+NMUTLOBkLRBj7th/gRzKCjbCGidcDZz/Bqz661vwBpN50SzHFBipSVYegT3v7x9pWaqtjhUevpF4x/hd+iPPqSyojpQ0fANMm1w8MDmAD9UOaVpJD3oPCC7vnXgbPlCad5STtFUQetQSy/cHIYnARjqh8AADARgaAieD8LTfnjUCz98cf+Lrr7OnkB7Z39Le6DzfF9750BX10BXx0B3W6CrbbCjPdDZ1X+hq/9C50hPy0BbV3/3hUc9l+5f7H7aUzxZnrOUn7+Uk7+Y414qci+XuleK3SuFuXN5jeONv7z9K2wIcawiupgwUBITXiddf5TQm6Y0Hsi0sM1Jay2yj3WUB6TqZoH96dzLv1XoKezdtPyolHR0FPossvTpbsalwcH3m+bnIDlR5eP0RE5abzqHzduT1vqQmoNTO2g7xNU3H+exbXp+yrWWXzJXcvn2lUcwMAuLq9F1M1A+HMXxwij0bMi/JsbG8miamv8WLdryNe9nvnnT2+gGjmOcvQm36iZ8xZPlV27SNHjZRhY+hZwNFYHQCxfP7c5NO8fbsCstvllq2G1zFNP54TQMp9OZhU9Cg9E+0OpaKawbrR+GEbIvUYAiOPp6Lf1Cj+fiHFeKaQxmYf4a3Ggf6spZcdcEa4xSDGogkTFj5ra5ulSsttntmCeEJnTCtEQY10lTcHQPdldPVbQOnR+Bp6jYyVcgbV5gpTKPwN2PnNQsHMZmIIxRPRh1HtmIor+euKzHMF/5A/ipNdBROlfpXnA3PWtAe0Jlacf+oKRlLGlepqFIIkKRJ2bt5Wx9OTQv1UBL+WK5eyXHE8qrmqz2jTbUv2zwjzacHK+vGfdjL+WYt2aipnquumiu0DWX75rLK1jyuFc8ectuV6jQs1hcOF9SuFDoWspxLed4Qh73YlFuqDB/uTh/vrBsuqpp9HTzwJmOkW5sBgbbOwPtrX1drX09rX3dbQNd3cNdv+i9jEGohxURpx1rfTxKMsmrJoceZfwyr57i67MoOTCbBRoCdvFwMhn1UsjNAsqxOR+U5SDq5YuH37LfhywauyNLNdhxmz2LDPxDDkxrg4nG9LwifDU0rsJO6Ze5acEu6F1o+JNkuc3mGAqKsRbUTXHSaO1rr5yrLJwvOP38dC/cHoOpJVjdQGM+iqmm2FtDfT0kT+aTRFKtP7yf1G96VFUbgFkrV5/C89/88HfeoL8xeIqjgAwcv0tprempMPvvuU/HgUOn8FsOxuHBUtREb4MiZauViZCd5TiKx8zBaOiOobacJZd3rHGIhV4NXo+qnrItbV3KVjBOtOl57lh130Kw9Bge/uzHTwuXy9T4WH5osyhFb8pYvP5AOL0JC5kDc77jE3sEe9U+u/lZWaj45HjVPXi4iqMoIpibylKf3orF9FuYKk87Y83UtRMjCDF88xVEVuHVKqzNo3t6bh5m52FmBqYewIN/gP9RNlN5LHy8eKH487ufo4PiGBraLDZ0e19/XalYy51mcSmhmfc4WAKZOe02znPZNtBePVFRsJDnDrncIU/hQqFnsTB3uSBnxZO/5HKH3AULRSUz5SdHTzaPNzePn/K+8PomfLXBWm+w3v+yqeFFc/3LBt9YjXes2h/0+UYbakb9vslT9cHm5qEzF/s/UVErjRSs0oDGCk5TU4+uXVyopgyCdoeaRwm7L9jMepf3HZxhkLQVdyZ/jR3HZeH4fJZjHurOs+Cxl4UmtCEZN3fhN1K8BfE1XBjT8Ob1dluW8xC/FODGSugdNkygwnnnsS2hPhK842z/mEYkuwfU3SG/v9lgpOLep/cYWHEp8f/lO19UTFW75t2nR0/9Af6FUx1gQhuOf+BHhfPG6ceGF+ix4m4u/kvPppbsZJ5UCtSnnlg2s+jRjkUpi9n9T+583jzW1NLXqpLK0kPA7TTfX1PO1TsXPzR0q7jCvEstTJY+9tpg7hin3cjGgNUcfDw6BtrzVwqqXnoDMLTxasMcbMDx3G+Vr/fbQN0MTIFA3R5oyW5AOASzt+HGyWmvZ7b0yp2f46N7TD1myV5yctvTc+d08hRgFNOLE/1SJaw3qiaqK2ar/gJXx2FiKbZAA72SqD9mu8ZCH4th7cWpR7EyhSGyjqOKohh9BGsQnoWZJzB8B368Cldvwg+34Pr/f8v5Cr75L/Bfy6bLjqwezl3JbXhBKdoLcF4GtiTSLfRUqakhVC5qlCKsyTRxEaLmwYzVxhf3vuzob6eo8PbOgfaOQEdHoLNzoKu7v/vjh59cufklDvCpNHCqhmJMwrHpt5zmNqqgqBX+qpw2KKGEBx4KOsojMyXPjFo5Tt3mufTVMXzEDptmlo26qMkp9w5vhCjAyjRm2cXr5eHT6kHm/jbTqcVKjo4XXMJfNU7LHK3Lo9FVXKTdcGIFoMlbaLpTIEscX0GUiCuBoFqsGgNLjY43G/heoHTE3DbNlcFSjC2LiaVJ2MDSuqGvCzEdolvbZjS+OOsJFVfOVF++/fkjeLgECxRRSbHMWtn55V9/pIXNn7QFptOBvkGn9K7xbTg+TnWm8Qs4wDhMfAV/ah3pOvWk2eihblj7IdZxvmF8XXTD6aLos+5i4QoRv2UJUNLw0YGOCaoGJPSdA515SwUng75+6CfVMV1f8etO95JSO+qE5NsWHoG+ulF/7kJBz+AlDDfOo8cmDTQ2HZJFi4QL1+OdMu9MiVH/tLl8tvqzH39+F+6+hOfTMDmDhvbsrOV3BoNDJp5glpLBQRgMqN+A+TEQgMEhdFUHBuBhAB4OQWAEhkZgcBhd2I/74XEAhh9A3zW4/je9v/740Sfdg93dfW1dfW0dQz2NQ+dqRmtLF0uOh48eWT1cMV9z8dFlTPZit9uw3eabuumCUvqBZ6RSbzx0MqxFXL3ZZ2/LykJiOTQXko4TZ6ObP/pwaALKeh52YJEnOp4eXWmTsmTxyOqiyI7lt5ZsGg3EZ6WnjKwXVAoSZNqXcoFTACgfAvtA47EqyTDhGkDlUkVBj6uqG2Y5NQRigunVcNiM4kK7kSuH3Dc8RJe96tk2I4taegwi2YhsoNVAj0Jc6BURoqwlQx1Zo+fzp//+7xAcNVY0kTsXFMupu3QQi2n/YnNHng+KKvUb9c8bXaHCotnytoGuR9AfghDn0TXfhWm8K8syW0fUf8W2Pk0qYrrxMdjBTAWrtt8iYWo9Hpt0Rw2MMrfDIRthtLwoPIKS1A1B8PxIV9lUVftIB46DyMNapeuo9U5ZQembpVfqLfWaVC8wYxR5J6XEwKibeqNzsDN/qaBhsnkAHjEfzDKLoMwYd2aS8r/47sATuVD9RsR0Duxk2RiCxzWjdccXXZ3DNFH4Cawe6UWE94wjF7Ba4o+uqDabUWh09PXUTHjPjbT8I/yvb+HbG5jDpPc63OyFW734t7cXem9A79fwTetQG+Ut8XuDfu+Yzxv0+kd9/lFc8I75zK9wEI1v1O8f9TdO1Nc8q2yY9HmDdXWj/pPB+uoJb/l0ddF8ScGixxPKy1/OObaWc2wtL2/ZnbOa64xkHV4/VD5feeHeJeySpZ5Y5aJNdaXZfDyTyOa1iZ/4HUjHhueQ9a0/HqOocDa0TTncdATLSax3fOsjY94i/bSpKmI5gL6Jm9ZtOt0OPyTUCfPcr9vbeq5Nu8UNPdMvo4UFYzxoOJBaE4viGeiHT6GS11iJbDr3tl9s2moXPpDvyZz4yrx81VGN4YVm603DETAly2HDqDE+/fGzolBp7rqr4eWpr+CbMZhAMSfj3ZRt5VQmc507t0zFQK3CyUa4nSQV4+zZJkytMCZvlhpynOKOtGd8oyjNC0tBnDhTdARfsZd74X7VeG3hXPFndy4btfiaT90/1IjtAtYkTmFTWZ/MfjRsk1qNhpGm4umKM/3nn8EwxMKUaAwHCkQ4W5Amk/oFc9QkyztjxmVsTIegv36mKXeloCXQjU5YzBqUZqFHw4PH35LQq6eV/tmo27PFOPek1TvhPzla2zLS2j3Q0znQ1TnQ3dXf042/3V393R0D3aefnq2YrvQsetwhjzvkdi25XSE3LaOHOn/Z5Vpyu0MF7sVC/A0VuJbIc73qzl/Kdy26ikIlxQtlZXOVVVM1vqCv/qXfF6ytHa+pnKqunqhrfH761LMzDcH65ueN7Y8Q0qKyAAAgAElEQVTbcGbdXBQEHMiDGdky5mlPoloe3E2zsrI4H6oeaI0OU3MECws9CiNNYr+fMPGzY4o8Prj0msPJox0OTKZMHjAnPWluwzhv+J+fyllyFc6UXP7p8gO4vwjzPDQuhpM6RTCEnk33uBqT4JvWofkBP1MonxnHQNtzH64+AkkZNiMqFoJsWtOypR3obBgfh5/C0zD+GB784qfPS+aK6uf8mFaXch7g46a9Npl1f7QvEQeSGMXGqb7myqWqUy9bv4I/UdIuNW5zdQOtC4Zr+rlUjGqqPirsyk2v4n2QLDXkwzByctSXs+RpG7iIQn/CwDCh9P6oLnN+0VS2JvoEsnH5BPqUP7t5uWS89PjGifzlfPeCq2AxvyCU71E6XugKFeQtu0tny88+OdvT39U10EFOavRNdwz0tAe6W4fa2oZaOwLtXQOd3f3osO6kUMLW4c4zA61tQ93tfV2fPP7ks7uf/PLHy/h2WG2Oqywlt3U5ebSLaGUZ/c2j8F3DYVMTLKUXkBw95QS0+YT5uimvRiwWY9OeEuujylvt+pQXID0HJKVXpplyXmGfMtZWVPksRxZlA8+m56raaBvqKl+oKZgtOf+ytRduTOC4zRVyqmxEaaYuzJDHDl5l5bM2ET1SKbb9aRP0CKgYPtqKRiWSvc8HUf1qKDN8SP7LjQG7z9T+tGUY1icg+Bf4U/vguZK5woYhv1GOzlIEx6+STjXOJz0o3+moylVmt9ucmDaozKif9B9bOt44cu5f4dsRGJmH2WmYnoDpKRysuDBNH6dhOh2/NAxybhbmZmCG0nbPTsDcNMzNwfwczN+Fe/7RhoLlkoan53DQvxuhpvkHfdB2HEhJFpQy5TH2Bs99iIx6v9HV343ZS0a99UF//WhtfbCWk816g/XeYH3teN354fM4f2Q9RYOwe5r/ckxIE63X/muOFWk0sHOykb6qJX0vp2wf6MXGxJ2qaw4RoHeJw7bQRYzOX7IpLN6LNFOSw6eMgIN+2IRncdfeGz6Hg1wdvMy6n7Jzp/FAZl1UWohCj6+cmBIWxxbRRFhsCB9D6+kXP/2yaqq6cKGo6emZ38NXT2BkHdOMoKFpZryLB1JyLDab62Rvs0pTby1Zpmyk8/BLsshpK7YeTZ++ajOUa4gtVx5sy42GMnEjOKFJeCMaHoWx38O/ND1rqp6s6e7vxkSp6vVfDWHgzvM0Ik360JzsxkyZWWLUj/uPvTpWM+n7B/if/xf+fBO9zNevY4zH9es4TDGNv9fhxjX8vX4dU3Vf+wFzdt+4jsMje2/Ata/g9/8R/kPRbFHhUknrULtRYByi4Pakr3jHO3D+cRrhhimieD/KEoUyiz1w7HrWmUxKqVORU5pwWAgvl1CTcIIc09o9rRfYVX2cwkX4L6/JIeMm11x/ggbbYaee2cvKjw+ZR1mY4MaZjbOtoVQowyL9LeGOWcqGyRGwCjrvye4abdRrN05yx92breNCbwbVoOvGxkOBMV8gT4fJkTatRuOz0545d81U1Rc/fvEAHuLQc55lK4KGNbkYWIX57Ydm3eT1rOGvM+45YEa5J9hKx82Ugm8Wej64OcBWb4Zbb1BK+tgTeNn18KO6Mf+5EbI683kKdXTcYHwXRwLsDevXn5WlgLoQKMV7mdE40pyz6iqcL6sbrz89cK6zr6sz0N412N7T39nT192N/od0/XYOdLUHOtsDHeTi6DAj8DBZa/dQ66lhf/1snXvalb+Wf/bZGaMIA9bSKmWWiSZwAkt+MSPdx9vqyDpsw7BUp8OWTeEdPGWddkZautmQvVnXLe8hplBjhefADA6+5raXzXN1hdhVgJEjHMmnjqePSmEvDiPLaRzCaG6ziz0rK725gF5fpWTtexBgNc/KUj7JBLnXrvl957rhoQA4zCyL3kbVc4s11eHIwucHDakczFzW+KyxaLmobLakY6D1EdwPwfxybBklmTVeuWBeAWVNIqVmAzwu2krn2RZP+GsGYmqz33TpKMWnzakBsLYB5OannpJINLa+AZHHMFQ/curkdO2vfvwFRoxloweKLsqWbTvsoOwT71ENUryrTimBx2X0BUb3wM8K56vylj0nVvPy1gryVty5y8c9y7me2fzSxeIC1aPI/Yop/utaclPPpKtg0V246OZ+SzdOvJCbFzqSt3r06MoRz6uCssnSjx9doiBCs9gpBqMPx1LswEy0NEU4DdnD5jqLvYvY1tC8E3Yc90wMWWVpWWs+fuLxjuSTxDptusyo15TkW02GzEMo8cTs0KQi2HG0vHpYlCGELxWUm8FkYLNnOeyH6VDm0dPaDGpIspA6AlrBWdO1sjudmM2Mf+x2u24JzHWZ/l+N4KOkmpaRXeTDQbE3snEUYoVx+c6n5Uslx5aONj5voJl9XnCSECX0Zn8qTen3SrlrLFLOi28SetWtiLLOMZqqe5VGKW5qSrTQYwtCzntcEw3D2hTOdHO7etpXOVGDDtkTKA40GhafUQdmoc+sKAjWJCf5IdD1a6NI0FNGd/+nZ56c97+or59qqg6erB6r8o3XNgUbGp7X+0d5ejM/RwSm9i+HHvqCvoZRb8OolzzdXn/Q6w/W+sara0cr/eP1p56c/eTBJXRe55NvL71axq+XOCE56i6BYqnGxLwo8XabnVbg7SU5R4rcLWNqPT6DXEqV4USVW5Ucb4LVnEfnHjcKSuLJXKdjUxtAuTE4Xht3xGG7WC5uknARk7moNemFk+nist/Lp1We7XrtkecF3STsi8tkqUGLPh6TwoYMVvasbMdRDPhrMU4HG4/PHymbK7vy0y/vweMFWKBBg9FIjLpJza7SMCWu5qiYuEmO0o0OeXNuNrbxeeAlthRk+bPHHgMveX5UmpKKO2tV/mEOrSFVV0fEuULxuNFYNBKC+Yfw+Gd3rxTMV9RNNOJkUqgD+AhyQiI27zLurliKhbLA+cQLKZZDp8wuM/Nol1Ja7fT95TOWmGcpo4WEYpRQnyQ7rFVVSRtUpZ5ogeOdtAyH4VOSkKqN+B9nMDGrMG4VX8ZDUFiZ1mV9wLjom6Y/Z8FSpj8mLck2srKtU4/hjWMbH0VevSDQ3aSScHHSDSht5OXAHxYBVR2VEcSiQ3/RveigYRQ1xrn+M8WzhWXLpWeenbsKtyZgbg1exVDi0WuyHt5g5eYErxwVr3pPlYGuYyO5CYAN2FjA6JGJGZimAI/pKZiagak5mF6EWfpqagomZ2FqFhNeT03BzDQszkBoFubGYfwJjA7AyAAM9EP/I+gbwBGPA3fg1m/hd+eetxdPVZ0OtOIwbn6M8fG2JDDKqPvH+FFllBXIEoRlNDVMdZpwODkZjByPmY6/nIkpbsFSKSgEi6Js2SrAr2mkCNeW9PPklLLKQ5+QhVDdZDWq3Uxsogx4/kfvAmRjK6GnEmsdZilWQr/lKxzEjpvSK2+WE0OA8HUh3njgt/ijYOAnHq2q82pZD83byl8hsLsE6MnFhwQrp5ZFrrN2SmZSYXx5+4uqmUpXyO172vR7+PoJvFwFHBkcDauJd5SPnvznpm1OoTRq9igy0dl3Yxr5i7D4GB7foEiSa2Y8SS/cvAm3bsPNW3DzGvT+QOEf1+D6Vei9Cje/x7nbb9+A3m/g646hjvqg3/uyumHS65uorxv1NY75aseqiqeKK6drGkfOqLQHPHBTP9K7JUxJ3ENTM9hHjDuirlOKDC1a2upMv3XIfQbYMUM+cS4CeibUlFs0+yJGlHB3vWqNkrjeJDel8tic3K5w+4KdpnHXC5cQJyXFtVweWkexBaS+6K7Bjly6+8Tbzk4yXc0TKj6v13/NIquGle+YesPAg+LenA6F2gB92ziRkqi8yU/+7yGBeGegqrH8qJDoc6RNi3HqRfOJlRP5S+6OoQt/hh8GYHgG5mYxf8jkIIw8gr4hGBrG38EhGKDf/iHoG4a+EegfhgHKLjI0CMNDMDyMGUWGAjB0G378+Y9XeNRiBw5d6cK01zSasaevp6cPRzO2B7raAx3tgQ5MhB3o7hy60N7f2RPoOTdytmKqPH8+t2ApP38xx7XsyV90FS95CmbziheK/S8afnHnSxzVcgKfQX5cVRuWmQ8dFZGTmpGk8p0w2924Qy3tqso6SY2j3bAdNjCUBcmRmnFaEp5MHSsslU/RTV8FpqyEduplYXUnzVfFUjeXWiEMtDdvNgHUOo0Wt3qf4y8oiSBqPR9Ge2j4o16pDXJ6DSAIdC/MtxokY75U4U5qmKFyMvGXtFf66MiRhcAOCWx6CEgHKSSN5vvOw0ly60ca89fd2ZFs94Lnv8F//xr+9D1GWN/ohWs4S9+TMzXjJ+vG/N6X/oaX/saX3obRuvpRr3+0wTfa4At6fZg5pNE32uQNNtSN+WrH62rHvXVj9dUTdUXzJZ7FwoKFEs9CiStUmE+Dzl1LLk/I7cFB6i7XUp5nKdcTynUt5bmW8txLuRj7sXCifKbs7NNzPUMfdVAg4Pn+1p6Rnp7H7RcfdV7qu/irW7/GScty8Om2UX4ePcUaP5Y7JLN7mxHxLMPpMA5hAAl3OZK/xkEBJTzNLQkThhLS5mkuHaqkZdZc1EpOhmj6Pswm0/yfrvKwNGOjguWh6Br0klsbbtXY6JJohTfLhKVXVTvuSOcOW+yDpSSPrPtqS6312kukmxRu3/SLYnwDbPpM2dcnE50374H832MC+pmhqsxVld49s7HD7TdX/33VwkkDDCNsuFbzz7480/moq7Ovp/1Rx4WhrlNPGsrnStxr7vyVgvxFT+FCQdGCp3DR5Vl0uxeLXKEi15LHFfJ4Fos9i8U0Et2Vu5Kfi3lFCormS6snTvqC9fUvm+pfNvlGG7xBf91YXd14rXfM68UWos4frNW/vuDJ+rGT3mC1f7yudaRVjXLkOdp5iKOPxj16aVT6cbK18HUeE0bjABaSBpJILQh7TD5+erKNqZA0U0Vc6NGSPYQ+FDYeDZXKmIzs+O4pX1JKaTaLCAxl0YFaq0qC5zTlLOXnTzigumEYdaMmh9EloWJYy6kEWWu9Kb26sNa7j/WcPGaOhLcTvTsrvtrHXMuPDH9iN03cX89LJhneJuFy5KMQ2CMCqgbTQ0HPL9b7bMMoMP7m+78tm6owwGYHIzvqyF3Jcy2orE95C66q+aozw03tj1tb+zs7hz5ixwumEAl0dgQ6Ogc6OwYwbQjlD+nsJCdMe6CzA100XT//8ec4Fw+PXdQxJNac1xzpoZNi8zbllEukmDJc55tpr3UW7BxzvnYKeHWgOZ9tp3hKfPTMB3WPKG97Wi0ZykWwaUMbzjVtmMPX8DKUqmzaKnUf4g2/RcqtJSTtY++F9omn7vRbjsTlwdVsPJMk0yL3vpqaqnYk4eXiUlvP1jp/SZtSNTARmk2EpW5sqiTW6za/UGY77YLHVXH0libB2hCYhVbFk39CYA8JqDqshJ4ecHPib5/R9ajbP+b3Bmt847UnX9T5x5t8Yw21L33+8cbzgRaVDIRTiPjR1RNPJ8LmNq/k9dY1FZRrjB4+0yyicpiPCRlvnLQApxQgxwU/VFk4zyRtm2XLohYpG2dmj49lRMuPlAETOZAybH6S9xD1607N3E0h4SszUWDByYxmRkqrXneUFK3TQs+n2lwqLBsLPZWKKKe5SGZ1UCdmzwmVASuDvrlcTtUacDcsvYWwO57ZqJLGj6iafvx263WqtSzgrNf8l2qi3h554EQCZh3GamiWVU1koduEFN0iOYwQSBkBqq5OMpk5iwhb1tr05oUiGt1jzQqilzlJCH987d+j9FRSgeNPDZefnkhaqR9KdJ7ytlb3C0mkxZbSTyxvSk7T/f+YmSRMBIpE2v7x7dju8Oa35v/ttkvd+rhAxysG6+nWMiSs0eb35tIkQZIPuPWvPqA6o96CvtCf1Ld6a1kQAkJACAgBISAEhIAQEAJCQAgIASEgBISAEBACQkAICAEhIASEgBAQAkJACAgBISAEhIAQEAJCQAgIASEgBISAEBACQkAICAEhIASEgBAQAkJACAgBISAEhIAQEAJCQAgIASEgBISAEBACQkAICAEhIASEgBAQAkJACAgBISAEhIAQEAJCQAgIASEgBISAEBACQkAICAEhIASEgBAQAkJACAgBISAEhIAQEAJCQAgIASEgBISAEBACQkAICAEhIASEgBAQAkJACAgBISAEhIAQEAJCQAgIASEgBISAEBACQkAICAEhIASEgBAQAkJACAgBISAEhIAQEAJCQAgIASEgBISAEBACQkAICAEhIASEgBAQAkJACAgBISAEhIAQEAJCQAgIASEgBISAEBACQkAICAEhIASEgBAQAkJACAgBISAEhIAQEAJCQAgIASEgBISAEBACQkAICAEhIASEgBAQAkJACAgBISAEhIAQEAJCQAgIASEgBISAEBACQsBwOByGYdhstgQWdrvduoY301vy9jb64c30EbZ+ZT2OLAsBISAEhMCuEkhQc7vdHovFgH5i9AMAukBayg3D4B317k6nU29mt9uzsrL0R1kQAkJACAiBvSfAhjnruFb5aDQKAJFIREs/AGi7Xpv2Wuu1+vNX1lZh769QSiAEhIAQOMgErEptGAYLPf+NRCLbLQAANwCRSMRq3bO+8xrR+oNcr+TahYAQyEQCDvqxCj17b6LRqNWoZ4lPWKM9PFtN/ky8VCmTEBACQuBAEdjqT7d2sQIA+3D0Qjgc1uY8APBHtv21OW89woGCKRcrBISAEMg4Atq7YrPZ2N9i7Vbl4lq9N1ZDXjt29MrXOu4z7pqlQEJACAiBA0WAhV7LvVZq6xp23Gu7nnVfi7t29cRisYRu2ATv/4ECKxcrBISAEMh0Alro9YIW9O0W9JZa3/WaTL9aKZ8QEAJC4GAS0Hp96NChtxJIcMrbbDZrr+xbd5cNhIAQEAJCYA8IsD2urXLtxH9zUXTXrm4n3ry9fCsEhIAQEAJ7Q4D1XYu1lvvtSsMWPW//1o23O4isFwJCQAgIgd0joMWatdvhcNjp560l0G2DdaDsW/eSDYSAEBACQmC3CbDQW/++uQR2u93qpucdraL/5t3lWyEgBISAENgDAizWuk91a3x9Qpm0rPMub90+YXf5KASEgBAQAntAgCWbFV+H2G9XDt0k6C31jtvtIuuFgBAQAkJACAgBISAEhIAQEAJCQAgIASEgBISAEBACQkAICAEhIASEgBAQAkJACAgBISAEhIAQEAJCQAgIASEgBISAEBACQkAICAEhIASEgBAQAkJACAgBISAEhIAQEAJCQAgIASEgBISAEBACQkAICAEhIASEgBAQAkJACAgBISAEhIAQEAJCQAgIASEgBISAEBACQkAICAEhIASEgBAgAglzffDHWCwGANFoFMwfnhuEv906YciBZckTIvLlJ5A8sEzkwoWAEMg4AlqetGaxtsfoBwA2NjZ4TTgc5o31LllZWYZh8N+Mu7DdLZC18dvdM8vZhIAQEAI7I2AVawCIRCLanOcF/Vcfj3dh0dezv+pvD8ICXzu3guvr6wBwEK5arlEICIH9R8BqilqVi1037MMJh8OmCwf09ryxzWazNhL77/rftcQ2m42bNwBgSiL078pS9hMCQiDNBGz0k3ASrVyRSEQvb2xsxGIxwzBY4Fjo9bzeCUc4OB+10Eej0YNz1XKlQkAI7DMCWrK1iLN4scRroddGvb48vaM28/VXH/yC9lbphezs7A/+quUChYAQ2McEtF1vpx/DMFjWo9GoFvpIJMINgM1mczgcrPJa5vbxxb9H0bmFO4Dt3Hswk12FgBDYdQLaKtdRN9oboyUeANhNz12yCWU8mFrP3PRfhqBhJiCSj0JACOwzAvph1lbwPruAHReXxUt7bNii3/HesqEQEAJCYL8R0PpuGIZ2XOy3i0i6vNpat9r7SR9FdhACQkAI7AsCLHlWvfvgLXrdN6udOVr398Utk0IKASEgBJImoI16bdF/wMKno+P5qu12u9PpTBqZ7CAEhIAQ2EcEWNOt8RVaCvfRVey8qNZWTe+lV+o1siAEhIAQ+HAIsNBr85Yv7AO26K13jm35A3Kx1guXZSEgBA4cgcOHD+sAcwD4sIWPm7SsrCxr2yYW/YGr9HLBQuBAEdAWvQ431F2UHzYHq9B/2FcqVycEhMBBJ6CN2YMm9Af9xsv1CwEhcKAIJPhqtPQfKAhysUJACAiBD5aAlnUdSp+g+x/slcuFCQEhIAQOCIEEVzXHWYrWH5C7L5cpBITAwSJgDZ+3htUfLApytUJACAiBD4+A1Xhn615U/sO7y3JFQkAIHHQCnIddZ4DRzvqDzkWuXwgIASHwwRBgo173yuqFD+YC5UKEgBAQAkJACAgBISAEhIAQEAJCQAgIASEgBISAEBACQkAICAEhIASEgBAQAkJACAgBISAEhIAQEAJCQAgIASEgBISAEBACQkAICAEhIASEgBAQAkIgYwlYB7VZ89DZzJ+MLbkUTAgIASEgBN5OgNPP6SR0WvQT0hbp9W8/omwhBISAEBACmUPAmq9Caz0Xj+c615mLDsiUkJlza6QkQkAICIGUEdAzm2ub3eFw8LLOPMoLeoOUnVsOJASEgBAQArtAQMs3L1htfMMw2MxnX/0uFEZOIQSEgBAQAikmoG12LfeGYeiJ3QGAPTb8rXWbFJdDDicEhIAQEAJpJaCteHbaxGKxBK03DEM3CWktiRxcCAgBISAEUk/AGl3DRwcA1vpoNMqKLz2xqecuRxQCQkAI7C0BANAqH41GxWmzt7dDzi4EhIAQSD0BrfJs2ouPPvWI5YhCQAgIgb0lwME2LPfRaHSre2dviydnFwJCQAgIgRQQ0OOntMrrhRQcXQ4hBISAEBACGUKAxV0kPkNuhxRDCAgBIZAyAmzO2+123Q1rs9lE7lPGVw4kBISAENhzAlrfJbByz++FFEAICAEhkC4COqmZ1nqr+qfrrHJcISAEhIAQEAJCQAgIASEgBISAEBACQkAICAEhIASEgBAQAkJACAgBISAEhIAQEAJCQAgIASEgBISAEBACQkAICAEhIASEgBAQAkJACAgBISAEhIAQEAJCQAgIASEgBISAEBACQkAICAEhIASEgBAQAkJACAgBISAEhIAQEAJCQAgIASEgBISAEBACQkAICAEhIASEgBAQAntJgHPzb51zCwD0lOoAsHWDvSy0nFsICAEhIAR2TsA6CYt1lkUAiMVi/DcWi0UiEZ7AZedHli2FgBAQAkIggwiw3GvRB/MnEonwYiwWMwxD7PoMumdSFCEgBIRAUgR4DnWWcu20idEPALDcJ3VA2VgICAEhIAQyhYCNfrg0TqczQj9a3E3LHv312t7PlKJLOYSAEBACQiApAuyW0cquF7hLVk+sntQxZWMhIASEgBDYewJsp2vnu7UPVms9O+gNw9Aenr0vt5RACAgBISAEdk5Aq3xCl6zVV2P18Oz8yLKlEBACQkAI7D0B3fUKAFwarft7XzgpgRAQAkJACLw/gWg0qqNr3v9ocgQhIASEgBDIOALsiOexURxeafXYZFxxpUBCQAgIASGQLAGWeI6nFKdNsvRkeyEgBITAPiAQi8U4gNLqoxejfh/cOSmiEBACQmCHBHQMpRb6He4omwkBISAEhMB+IsBOG+260Qv76RqkrEJACAgBIfBmAglB9G/eWL4VAkJACAiBD4fA1gZAe/DZ8NcfP5xrliv5EAlY+6Kk0n6Id1iu6V0JvPZ5cDgc1uPZ7fbXbmbdRpaFwN4ScDgcemwgV1eptHt7R+TsGUHAKt/W/AfZ2dlcPu3H1wsZUW4phBDYhoDO4yQzK2xDSFYfYAJW+32rEcQqL1p/gCvI/rh0rrp2+pFUrPvjnkkpd4eAw+HQyq4XEkbP8uuwTm+5OwWTswiBZAlYbRFetlbpZI8m2wuBD4SANuTZV2Oz2XgNu3Q2NjYSJif5QC5bLuPDJWDVevHefLj3Wa4sGQJWc17vx6Or9ESy2ukZDof1NrIgBDKQAKu8Nl/0QgYWVYokBHabgH4e7Ha7Nf0ZL4fDYQCQV+DdvityvuQJ6FqqF8SoT56i7PGBEtD6rkPTdE7jSCSiHxXrw/OBkpDLOnAEtJWTMLGazhrCnboJHqEDh0kueF8TsNlsXL8BgC13Xb85K46u/XphX1+vFF4IWAlo+XY6nTyJpvWNlvuoOAZBrBwrN1neZwR09bXWb051qaPTrLH2++zypLhC4I0EeOwIy73dbudRtdbeKX4uuBnQD8sbDylfCoHMI6CrOC/oqpwg7rxef5t51yElEgLvRcBms1nfZfUyT832XoeWnYVAhhDQL7Daik+Io7euz5AySzGEQEoIaB+9HiyiZ+lhAz8cDjscDnFdpoS2HGTPCOgarGt8gjkvnbF7dm/kxLtCwGazsbjrGARrVIJ+kbXaQ7tSLjmJEEgRARZ3HU2v6zQfnj9u922KiiCHEQJ7RoBruB4ponuqIpGINQtmgmNzz4orJxYC70zAKu6s+zabLaFm8zbWLd/5dLKjEMg0AqzvrOzab8PqH4vFpPJn2v2S8ggBISAEkiDAfbAs7tqE1wY+r9dZXcXQSYJs2jbVHmZ9O/RC2s4pBxYCQmA/E7DZbFZ937qswxBETTLnPmvHQ+YUSUoiBIRARhPQfnkePqK7YVn0uehZWVki9Bl4F/mmSCd5Bt4aKZIQyCwC7J9JGCTFKr+xsaH7qwzD0E6DzLqAg1Qaa4igqPxBuvNyrULgPQjocVIcWBmLxayKr/02CbEJ73FC2fV9CWit1wcSi16jkAUhIAS2JWCNutE9sdFoVHzB2yLboy8SrHiR+D26D3JaIbCvCPBMOzqkkhMesF3PwTZsP4riZ85d1aPbOOui+NMy59ZISYRARhPgNN1a7tnAt5ZYLEcrjT1cZoue7xT3o0QiEV65h6WSUwsBIZDpBFjEs7KydLyNVeitIiJynyH3UrvX+H8nmnQAAASASURBVE6xaW8tm75TvMAvZ9Zbad1YloWAEPjwCViffxYONhg5Pb2+/q19gPorWdhlAluF3jp5hr5TrPJa9Llr3Xq7d7nYcjohIAT2jIAe+Jqg7LpAWjjEHayZ7O3Ca4Wetd56N1nT9VwC+vaJ1u/t7ZOzC4HdJqCfebvdzkKgU7eyQHCB9Ga7XT453+sIvFbo9QA3u92uB7jxjdMSzwtyN18HVdYJgQ+XAI+H2vrk8xrraCmr7n+4PPbHlb1W6HVfejgc5suwWvf8WmZdsz8uVUopBIRASgiwpmv/jHbpaq2XMbEp4ZzCg7xW6HnWa7brdSetXrA66Le26yksmxxKCAiBTCSglZ1f+VnWtcpbRUFvmYmXcZDKtFXodZ4irezawNdrmJB24xwkYHKtQuBgE2Dttr7RW924Wu5F4jOqmmwVel5jja/XE0Nao2Z1TouMuhwpjBAQAkLgQBCwNqXaBn/tgtVU58REvEZPA6k3SNB9ALCe5UBglYsUAkJACGQCAav4vtZUt8o9K3skEtHirr/lNeFwmBesyenYfa9j7a3uuEwgIGUQAkJACBwIAroTVRvmWsETFsLhMK/RUq4zFOktE1oCln49gFaE/kBUKblIISAEMorAa21wrdpbF3SrYH0DSLgi64sCK7udfgzDsH6VsJd8FAJCQAgIgbQQSPC6aAN8O4mP0o9V5bW1rsun1dxqv+uVejNZEAJCQAgIgbQTYDXXfhjtmdmq8lZl52KxiGsp56TTWs2t4910VKUeMJH2C5MTCAEhIASEgGEYVu3W/aivlXheGYvFuCVISEyknTNMVcs6f9TtAa9P+FZuhBAQAkJACKSRgPa2a3fNWztjOS5el4ntd23UW815HTVvVXa9pT6CLOwNAT16JeGW6Duqb5u+qXtTUDmrEBAC70eA9V3/1br/BqOev9J5KRJU4v2Kk7K9dam0akkn8Ca4OnegFnGNzEpK5xrctLN8EAJCYF8R0A4ZbdFbB7JulXu9GV+lVolMvmjuFdDmaSYXdbfLlnD/rPfb6psTdrt9Y+R8QiClBLSPnm35nVj0vI3V7MvM/lVts+qXD9GrTXVHqzzP5MlVYWtLbrX0N+0vH4SAENgnBPi51uGSALCxsWE17LZb5uuzxtVk2hWzjunya1nLtHLuZXnYTa9vv7W1txZLtN5KQ5aFwL4jkKDs2p7T+rh1QVv9uq81MzVUl5NN1X13a9JeYJ7hgW/w1huvX9ky8+6mnY6cQAh8QASsOq4j6PWC9VvrciwWi0QiGe4JsSpYLBaTiWs2VVvts9PZKjiRBY+niMViVn9cht/pTRcmH4SAEHgdgQSj/q0qrxU/Eolo9/frDryX6xwORzQaZdWKRCLRaFQM0033w2rC68Fy+tbGYjHtrtELm/aXD0JACOwrAvx0Wx0d1mX97OsFDrRnocjkC+USakGzRpFkcrF3qWz6dm63wOUQld+l+yGnEQJpJrDdk/7W9Rmu9QnlF8naVI8S6Gz9yFsLtU3U5IMQ2LcEtj7jO1wjQr/1nv8/eTVca6OCq3kAAAAASUVORK5CYII=;" vertex="1" parent="1">
                    <mxGeometry x="430" y="18.88" width="386.67" height="290" as="geometry"/>
                </mxCell>
            </root>
        </mxGraphModel>
    </diagram>
</mxfile>